<svg id="Layer_1" data-name="Layer 1" xmlns="http://www.w3.org/2000/svg" viewBox="0 0 60.37 60.37"><defs><style>.cls-1{fill:#fff;}</style></defs><path id="file_pdf" class="cls-1" d="M61.37,37.91v6H49.29v6H61.37v6H49.29v6h-6V37.91ZM40.24,47v6a9.06,9.06,0,0,1-9.06,9.06h-9V37.91h9.05A9.08,9.08,0,0,1,40.24,47Zm-6,.32a3.31,3.31,0,0,0-3-3.34h-3V56h3a2.77,2.77,0,0,0,3-2.7ZM19.11,47A9.06,9.06,0,0,1,10.05,56H7v6H1V37.91h9.06A9.06,9.06,0,0,1,19.11,47Zm-6,.32a3,3,0,0,0-3-3H7v6h3A3,3,0,0,0,13.07,47.28ZM43.19,1.68H1V31.87H7V7.72H37.22V25.83H55.33v6h6V21.12Z" transform="translate(-0.99 -1.68)"/></svg>