<svg id="Layer_1" data-name="Layer 1" xmlns="http://www.w3.org/2000/svg" viewBox="0 0 71.27 71.27"><defs><style>.cls-1{fill:#fff;}</style></defs><path class="cls-1" d="M74,54.39a16.31,16.31,0,0,0-.76-3.91A17.82,17.82,0,1,0,52.79,73.3c.78.16,1.58.24,2.37.35h2.18c.82-.12,1.66-.2,2.47-.36A17.83,17.83,0,0,0,73.78,59c.12-.68.19-1.36.29-2V54.74A2,2,0,0,1,74,54.39ZM56.25,69.21A13.38,13.38,0,1,1,69.62,55.83,13.42,13.42,0,0,1,56.25,69.21Z" transform="translate(-2.79 -2.38)"/><path class="cls-1" d="M8,55.83c-.61,0-.7-.09-.7-.72V24.68h49v8.87H60.7V16.32a4.83,4.83,0,0,0-2.43-4.39C57,11.12,55.5,11.3,54,11.31v.43c0,.7,0,1.41,0,2.11a4.43,4.43,0,0,1-8.72.78,16.6,16.6,0,0,1-.16-2.74c0-.19,0-.38,0-.57H18.38v.41c0,.7,0,1.39,0,2.08a4.44,4.44,0,0,1-8.79.54,20.57,20.57,0,0,1-.09-2.61c0-.14,0-.28,0-.45H7.75A4.85,4.85,0,0,0,2.8,16.23q0,19.55,0,39.09a4.84,4.84,0,0,0,4.93,5H33.59l.37,0V55.83H8Z" transform="translate(-2.79 -2.38)"/><path class="cls-1" d="M34,51.37V42.49H25.08v8.88Z" transform="translate(-2.79 -2.38)"/><path class="cls-1" d="M20.59,51.36V42.49H11.72v8.87Z" transform="translate(-2.79 -2.38)"/><path class="cls-1" d="M20.59,29.14H11.72V38h8.87Z" transform="translate(-2.79 -2.38)"/><path class="cls-1" d="M34,29.14H25.08V38H34Z" transform="translate(-2.79 -2.38)"/><path class="cls-1" d="M47.32,38V29.14H38.45V38Z" transform="translate(-2.79 -2.38)"/><path class="cls-1" d="M47.36,9c0,1.57,0,3.13,0,4.69a2.16,2.16,0,0,0,2.14,2,2.21,2.21,0,0,0,2.24-1.88,11.07,11.07,0,0,0,0-1.41q0-3.89,0-7.75a2.23,2.23,0,1,0-4.45,0c0,1.44,0,2.88,0,4.32Z" transform="translate(-2.79 -2.38)"/><path class="cls-1" d="M11.72,9.07c0,1.55,0,3.1,0,4.65a2.16,2.16,0,0,0,2.14,2,2.19,2.19,0,0,0,2.24-1.88,13.74,13.74,0,0,0,.05-1.7c0-2.48,0-5,0-7.45a2.25,2.25,0,0,0-2.3-2.33,2.22,2.22,0,0,0-2.15,2.33c0,1.45,0,2.9,0,4.36Z" transform="translate(-2.79 -2.38)"/><path class="cls-1" d="M63,55.84H56.25V49.24a2.23,2.23,0,1,0-4.45,0V58a2.2,2.2,0,0,0,2.3,2.32h8.76a2.51,2.51,0,0,0,.82-.13,2.21,2.21,0,0,0-.71-4.3Z" transform="translate(-2.79 -2.38)"/></svg>