<?xml version="1.0" encoding="utf-8"?>
<!-- Generator: Adobe Illustrator 24.2.3, SVG Export Plug-In . SVG Version: 6.00 Build 0)  -->
<svg version="1.1" xmlns="http://www.w3.org/2000/svg" xmlns:xlink="http://www.w3.org/1999/xlink" x="0px" y="0px"
	 viewBox="0 0 325 31.8" style="enable-background:new 0 0 325 31.8;" xml:space="preserve">
<g>
	<polygon points="101,21.3 88.9,0.9 73.2,1 73.2,1 50.7,1 31.9,30.9 23.6,17.4 0.3,17.4 8.5,30.9 31.9,30.9 31.9,30.9 55.8,30.9 73.3,1.1 85.3,21.3"/>
	<g>
		<polygon points="262.6,1.6 262.6,1.7 262.6,24.6 269.7,30.6 269.7,1.6 268.2,1.6"/>
		<polygon points="165.8,1.6 157.1,1.6 146.7,13.4 146.5,13.4 146.5,1.6 139.7,1.6 139.7,30.6 146.5,30.6 146.5,25.1 146.6,21.9 153.3,14.9 		"/>
		<polygon points="165.9,1.6 176.9,19 176.9,30.6 184.6,30.6 184.6,18.9 174.4,1.6"/>
		<polygon points="149.5,19 158.4,30.6 165.9,30.6 157.5,19"/>
		<polygon points="180.8,12.2 188.9,12.2 195.6,1.6 187.1,1.6"/>
		<polygon points="207.3,1.6 218.3,19 218.3,30.6 226,30.6 226,18.9 215.8,1.6"/>
		<polygon points="222.2,12.2 230.3,12.2 237,1.6 228.5,1.6"/>
		<polygon points="202.8,1.6 195.7,1.6 195.7,24.6 202.8,30.6 202.8,30.7 214.3,30.7 214.3,24.6 202.8,24.6"/>
		<polygon points="237,7.6 242.5,7.6 242.5,7.5 252.2,7.5 245.2,12.3 245.2,30.6 252.2,30.6 252.2,7.6 260.5,7.6 260.5,1.6 237,1.6"/>
		<path d="M129.1,13c-4.1-0.8-6.9-1.2-6.9-3.6c0-1.5,1.1-2.5,3.8-2.5c1.5,0,2.7,0.3,3.6,0.9h8.3c-1.8-4.7-6-7-11.7-7 c-6.6,0-11.2,2.9-11.2,8.8c0,6.1,5,7.9,9,8.8c3.6,0.9,7.2,0.7,7.2,3.5c0,1.8-1.6,2.8-4.3,2.8c-2.1,0-3.7-0.6-4.7-1.6h-7.8 c1.7,6.1,7.5,7.6,12.6,7.6c7.2,0,11.4-3,11.4-8.9C138.2,15.7,133.4,13.9,129.1,13z"/>
		<path d="M315.2,13c-4.1-0.8-7-1.2-7-3.6c0-1.5,1.1-2.5,3.8-2.5c1.5,0,2.7,0.3,3.6,0.9h8.3c-1.8-4.7-6-7-11.8-7 c-6.6,0-11.2,2.9-11.2,8.8c0,6.1,5,7.9,9,8.8c3.6,0.9,7.2,0.7,7.2,3.5c0,1.8-1.6,2.8-4.3,2.8c-2.1,0-3.7-0.6-4.7-1.6h-7.8 c1.7,6.1,7.5,7.6,12.6,7.6c7.2,0,11.5-3,11.5-8.9C324.3,15.7,319.5,13.9,315.2,13z"/>
		<path d="M285.9,24.5c-4.7,0-8.5-3.8-8.5-8.5c0-4.7,3.8-8.5,8.5-8.5c3.3,0,6.1,1.8,7.5,4.5h6.5 c-1.7-6.2-7.4-10.7-14.1-10.7c-8.1,0-14.6,6.5-14.6,14.6s6.5,14.6,14.6,14.6c7,0,12.8-4.9,14.3-11.5h-6.4 C292.5,22.3,289.4,24.5,285.9,24.5z"/>
	</g>
</g>
</svg>
