<?xml version="1.0" encoding="utf-8"?>
<!-- Generator: Adobe Illustrator 24.2.3, SVG Export Plug-In . SVG Version: 6.00 Build 0)  -->
<svg version="1.1" id="Layer_1" xmlns="http://www.w3.org/2000/svg" xmlns:xlink="http://www.w3.org/1999/xlink" x="0px" y="0px"
	 viewBox="0 0 100.9 30.1" style="enable-background:new 0 0 100.9 30.1;" xml:space="preserve">
<style type="text/css">
	.st0{fill:#FFFFFF;}
</style>
<g id="layer1_4_" transform="translate(677.9313,-313.85407)">
	<g id="layer1-1_4_" transform="matrix(0.03978217,0,0,0.03978217,-658.51488,317.36166)">
		<path id="path21_4_" class="st0" d="M-40.5,605.8c120.1-21.2,219.3-38.8,220.4-39l2.1-0.4L68.6,431.4
			C6.2,357.3-44.8,296.3-44.8,295.9c0-0.7,117.1-323.1,117.7-324.2c0.2-0.4,79.9,137.2,193.1,333.4
			c106,183.8,193.4,335.3,194.2,336.7l1.5,2.6l-360.3,0l-360.3,0L-40.5,605.8z M1341.3,573.1c-54.9-3.5-86.8-34.8-95.2-93.2
			c-2.2-15.6-2.3-16-2.5-116.9l-0.2-97.7h24.3h24.3l0.2,94.5c0.2,85.2,0.3,95.2,1.1,101.2c3.3,24.3,9.9,40.7,21.1,52.4
			c9,9.4,19.5,14.9,34,17.8c6.8,1.4,26.4,1.4,32.6,0c14.7-3.2,26.5-9.7,37-20.1c11.9-11.9,20.7-28.7,24.9-47.7l1.4-6.4l0.2-95.3
			l0.2-95.3h24.8h24.8v149.9V566h-24.5H1445v-23.8c0-16.2-0.2-23.7-0.6-23.6c-0.3,0.1-1.6,2-2.8,4.3c-8.4,15.4-22.5,29.5-38,38
			C1385.2,571.1,1366.7,574.8,1341.3,573.1L1341.3,573.1z M1898.1,572.9c-19.4-1.5-39.8-8.1-56.4-18.4
			c-35.1-21.7-55.9-57.5-62-106.8c-2.1-17.1-2.4-40-0.6-54.5c3.9-32.4,16.7-64.2,34.8-86.9c4.6-5.8,15.2-16.4,21-21
			c15.7-12.5,34.1-21.3,53.6-25.6c11.4-2.5,31.4-3.6,43.5-2.5c30.3,2.8,58.1,17.1,77,39.6c19.2,22.8,29.8,54.8,31.1,94.1
			c0.2,6.2,0.3,17,0.1,24l-0.3,12.8l-106.2,0.1l-106.3,0.1v4.7c0,14.4,3.5,30.9,9.6,44.9c5.2,12.1,14.2,25.2,21.6,31.6
			c15.1,13.1,33.6,20.9,53.9,22.8c7.5,0.7,26.6,0,35.2-1.3c24.4-3.8,47.6-13.3,66.4-27.4c2.2-1.7,4.3-3.2,4.7-3.4
			c0.6-0.3,0.7,4,0.7,22.1l0,22.6l-5,3.1c-21.2,13.1-45.5,21.5-71.2,24.7C1935.4,573.2,1907.2,573.6,1898.1,572.9L1898.1,572.9z
			 M1990.5,382.7c0-24.2-10.2-51-24.6-64.9c-10.3-9.9-22.7-15.9-37.5-18.2c-7-1.1-21.7-0.7-29.1,0.8c-15.6,3.2-28.5,10-39.7,21.1
			c-11.8,11.7-20.7,25.9-26.3,42.1c-2,5.8-4.4,15.4-5.1,20.7l-0.4,2.5h81.4h81.4L1990.5,382.7L1990.5,382.7z M549.3,565.4
			c0.1-0.4,36.2-95.2,80.2-210.6l80-210h25.7h25.7l2.1,5.5C769.5,167,923,565.6,923,565.8c0,0.1-12.3,0.2-27.3,0.2l-27.3,0
			l-22.1-58.9l-22.1-58.9H735h-89.1l-0.8,2c-0.4,1.1-9.9,27.6-21,58.9L603.9,566l-27.4,0C554.8,566,549.1,565.9,549.3,565.4
			L549.3,565.4z M807.8,403.2c0-0.1-14.9-40.5-33.1-89.7c-34.1-92.1-36-97.7-38.7-112.5c-1.3-6.9-1.9-7.1-2.7-0.8
			c-0.5,4.5-2.9,14.7-4.7,20.3c-0.9,2.8-16.2,44.9-34.1,93.5c-17.9,48.7-32.5,88.7-32.5,88.9c0,0.2,32.8,0.5,72.8,0.5
			C775.1,403.4,807.8,403.3,807.8,403.2z M939.5,558.4v-7.7l88.8-122l88.8-122l-80.4-0.3l-80.4-0.3l-0.1-20.4l-0.1-20.4h116.3h116.3
			v6.9v6.9l-88.8,122.7c-48.8,67.5-88.8,122.8-88.8,123s39.5,0.2,87.7,0.2h87.7v20.5V566H1063H939.5L939.5,558.4L939.5,558.4z
			 M1591,565.7c-0.2-0.2-0.4-67.9-0.4-150.4v-150h24.3h24.3v30.9c0,17,0.2,30.9,0.5,30.9s1.4-2.8,2.6-6.2
			c5.5-15.6,14.9-30.2,27.1-41.8c11-10.4,23.5-16.7,38.3-19.1c4.2-0.7,7.7-0.8,16-0.6c10.4,0.3,15.9,1,22.3,3.1l2,0.6v25.2v25.2
			l-5.7-2.9c-10.1-5.1-20.1-7.1-32.1-6.5c-7.8,0.4-12.9,1.4-19.2,3.8c-12.9,4.8-23.3,13.3-30.6,25c-10.6,16.8-18.1,38.5-20.3,58.4
			c-0.4,3.6-0.6,32.6-0.7,89.9l-0.1,84.7h-23.9C1602.1,566,1591.2,565.9,1591,565.7z M-473,564.6c0-0.2,53.4-92.9,118.7-206.1
			l118.7-205.8L-97.2,36.7C-21.1-27.2,41.4-79.5,41.6-79.6c0.2-0.1-0.8,2.4-2.2,5.6c-1.5,3.2-69.1,148.2-150.2,322.2l-147.6,316.5
			l-107.3,0.1C-424.7,564.9-473,564.8-473,564.6z"/>
	</g>
</g>
</svg>
