<?xml version="1.0" encoding="utf-8"?>
<!-- Generator: Adobe Illustrator 24.2.3, SVG Export Plug-In . SVG Version: 6.00 Build 0)  -->
<svg version="1.1" id="Layer_1" xmlns="http://www.w3.org/2000/svg" xmlns:xlink="http://www.w3.org/1999/xlink" x="0px" y="0px"
	 viewBox="0 0 138.1 21.6" style="enable-background:new 0 0 138.1 21.6;" xml:space="preserve">
<style type="text/css">
	.st0{fill:#FFFFFF;}
</style>
<g>
	<polygon class="st0" points="25.4,5.5 25.4,0.7 10.5,15.9 10.5,20.5 	"/>
	<polygon class="st0" points="25.4,0.7 25.4,5.5 30.7,10.7 25.6,15.9 10.5,0.8 0.6,10.7 10.5,20.5 10.5,15.9 5.3,10.7 10.5,5.5 
		25.6,20.6 35.5,10.6 	"/>
	<polygon class="st0" points="46,5.8 48.6,5.8 48.6,13.3 52.7,13.3 52.7,15.5 46,15.5 	"/>
	<path class="st0" d="M79.1,13.9l1.9-1.4c0.5,0.6,1.1,1.1,2,1.1c0.8,0,1.2-0.2,1.2-0.8c0-0.4-0.3-0.6-1-0.8l-1.1-0.4
		c-1.4-0.5-2.4-1.3-2.4-2.9c0-1.9,1.6-2.9,3.3-2.9c1.7,0,2.7,0.6,3.2,1.3l-1.5,1.6c-0.4-0.4-0.8-0.7-1.6-0.7c-0.6,0-0.9,0.3-0.9,0.7
		c0,0.4,0.2,0.6,0.7,0.7l1.3,0.4c1.9,0.6,2.6,1.6,2.6,3c0,1.8-1.1,3.1-3.7,3.1C80.9,15.7,79.7,14.7,79.1,13.9z"/>
	<path class="st0" d="M97.5,15.5h-2.6l4.7-9.9c0-0.1,0.1-0.1,0.2,0l4.7,9.9h-2.7l-0.4-0.8h-3.7L97.5,15.5z M99.6,10.5l-1,2.3h2
		L99.6,10.5z"/>
	<path class="st0" d="M115.1,10.7v4.9h-2.4V5.7c0-0.1,0-0.2,0.2,0l6.1,5V5.8h2.4v9.9c0,0.1,0,0.2-0.2,0L115.1,10.7z"/>
	<polygon class="st0" points="132.3,8 129.7,8 129.7,5.8 137.5,5.8 137.5,8 134.9,8 134.9,15.5 132.3,15.5 	"/>
	<path class="st0" d="M65.9,5.7c-2.8,0-5,2.2-5,5c0,2.8,2.2,5,5,5c2.8,0,5-2.2,5-5l0,0C70.9,7.9,68.6,5.7,65.9,5.7z M65.9,13.4
		c-1.5,0-2.7-1.2-2.7-2.6c0-1.5,1.2-2.6,2.7-2.6s2.7,1.2,2.7,2.6C68.5,12.2,67.3,13.4,65.9,13.4L65.9,13.4z"/>
</g>
</svg>
