<?xml version="1.0" encoding="utf-8"?>
<!-- Generator: Adobe Illustrator 24.2.3, SVG Export Plug-In . SVG Version: 6.00 Build 0)  -->
<svg version="1.1" id="Layer_1" xmlns="http://www.w3.org/2000/svg" xmlns:xlink="http://www.w3.org/1999/xlink" x="0px" y="0px"
	 viewBox="0 0 90.2 27.9" style="enable-background:new 0 0 90.2 27.9;" xml:space="preserve">
<g>
	<path d="M6.8,23.4h-3v1.3h1.3c0,0.4,0,0.5-0.2,0.8S4.4,26,4,26c-1,0-1.5-0.8-1.5-2.3c0-1.5,0.5-2.4,1.4-2.4
		c0.5,0,0.8,0.2,1,0.6c0.1,0.2,0.2,0.4,0.2,0.7l1.6-0.2C6.5,20.9,5.5,20,4,20c-1.9,0-3.2,1.5-3.2,3.8c0,2.2,1.2,3.6,3,3.6
		c0.9,0,1.4-0.2,2-1C5.9,26.8,6,26.9,6,27.3h0.8L6.8,23.4L6.8,23.4z"/>
	<path d="M11.5,20c-1,0-1.8,0.4-2.3,1c-0.5,0.7-0.8,1.6-0.8,2.7s0.3,2,0.8,2.7c0.5,0.7,1.3,1,2.2,1c1,0,1.8-0.4,2.3-1.1
		c0.5-0.7,0.8-1.7,0.8-2.7c0-1-0.3-1.9-0.8-2.7C13.2,20.3,12.4,20,11.5,20L11.5,20z M11.5,21.4c0.5,0,0.8,0.1,1,0.6
		c0.2,0.4,0.3,1,0.3,1.8c0,1.5-0.4,2.3-1.3,2.3c-0.9,0-1.3-0.8-1.3-2.3C10.1,22.2,10.6,21.4,11.5,21.4L11.5,21.4z"/>
	<polygon points="17.9,25.9 17.9,20.1 16.2,20.1 16.2,27.3 20.8,27.3 20.8,25.9 	"/>
	<path d="M22.2,20.1v7.2h2.5c1.1,0,1.9-0.3,2.5-1c0.6-0.7,0.9-1.6,0.9-2.6c0-1-0.3-1.9-0.9-2.6c-0.7-0.8-1.4-1-2.8-1
		H22.2L22.2,20.1z M23.9,21.4h0.7c0.6,0,1,0.2,1.3,0.6c0.3,0.5,0.5,1,0.5,1.6s-0.2,1.3-0.5,1.7c-0.3,0.4-0.7,0.6-1.3,0.6h-0.7V21.4
		L23.9,21.4z"/>
	<path d="M38.9,22.7c-0.1-0.9-0.3-1.3-0.6-1.7c-0.5-0.7-1.3-1-2.3-1s-1.8,0.4-2.4,1.1c-0.6,0.6-0.8,1.6-0.8,2.6
		c0,2.3,1.3,3.7,3.2,3.7c1,0,1.9-0.4,2.4-1.2c0.3-0.4,0.5-0.8,0.6-1.5l-1.7-0.1C37.1,25.6,36.7,26,36,26c-0.9,0-1.3-0.7-1.3-2.3
		c0-1.6,0.4-2.4,1.3-2.4c0.5,0,0.8,0.2,1,0.6c0.1,0.2,0.2,0.4,0.2,0.9L38.9,22.7L38.9,22.7z"/>
	<polygon points="45.6,21.4 45.6,20.1 40.5,20.1 40.5,27.3 45.6,27.3 45.6,25.9 42.2,25.9 42.2,24.3 44.9,24.3 
		44.9,22.9 42.2,22.9 42.2,21.4 	"/>
	<path d="M48.9,24.4h1.2l1.1,2.8h1.9l-1.3-3.2c0.3-0.2,0.5-0.2,0.7-0.4c0.4-0.3,0.6-0.9,0.6-1.4c0-0.6-0.3-1.3-0.7-1.7
		c-0.5-0.4-1-0.5-1.9-0.5h-3.2v7.2h1.7L48.9,24.4L48.9,24.4z M48.9,21.4h1c0.7,0,0.8,0,1,0.2c0.2,0.1,0.3,0.4,0.3,0.7
		c0,0.3-0.2,0.7-0.4,0.8c-0.2,0.1-0.3,0.2-0.9,0.2h-1V21.4L48.9,21.4z"/>
	<polygon points="59.5,20.1 54.2,20.1 54.2,21.5 56,21.5 56,27.3 57.7,27.3 57.7,21.5 59.5,21.5 	"/>
	<polygon points="60.8,27.3 62.5,27.3 62.5,20.1 60.8,20.1 	"/>
	<polygon points="69.6,21.5 69.6,20.1 64.5,20.1 64.5,27.3 66.3,27.3 66.3,24.5 69,24.5 69,23.1 66.3,23.1 66.3,21.5 	
		"/>
	<polygon points="71.1,27.3 72.8,27.3 72.8,20.1 71.1,20.1 	"/>
	<polygon points="80,21.4 80,20.1 74.8,20.1 74.8,27.3 80,27.3 80,25.9 76.5,25.9 76.5,24.3 79.2,24.3 79.2,22.9 
		76.5,22.9 76.5,21.4 	"/>
	<path d="M81.6,20.1v7.2H84c1.1,0,1.9-0.3,2.5-1c0.6-0.7,0.9-1.6,0.9-2.6c0-1-0.3-1.9-0.9-2.6c-0.7-0.8-1.4-1-2.8-1
		H81.6L81.6,20.1z M83.2,21.4H84c0.6,0,1,0.2,1.3,0.6c0.3,0.5,0.5,1,0.5,1.6s-0.2,1.3-0.5,1.7c-0.3,0.4-0.7,0.6-1.3,0.6h-0.7V21.4
		L83.2,21.4z"/>
	<path d="M2.2,8.9l-1.3,5.7H5l1.5-5.7l0.4-1.8l0,1.8l0.1,5.7H10l2.9-5.7l0.9-1.8l-0.4,1.8l-1.3,5.7h4l1.3-5.7l0.7-3.2
		l1.1-5.1h-5.6l-2.5,5.1L9.9,8.5L9.9,5.7L9.7,0.6H4.1L3,5.7L2.2,8.9L2.2,8.9z M22.9,5.7l0.3-1.5h-3.8l-0.3,1.5l-0.7,3.2l-1.3,5.7
		h3.8l1.3-5.7L22.9,5.7L22.9,5.7z M33.2,5.7C32.7,4.8,31.6,4,29.6,4c-2.1-0.1-3.8,0.6-5,1.7c-0.9,0.9-1.6,2-1.9,3.2
		c-0.8,2.9,0.5,6,4.2,6c5.3,0.1,6.5-4.1,6.5-4.2h-4c-0.1,0.2-0.7,1.5-1.8,1.5c-1.5,0-1.6-1.8-1-3.4c0.5-1.3,1.3-2.5,2.4-2.5
		C30.1,6.4,30,8,30,8.1h3.9C33.9,8,34,6.8,33.2,5.7L33.2,5.7z M41.4,5.7L41.8,4c-0.7,0-1.2,0.1-1.8,0.3c-0.7,0.3-1.3,0.6-1.7,1.2
		l0.3-1.3h-3.4l-0.3,1.5l-0.7,3.2l-1.3,5.7h3.6l0.8-3.7c0.2-0.9,0.5-1.5,0.8-2c0.8-1.3,1.8-1.5,2.5-1.5c-0.3,0.5-0.5,1-0.6,1.5
		c-0.7,2.9,0.6,5.9,4.5,6.1c3,0.1,5.3-1.5,6.2-3.4c-0.1,1.2,0.4,3.4,5.3,3.5c5.5,0.1,5.9-3.4,5.9-4.2c0-0.9-0.3-1.5-0.8-2
		c-0.9-0.9-2.4-1-3.8-1.3c-1.7-0.4-1.4-1.7,0.1-1.7c1.7,0,1.3,1.4,1.3,1.4h3.6c0-0.1,0.2-0.8-0.1-1.6c-0.3-0.9-1.4-1.9-4.4-1.9
		c-2.1,0-4.2,0.5-5,1.9c-0.2,0.4-0.3,0.7-0.4,1.2c-0.1,0.9,0.1,1.5,0.5,2c1,1.1,3,1.5,3.7,1.6c2.1,0.4,1.5,2.1-0.1,2.1
		c-2.2,0-1.7-1.6-1.7-1.6h-7l3.1-1.1c0.3-0.1,0.5-0.2,0.6-0.5c0-0.2,0.1-0.4,0.1-0.5c0.1-1.2-0.1-2.3-0.7-3.2
		c-0.7-1.1-2-1.8-3.8-1.9c-2.2-0.1-3.9,0.7-5.2,1.9c-0.2,0.2-0.4,0.4-0.6,0.6L41.4,5.7L41.4,5.7z M73.2,5.7c-0.7-1-2-1.8-3.8-1.9
		c-2.2-0.1-3.9,0.7-5.2,1.9c-0.9,0.9-1.5,2-1.8,3.2c-0.7,2.9,0.6,5.9,4.5,6.1c4.2,0.1,6.8-3.1,7-6.1C74,7.7,73.8,6.6,73.2,5.7
		L73.2,5.7z M86.9,5.7l0.3-1.5h-1.8L86,1.7h-3.5l-0.5,2.5h-2.2l0.1-0.3c0.2-0.8,0.2-1.2,1.4-1.2l0.4-2c0,0-3-0.4-4.1,0.5
		c-0.8,0.6-1.1,1.4-1.5,2.9h-1.8l-0.3,1.5l-0.2,1h1.9l-0.5,2.3l-1.3,5.7h3.7l1.3-5.7l0.5-2.3h2.1l-0.5,2.3l-0.7,3
		c-0.3,1.4,0.2,2,0.7,2.3c1,0.7,4,0.4,4,0.4l0.6-2.4c0,0-1.5,0.2-1.7-0.2c-0.1-0.3,0-0.5,0-0.8l0.5-2.3l0.5-2.3h1.8L86.9,5.7
		L86.9,5.7z M88.1,5.7C88,5.6,88,5.4,88,5.3c0-0.6,0.4-1,1-1s1,0.4,1,1c0,0.1,0,0.3-0.1,0.4C89.7,6,89.3,6.2,89,6.2
		C88.6,6.2,88.3,6,88.1,5.7L88.1,5.7z M90,5.7c0-0.1,0.1-0.3,0.1-0.4c0-0.6-0.5-1.1-1.2-1.1s-1.2,0.5-1.2,1.1c0,0.1,0,0.3,0.1,0.4
		c0.2,0.4,0.6,0.7,1,0.7C89.5,6.4,89.9,6.1,90,5.7L90,5.7z M88.6,5.7l0.1-0.4H89l0.2,0.4l0,0.1h0.2l0-0.1l-0.1-0.4
		c0.2,0,0.3-0.1,0.3-0.4c0-0.2-0.1-0.4-0.3-0.4h-0.5l-0.2,1.1l0,0.1h0.2V5.7L88.6,5.7z M89.4,4.9c0,0.2-0.2,0.2-0.4,0.2h-0.2
		l0.1-0.4h0.3C89.3,4.8,89.4,4.8,89.4,4.9L89.4,4.9z M24,0.6h-3.8l-0.5,2.3h3.8L24,0.6L24,0.6z M43.9,8.9c0.5-1.5,1.6-2.8,2.8-2.7
		c1,0.2,1.3,1.4,1.1,2.7c-0.3,1.8-1.5,3.7-3.1,3.4C43.4,12.1,43.4,10.4,43.9,8.9L43.9,8.9z M66.3,8.9c0.5-1.5,1.6-2.8,2.8-2.7
		c1,0.2,1.3,1.4,1.1,2.7c-0.3,1.8-1.5,3.7-3.1,3.4C65.9,12.1,65.8,10.4,66.3,8.9L66.3,8.9z"/>
</g>
</svg>
