<?xml version="1.0" encoding="utf-8"?>
<!-- Generator: Adobe Illustrator 24.3.0, SVG Export Plug-In . SVG Version: 6.00 Build 0)  -->
<svg version="1.1" id="Layer_1" xmlns="http://www.w3.org/2000/svg" xmlns:xlink="http://www.w3.org/1999/xlink" x="0px" y="0px"
	 viewBox="0 0 377.2 96.9" style="enable-background:new 0 0 377.2 96.9;" xml:space="preserve">
<style type="text/css">
	.st0{fill:#FFFFFF;}
</style>
<g>
	<path class="st0" d="M22.3,41.9h-2.5V27.8c0-1.1,0.1-2.5,0.2-4.1H20c-0.2,1-0.4,1.6-0.6,2l-7.2,16.2h-1.2L3.8,25.8
		c-0.2-0.5-0.4-1.2-0.6-2.2H3.1c0.1,0.8,0.1,2.2,0.1,4.1v14.1H0.8V20.8h3.3l6.5,14.7c0.5,1.1,0.8,2,1,2.5h0.1c0.4-1.2,0.8-2,1-2.6
		l6.6-14.7h3.1V41.9z"/>
	<path class="st0" d="M28.4,23.1c-0.4,0-0.8-0.1-1.1-0.4c-0.3-0.3-0.5-0.7-0.5-1.1c0-0.5,0.2-0.8,0.5-1.1c0.3-0.3,0.7-0.4,1.1-0.4
		c0.4,0,0.8,0.1,1.1,0.4c0.3,0.3,0.5,0.7,0.5,1.1c0,0.4-0.2,0.8-0.5,1.1C29.2,22.9,28.8,23.1,28.4,23.1z M29.6,41.9h-2.4V26.9h2.4
		V41.9z"/>
	<path class="st0" d="M44.4,41.3c-1.2,0.7-2.5,1-4.1,1c-2.1,0-3.9-0.7-5.2-2.1c-1.3-1.4-2-3.2-2-5.4c0-2.5,0.7-4.5,2.1-6
		c1.4-1.5,3.3-2.3,5.7-2.3c1.3,0,2.5,0.2,3.5,0.7v2.5c-1.1-0.8-2.3-1.2-3.6-1.2c-1.5,0-2.8,0.6-3.8,1.7s-1.5,2.6-1.5,4.3
		c0,1.8,0.5,3.2,1.4,4.2c0.9,1,2.2,1.5,3.7,1.5c1.3,0,2.6-0.4,3.7-1.3V41.3z"/>
	<path class="st0" d="M55.5,29.3c-0.4-0.3-1-0.5-1.8-0.5c-1,0-1.9,0.5-2.6,1.5c-0.7,1-1,2.3-1,4v7.7h-2.4V26.9h2.4V30h0.1
		c0.3-1.1,0.9-1.9,1.6-2.5c0.7-0.6,1.5-0.9,2.4-0.9c0.6,0,1.1,0.1,1.4,0.2V29.3z"/>
	<path class="st0" d="M63.7,42.3c-2.2,0-4-0.7-5.3-2.1c-1.3-1.4-2-3.3-2-5.6c0-2.5,0.7-4.5,2.1-5.9c1.4-1.4,3.3-2.1,5.6-2.1
		c2.2,0,4,0.7,5.3,2.1c1.3,1.4,1.9,3.3,1.9,5.8c0,2.4-0.7,4.3-2,5.8C67.8,41.6,66,42.3,63.7,42.3z M63.9,28.6
		c-1.5,0-2.8,0.5-3.7,1.6c-0.9,1.1-1.4,2.5-1.4,4.4c0,1.8,0.5,3.2,1.4,4.2s2.1,1.5,3.7,1.5c1.6,0,2.8-0.5,3.6-1.5
		c0.8-1,1.3-2.4,1.3-4.3c0-1.9-0.4-3.3-1.3-4.4C66.6,29.1,65.4,28.6,63.9,28.6z"/>
	<path class="st0" d="M73.8,41.4v-2.6c1.3,1,2.8,1.5,4.3,1.5c2.1,0,3.2-0.7,3.2-2.1c0-0.4-0.1-0.7-0.3-1c-0.2-0.3-0.4-0.5-0.7-0.7
		s-0.7-0.4-1.1-0.6c-0.4-0.2-0.9-0.4-1.3-0.5c-0.7-0.3-1.3-0.5-1.8-0.8c-0.5-0.3-0.9-0.6-1.3-0.9s-0.6-0.7-0.8-1.2
		c-0.2-0.4-0.3-0.9-0.3-1.5c0-0.7,0.2-1.3,0.5-1.9s0.8-1,1.3-1.4c0.5-0.4,1.2-0.6,1.8-0.8c0.7-0.2,1.4-0.3,2.1-0.3
		c1.3,0,2.5,0.2,3.5,0.7v2.4c-1.1-0.7-2.4-1.1-3.8-1.1c-0.5,0-0.9,0.1-1.2,0.2s-0.7,0.2-0.9,0.4c-0.3,0.2-0.5,0.4-0.6,0.7
		c-0.1,0.3-0.2,0.5-0.2,0.9c0,0.4,0.1,0.7,0.2,1c0.1,0.3,0.4,0.5,0.6,0.7c0.3,0.2,0.6,0.4,1,0.6c0.4,0.2,0.8,0.3,1.3,0.5
		c0.7,0.3,1.3,0.5,1.8,0.8c0.5,0.3,1,0.6,1.4,0.9c0.4,0.3,0.7,0.7,0.9,1.2c0.2,0.4,0.3,1,0.3,1.6c0,0.7-0.2,1.4-0.5,1.9
		s-0.8,1-1.3,1.4S80.8,41.9,80,42c-0.7,0.2-1.5,0.3-2.3,0.3C76.2,42.3,74.9,42,73.8,41.4z"/>
	<path class="st0" d="M93.4,42.3c-2.2,0-4-0.7-5.3-2.1c-1.3-1.4-2-3.3-2-5.6c0-2.5,0.7-4.5,2.1-5.9c1.4-1.4,3.3-2.1,5.6-2.1
		c2.2,0,4,0.7,5.3,2.1c1.3,1.4,1.9,3.3,1.9,5.8c0,2.4-0.7,4.3-2,5.8C97.5,41.6,95.7,42.3,93.4,42.3z M93.6,28.6
		c-1.5,0-2.8,0.5-3.7,1.6c-0.9,1.1-1.4,2.5-1.4,4.4c0,1.8,0.5,3.2,1.4,4.2s2.1,1.5,3.7,1.5c1.6,0,2.8-0.5,3.6-1.5
		c0.8-1,1.3-2.4,1.3-4.3c0-1.9-0.4-3.3-1.3-4.4C96.3,29.1,95.1,28.6,93.6,28.6z"/>
	<path class="st0" d="M111.3,21.8c-0.5-0.3-1-0.4-1.6-0.4c-1.7,0-2.5,1.1-2.5,3.2v2.3h3.5v2.1h-3.5v13h-2.4v-13h-2.6v-2.1h2.6v-2.4
		c0-1.6,0.5-2.8,1.4-3.7c0.9-0.9,2.1-1.4,3.4-1.4c0.7,0,1.3,0.1,1.8,0.3V21.8z"/>
	<path class="st0" d="M120.4,41.8c-0.6,0.3-1.3,0.5-2.3,0.5c-2.6,0-4-1.5-4-4.4v-8.9h-2.6v-2.1h2.6v-3.7l2.4-0.8v4.5h3.8v2.1h-3.8
		v8.5c0,1,0.2,1.7,0.5,2.2s0.9,0.6,1.7,0.6c0.6,0,1.1-0.2,1.6-0.5V41.8z"/>
	<path class="st0" d="M32.6,63.1v8h-2.5V50h5.8c2.3,0,4,0.5,5.2,1.6c1.2,1.1,1.9,2.6,1.9,4.6s-0.7,3.6-2.1,4.9
		c-1.4,1.3-3.2,1.9-5.6,1.9H32.6z M32.6,52.2v8.7h2.6c1.7,0,3-0.4,3.9-1.2s1.3-1.9,1.3-3.3c0-2.8-1.6-4.2-4.9-4.2H32.6z"/>
	<path class="st0" d="M56.1,71.1h-2.4v-2.4h-0.1c-1,1.8-2.6,2.7-4.6,2.7c-1.5,0-2.7-0.4-3.5-1.2c-0.8-0.8-1.3-1.8-1.3-3.2
		c0-2.8,1.7-4.5,5-4.9l4.5-0.6c0-2.6-1-3.8-3.1-3.8c-1.8,0-3.5,0.6-4.9,1.9v-2.5c1.5-0.9,3.2-1.4,5.1-1.4c3.5,0,5.3,1.9,5.3,5.6
		V71.1z M53.7,63.4L50,63.9c-1.1,0.2-2,0.4-2.5,0.8c-0.6,0.4-0.9,1.1-0.9,2.1c0,0.7,0.3,1.3,0.8,1.8s1.2,0.7,2.1,0.7
		c1.2,0,2.2-0.4,3-1.3c0.8-0.8,1.2-1.9,1.2-3.2V63.4z"/>
	<path class="st0" d="M68.1,58.4c-0.4-0.3-1-0.5-1.8-0.5c-1,0-1.9,0.5-2.6,1.5c-0.7,1-1,2.3-1,4v7.7h-2.4V56h2.4v3.1h0.1
		c0.3-1.1,0.9-1.9,1.6-2.5c0.7-0.6,1.5-0.9,2.4-0.9c0.6,0,1.1,0.1,1.4,0.2V58.4z"/>
	<path class="st0" d="M78.2,70.9c-0.6,0.3-1.3,0.5-2.3,0.5c-2.6,0-4-1.5-4-4.4v-8.9h-2.6V56H72v-3.7l2.4-0.8V56h3.8v2.1h-3.8v8.5
		c0,1,0.2,1.7,0.5,2.2s0.9,0.6,1.7,0.6c0.6,0,1.1-0.2,1.6-0.5V70.9z"/>
	<path class="st0" d="M93.6,71.1h-2.4v-8.6c0-3.2-1.2-4.8-3.5-4.8c-1.2,0-2.2,0.5-3,1.4s-1.2,2.1-1.2,3.4v8.6h-2.4V56h2.4v2.5h0.1
		c1.1-1.9,2.8-2.9,4.9-2.9c1.6,0,2.9,0.5,3.8,1.6s1.3,2.6,1.3,4.6V71.1z"/>
	<path class="st0" d="M109.9,64.1H99.3c0,1.7,0.5,3,1.4,3.9c0.9,0.9,2.1,1.4,3.6,1.4c1.7,0,3.3-0.6,4.7-1.7V70
		c-1.3,1-3.1,1.4-5.3,1.4c-2.1,0-3.8-0.7-5-2.1c-1.2-1.4-1.8-3.3-1.8-5.8c0-2.3,0.7-4.3,2-5.7c1.3-1.5,3-2.2,5-2.2s3.5,0.6,4.6,1.9
		s1.6,3,1.6,5.3V64.1z M107.4,62.1c0-1.4-0.3-2.5-1-3.3c-0.7-0.8-1.6-1.2-2.8-1.2c-1.1,0-2.1,0.4-2.9,1.2c-0.8,0.8-1.3,1.9-1.5,3.2
		H107.4z"/>
	<path class="st0" d="M121.1,58.4c-0.4-0.3-1-0.5-1.8-0.5c-1,0-1.9,0.5-2.6,1.5c-0.7,1-1,2.3-1,4v7.7h-2.4V56h2.4v3.1h0.1
		c0.3-1.1,0.9-1.9,1.6-2.5c0.7-0.6,1.5-0.9,2.4-0.9c0.6,0,1.1,0.1,1.4,0.2V58.4z"/>
</g>
<rect x="134.3" y="0.4" class="st0" width="0.5" height="95.5"/>
<g>
	<path class="st0" d="M158.4,14.9c-0.9,0.5-1.8,0.7-2.9,0.7c-1.2,0-2.2-0.4-3-1.2c-0.8-0.8-1.1-1.8-1.1-3.1c0-1.3,0.4-2.4,1.3-3.3
		s1.9-1.3,3.2-1.3c0.9,0,1.7,0.2,2.3,0.5v1.1c-0.7-0.4-1.5-0.7-2.5-0.7c-1,0-1.7,0.3-2.3,1c-0.6,0.7-0.9,1.5-0.9,2.6
		c0,1.1,0.3,1.9,0.9,2.5c0.6,0.6,1.3,0.9,2.3,0.9c0.7,0,1.2-0.1,1.7-0.4v-2.4h-1.9V11h2.9V14.9z"/>
	<path class="st0" d="M162.6,15.6c-0.9,0-1.6-0.3-2.2-0.9c-0.5-0.6-0.8-1.3-0.8-2.3c0-1,0.3-1.8,0.8-2.4c0.6-0.6,1.3-0.9,2.3-0.9
		c0.9,0,1.6,0.3,2.1,0.8c0.5,0.6,0.8,1.3,0.8,2.3c0,1-0.3,1.7-0.8,2.3C164.3,15.3,163.6,15.6,162.6,15.6z M162.7,10.1
		c-0.6,0-1.1,0.2-1.5,0.6s-0.5,1-0.5,1.8c0,0.7,0.2,1.3,0.6,1.7c0.4,0.4,0.9,0.6,1.5,0.6c0.6,0,1.1-0.2,1.5-0.6
		c0.3-0.4,0.5-1,0.5-1.7c0-0.8-0.2-1.3-0.5-1.8C163.8,10.3,163.3,10.1,162.7,10.1z"/>
	<path class="st0" d="M168.1,15.5h-1v-9h1V15.5z"/>
	<path class="st0" d="M175.1,15.5h-1v-1h0c-0.5,0.8-1.1,1.2-2.1,1.2c-0.8,0-1.4-0.3-1.8-0.8c-0.5-0.5-0.7-1.3-0.7-2.2
		c0-1,0.3-1.8,0.8-2.4c0.5-0.6,1.2-0.9,2-0.9c0.8,0,1.4,0.3,1.8,1h0V6.5h1V15.5z M174.1,12.7v-0.9c0-0.5-0.2-0.9-0.5-1.2
		s-0.7-0.5-1.2-0.5c-0.6,0-1.1,0.2-1.4,0.7c-0.3,0.4-0.5,1-0.5,1.8c0,0.7,0.2,1.3,0.5,1.7c0.3,0.4,0.8,0.6,1.3,0.6
		c0.5,0,1-0.2,1.3-0.6S174.1,13.3,174.1,12.7z"/>
	<path class="st0" d="M186,15.1c-0.6,0.3-1.4,0.5-2.4,0.5c-1.2,0-2.2-0.4-2.9-1.2s-1.1-1.8-1.1-3.1c0-1.4,0.4-2.5,1.2-3.3
		c0.8-0.8,1.9-1.3,3.1-1.3c0.8,0,1.5,0.1,2,0.4v1.1c-0.6-0.3-1.3-0.5-2-0.5c-1,0-1.8,0.3-2.4,1c-0.6,0.7-0.9,1.5-0.9,2.6
		c0,1,0.3,1.9,0.9,2.5c0.6,0.6,1.3,0.9,2.2,0.9c0.9,0,1.6-0.2,2.2-0.6V15.1z"/>
	<path class="st0" d="M188.5,15.5h-1v-9h1V15.5z"/>
	<path class="st0" d="M192.8,15.6c-0.9,0-1.6-0.3-2.2-0.9c-0.5-0.6-0.8-1.3-0.8-2.3c0-1,0.3-1.8,0.8-2.4c0.6-0.6,1.3-0.9,2.3-0.9
		c0.9,0,1.6,0.3,2.1,0.8c0.5,0.6,0.8,1.3,0.8,2.3c0,1-0.3,1.7-0.8,2.3C194.5,15.3,193.8,15.6,192.8,15.6z M192.9,10.1
		c-0.6,0-1.1,0.2-1.5,0.6s-0.5,1-0.5,1.8c0,0.7,0.2,1.3,0.6,1.7c0.4,0.4,0.9,0.6,1.5,0.6c0.6,0,1.1-0.2,1.5-0.6
		c0.3-0.4,0.5-1,0.5-1.7c0-0.8-0.2-1.3-0.5-1.8C194,10.3,193.5,10.1,192.9,10.1z"/>
	<path class="st0" d="M202.2,15.5h-1v-1h0c-0.4,0.7-1,1.1-1.9,1.1c-1.5,0-2.2-0.9-2.2-2.6V9.4h1v3.5c0,1.3,0.5,1.9,1.5,1.9
		c0.5,0,0.9-0.2,1.2-0.5c0.3-0.4,0.5-0.8,0.5-1.4V9.4h1V15.5z"/>
	<path class="st0" d="M209.2,15.5h-1v-1h0c-0.5,0.8-1.2,1.2-2.1,1.2c-0.8,0-1.4-0.3-1.8-0.8c-0.5-0.5-0.7-1.3-0.7-2.2
		c0-1,0.3-1.8,0.8-2.4s1.2-0.9,2-0.9c0.8,0,1.4,0.3,1.8,1h0V6.5h1V15.5z M208.3,12.7v-0.9c0-0.5-0.2-0.9-0.5-1.2s-0.7-0.5-1.2-0.5
		c-0.6,0-1.1,0.2-1.4,0.7c-0.3,0.4-0.5,1-0.5,1.8c0,0.7,0.2,1.3,0.5,1.7c0.3,0.4,0.8,0.6,1.3,0.6c0.5,0,1-0.2,1.3-0.6
		C208.1,13.8,208.3,13.3,208.3,12.7z"/>
	<path class="st0" d="M215.4,12.3v3.2h-1V7h2.3c0.9,0,1.6,0.2,2.1,0.7c0.5,0.4,0.8,1.1,0.8,1.9c0,0.8-0.3,1.5-0.8,2
		c-0.6,0.5-1.3,0.8-2.3,0.8H215.4z M215.4,7.9v3.5h1c0.7,0,1.2-0.2,1.6-0.5c0.4-0.3,0.5-0.8,0.5-1.3c0-1.1-0.7-1.7-2-1.7H215.4z"/>
	<path class="st0" d="M221.9,15.5h-1v-9h1V15.5z"/>
	<path class="st0" d="M228.1,15.5h-1v-1h0c-0.4,0.7-1,1.1-1.9,1.1c-0.6,0-1.1-0.2-1.4-0.5c-0.3-0.3-0.5-0.7-0.5-1.3
		c0-1.1,0.7-1.8,2-2l1.8-0.3c0-1-0.4-1.6-1.3-1.6c-0.7,0-1.4,0.2-2,0.7v-1c0.6-0.4,1.3-0.6,2.1-0.6c1.4,0,2.1,0.8,2.1,2.3V15.5z
		 M227.1,12.4l-1.5,0.2c-0.5,0.1-0.8,0.2-1,0.3c-0.2,0.2-0.3,0.4-0.3,0.9c0,0.3,0.1,0.5,0.3,0.7s0.5,0.3,0.8,0.3
		c0.5,0,0.9-0.2,1.2-0.5c0.3-0.3,0.5-0.8,0.5-1.3V12.4z"/>
	<path class="st0" d="M232.6,15.4c-0.2,0.1-0.5,0.2-0.9,0.2c-1.1,0-1.6-0.6-1.6-1.8v-3.6h-1V9.4h1V7.9l1-0.3v1.8h1.5v0.8h-1.5v3.4
		c0,0.4,0.1,0.7,0.2,0.9s0.4,0.3,0.7,0.3c0.2,0,0.5-0.1,0.6-0.2V15.4z"/>
	<path class="st0" d="M236.8,7.3c-0.2-0.1-0.4-0.2-0.6-0.2c-0.7,0-1,0.4-1,1.3v0.9h1.4v0.8h-1.4v5.3h-1v-5.3h-1V9.4h1v-1
		c0-0.6,0.2-1.1,0.6-1.5c0.4-0.4,0.8-0.6,1.4-0.6c0.3,0,0.5,0,0.7,0.1V7.3z"/>
	<path class="st0" d="M240,15.6c-0.9,0-1.6-0.3-2.2-0.9c-0.5-0.6-0.8-1.3-0.8-2.3c0-1,0.3-1.8,0.8-2.4c0.6-0.6,1.3-0.9,2.3-0.9
		c0.9,0,1.6,0.3,2.1,0.8c0.5,0.6,0.8,1.3,0.8,2.3c0,1-0.3,1.7-0.8,2.3C241.6,15.3,240.9,15.6,240,15.6z M240,10.1
		c-0.6,0-1.1,0.2-1.5,0.6c-0.4,0.4-0.5,1-0.5,1.8c0,0.7,0.2,1.3,0.6,1.7c0.4,0.4,0.9,0.6,1.5,0.6c0.6,0,1.1-0.2,1.5-0.6
		c0.3-0.4,0.5-1,0.5-1.7c0-0.8-0.2-1.3-0.5-1.8C241.2,10.3,240.7,10.1,240,10.1z"/>
	<path class="st0" d="M247.6,10.4c-0.2-0.1-0.4-0.2-0.7-0.2c-0.4,0-0.8,0.2-1,0.6c-0.3,0.4-0.4,0.9-0.4,1.6v3.1h-1V9.4h1v1.3h0
		c0.1-0.4,0.4-0.8,0.6-1c0.3-0.2,0.6-0.4,1-0.4c0.3,0,0.4,0,0.6,0.1V10.4z"/>
	<path class="st0" d="M257.1,15.5h-1V12c0-0.7-0.1-1.2-0.3-1.5s-0.6-0.5-1-0.5c-0.4,0-0.8,0.2-1.1,0.6c-0.3,0.4-0.4,0.8-0.4,1.4v3.5
		h-1v-3.6c0-1.2-0.5-1.8-1.4-1.8c-0.4,0-0.8,0.2-1.1,0.5s-0.4,0.8-0.4,1.4v3.5h-1V9.4h1v1h0c0.4-0.7,1.1-1.1,1.9-1.1
		c0.4,0,0.8,0.1,1.1,0.3c0.3,0.2,0.5,0.5,0.6,0.9c0.5-0.8,1.1-1.3,2-1.3c1.3,0,2,0.8,2,2.5V15.5z"/>
	<path class="st0" d="M158.4,32.5c-0.9,0.5-1.8,0.7-2.9,0.7c-1.2,0-2.2-0.4-3-1.2c-0.8-0.8-1.1-1.8-1.1-3.1c0-1.3,0.4-2.4,1.3-3.3
		s1.9-1.3,3.2-1.3c0.9,0,1.7,0.2,2.3,0.5V26c-0.7-0.4-1.5-0.7-2.5-0.7c-1,0-1.7,0.3-2.3,1c-0.6,0.7-0.9,1.5-0.9,2.6
		c0,1.1,0.3,1.9,0.9,2.5c0.6,0.6,1.3,0.9,2.3,0.9c0.7,0,1.2-0.1,1.7-0.4v-2.4h-1.9v-0.9h2.9V32.5z"/>
	<path class="st0" d="M162.6,33.3c-0.9,0-1.6-0.3-2.2-0.9c-0.5-0.6-0.8-1.3-0.8-2.3c0-1,0.3-1.8,0.8-2.4c0.6-0.6,1.3-0.9,2.3-0.9
		c0.9,0,1.6,0.3,2.1,0.8c0.5,0.6,0.8,1.3,0.8,2.3c0,1-0.3,1.7-0.8,2.3C164.3,33,163.6,33.3,162.6,33.3z M162.7,27.7
		c-0.6,0-1.1,0.2-1.5,0.6s-0.5,1-0.5,1.8c0,0.7,0.2,1.3,0.6,1.7c0.4,0.4,0.9,0.6,1.5,0.6c0.6,0,1.1-0.2,1.5-0.6
		c0.3-0.4,0.5-1,0.5-1.7c0-0.8-0.2-1.3-0.5-1.8C163.8,27.9,163.3,27.7,162.7,27.7z"/>
	<path class="st0" d="M168.1,33.1h-1v-9h1V33.1z"/>
	<path class="st0" d="M175.1,33.1h-1v-1h0c-0.5,0.8-1.1,1.2-2.1,1.2c-0.8,0-1.4-0.3-1.8-0.8c-0.5-0.5-0.7-1.3-0.7-2.2
		c0-1,0.3-1.8,0.8-2.4c0.5-0.6,1.2-0.9,2-0.9c0.8,0,1.4,0.3,1.8,1h0v-3.8h1V33.1z M174.1,30.4v-0.9c0-0.5-0.2-0.9-0.5-1.2
		s-0.7-0.5-1.2-0.5c-0.6,0-1.1,0.2-1.4,0.7c-0.3,0.4-0.5,1-0.5,1.8c0,0.7,0.2,1.3,0.5,1.7c0.3,0.4,0.8,0.6,1.3,0.6
		c0.5,0,1-0.2,1.3-0.6S174.1,31,174.1,30.4z"/>
	<path class="st0" d="M186,32.8c-0.6,0.3-1.4,0.5-2.4,0.5c-1.2,0-2.2-0.4-2.9-1.2s-1.1-1.8-1.1-3.1c0-1.4,0.4-2.5,1.2-3.3
		c0.8-0.8,1.9-1.3,3.1-1.3c0.8,0,1.5,0.1,2,0.4v1.1c-0.6-0.3-1.3-0.5-2-0.5c-1,0-1.8,0.3-2.4,1c-0.6,0.7-0.9,1.5-0.9,2.6
		c0,1,0.3,1.9,0.9,2.5c0.6,0.6,1.3,0.9,2.2,0.9c0.9,0,1.6-0.2,2.2-0.6V32.8z"/>
	<path class="st0" d="M188.5,33.1h-1v-9h1V33.1z"/>
	<path class="st0" d="M192.8,33.3c-0.9,0-1.6-0.3-2.2-0.9c-0.5-0.6-0.8-1.3-0.8-2.3c0-1,0.3-1.8,0.8-2.4c0.6-0.6,1.3-0.9,2.3-0.9
		c0.9,0,1.6,0.3,2.1,0.8c0.5,0.6,0.8,1.3,0.8,2.3c0,1-0.3,1.7-0.8,2.3C194.5,33,193.8,33.3,192.8,33.3z M192.9,27.7
		c-0.6,0-1.1,0.2-1.5,0.6s-0.5,1-0.5,1.8c0,0.7,0.2,1.3,0.6,1.7c0.4,0.4,0.9,0.6,1.5,0.6c0.6,0,1.1-0.2,1.5-0.6
		c0.3-0.4,0.5-1,0.5-1.7c0-0.8-0.2-1.3-0.5-1.8C194,27.9,193.5,27.7,192.9,27.7z"/>
	<path class="st0" d="M202.2,33.1h-1v-1h0c-0.4,0.7-1,1.1-1.9,1.1c-1.5,0-2.2-0.9-2.2-2.6V27h1v3.5c0,1.3,0.5,1.9,1.5,1.9
		c0.5,0,0.9-0.2,1.2-0.5c0.3-0.4,0.5-0.8,0.5-1.4V27h1V33.1z"/>
	<path class="st0" d="M209.2,33.1h-1v-1h0c-0.5,0.8-1.2,1.2-2.1,1.2c-0.8,0-1.4-0.3-1.8-0.8c-0.5-0.5-0.7-1.3-0.7-2.2
		c0-1,0.3-1.8,0.8-2.4s1.2-0.9,2-0.9c0.8,0,1.4,0.3,1.8,1h0v-3.8h1V33.1z M208.3,30.4v-0.9c0-0.5-0.2-0.9-0.5-1.2s-0.7-0.5-1.2-0.5
		c-0.6,0-1.1,0.2-1.4,0.7c-0.3,0.4-0.5,1-0.5,1.8c0,0.7,0.2,1.3,0.5,1.7c0.3,0.4,0.8,0.6,1.3,0.6c0.5,0,1-0.2,1.3-0.6
		C208.1,31.5,208.3,31,208.3,30.4z"/>
	<path class="st0" d="M215.4,29.9v3.2h-1v-8.5h2.3c0.9,0,1.6,0.2,2.1,0.7c0.5,0.4,0.8,1.1,0.8,1.9c0,0.8-0.3,1.5-0.8,2
		c-0.6,0.5-1.3,0.8-2.3,0.8H215.4z M215.4,25.5V29h1c0.7,0,1.2-0.2,1.6-0.5c0.4-0.3,0.5-0.8,0.5-1.3c0-1.1-0.7-1.7-2-1.7H215.4z"/>
	<path class="st0" d="M224.1,28c-0.2-0.1-0.4-0.2-0.7-0.2c-0.4,0-0.8,0.2-1,0.6c-0.3,0.4-0.4,0.9-0.4,1.6v3.1h-1V27h1v1.3h0
		c0.1-0.4,0.4-0.8,0.6-1c0.3-0.2,0.6-0.4,1-0.4c0.3,0,0.4,0,0.6,0.1V28z"/>
	<path class="st0" d="M227.4,33.3c-0.9,0-1.6-0.3-2.2-0.9c-0.5-0.6-0.8-1.3-0.8-2.3c0-1,0.3-1.8,0.8-2.4c0.6-0.6,1.3-0.9,2.3-0.9
		c0.9,0,1.6,0.3,2.1,0.8c0.5,0.6,0.8,1.3,0.8,2.3c0,1-0.3,1.7-0.8,2.3C229.1,33,228.3,33.3,227.4,33.3z M227.5,27.7
		c-0.6,0-1.1,0.2-1.5,0.6c-0.4,0.4-0.5,1-0.5,1.8c0,0.7,0.2,1.3,0.6,1.7c0.4,0.4,0.9,0.6,1.5,0.6c0.6,0,1.1-0.2,1.5-0.6
		c0.3-0.4,0.5-1,0.5-1.7c0-0.8-0.2-1.3-0.5-1.8C228.6,27.9,228.1,27.7,227.5,27.7z"/>
	<path class="st0" d="M237,33.1h-1v-1h0c-0.5,0.8-1.2,1.2-2.1,1.2c-0.8,0-1.4-0.3-1.8-0.8c-0.5-0.5-0.7-1.3-0.7-2.2
		c0-1,0.3-1.8,0.8-2.4s1.2-0.9,2-0.9c0.8,0,1.4,0.3,1.8,1h0v-3.8h1V33.1z M236.1,30.4v-0.9c0-0.5-0.2-0.9-0.5-1.2s-0.7-0.5-1.2-0.5
		c-0.6,0-1.1,0.2-1.4,0.7c-0.3,0.4-0.5,1-0.5,1.8c0,0.7,0.2,1.3,0.5,1.7c0.3,0.4,0.8,0.6,1.3,0.6c0.5,0,1-0.2,1.3-0.6
		C235.9,31.5,236.1,31,236.1,30.4z"/>
	<path class="st0" d="M243.8,33.1h-1v-1h0c-0.4,0.7-1,1.1-1.9,1.1c-1.5,0-2.2-0.9-2.2-2.6V27h1v3.5c0,1.3,0.5,1.9,1.5,1.9
		c0.5,0,0.9-0.2,1.2-0.5c0.3-0.4,0.5-0.8,0.5-1.4V27h1V33.1z"/>
	<path class="st0" d="M249.8,32.8c-0.5,0.3-1,0.4-1.7,0.4c-0.9,0-1.6-0.3-2.1-0.8c-0.5-0.6-0.8-1.3-0.8-2.2c0-1,0.3-1.8,0.9-2.4
		c0.6-0.6,1.3-0.9,2.3-0.9c0.5,0,1,0.1,1.4,0.3v1c-0.5-0.3-0.9-0.5-1.5-0.5c-0.6,0-1.1,0.2-1.5,0.7c-0.4,0.4-0.6,1-0.6,1.8
		c0,0.7,0.2,1.3,0.6,1.7c0.4,0.4,0.9,0.6,1.5,0.6c0.5,0,1-0.2,1.5-0.5V32.8z"/>
	<path class="st0" d="M253.9,33.1c-0.2,0.1-0.5,0.2-0.9,0.2c-1.1,0-1.6-0.6-1.6-1.8v-3.6h-1V27h1v-1.5l1-0.3V27h1.5v0.8h-1.5v3.4
		c0,0.4,0.1,0.7,0.2,0.9s0.4,0.3,0.7,0.3c0.2,0,0.5-0.1,0.6-0.2V33.1z"/>
	<path class="st0" d="M255.6,25.5c-0.2,0-0.3-0.1-0.4-0.2S255,25,255,24.9c0-0.2,0.1-0.3,0.2-0.5c0.1-0.1,0.3-0.2,0.4-0.2
		c0.2,0,0.3,0.1,0.5,0.2c0.1,0.1,0.2,0.3,0.2,0.5c0,0.2-0.1,0.3-0.2,0.4C255.9,25.4,255.8,25.5,255.6,25.5z M256.1,33.1h-1V27h1
		V33.1z"/>
	<path class="st0" d="M262.7,27l-2.4,6.1h-1L257,27h1.1l1.5,4.4c0.1,0.3,0.2,0.6,0.2,0.9h0c0-0.3,0.1-0.6,0.2-0.8l1.6-4.4H262.7z"/>
	<path class="st0" d="M264.1,25.5c-0.2,0-0.3-0.1-0.4-0.2s-0.2-0.3-0.2-0.5c0-0.2,0.1-0.3,0.2-0.5c0.1-0.1,0.3-0.2,0.4-0.2
		c0.2,0,0.3,0.1,0.5,0.2c0.1,0.1,0.2,0.3,0.2,0.5c0,0.2-0.1,0.3-0.2,0.4C264.4,25.4,264.3,25.5,264.1,25.5z M264.6,33.1h-1V27h1
		V33.1z"/>
	<path class="st0" d="M269.2,33.1c-0.2,0.1-0.5,0.2-0.9,0.2c-1.1,0-1.6-0.6-1.6-1.8v-3.6h-1V27h1v-1.5l1-0.3V27h1.5v0.8h-1.5v3.4
		c0,0.4,0.1,0.7,0.2,0.9s0.4,0.3,0.7,0.3c0.2,0,0.5-0.1,0.6-0.2V33.1z"/>
	<path class="st0" d="M275.2,27l-2.8,7.1c-0.5,1.3-1.2,1.9-2.1,1.9c-0.3,0-0.5,0-0.6-0.1V35c0.2,0.1,0.4,0.1,0.6,0.1
		c0.5,0,0.9-0.3,1.1-0.9l0.5-1.2l-2.4-6.1h1.1l1.6,4.7c0,0.1,0.1,0.2,0.1,0.5h0c0-0.1,0.1-0.2,0.1-0.5l1.7-4.7H275.2z"/>
	<path class="st0" d="M158.4,50.2c-0.9,0.5-1.8,0.7-2.9,0.7c-1.2,0-2.2-0.4-3-1.2c-0.8-0.8-1.1-1.8-1.1-3.1c0-1.3,0.4-2.4,1.3-3.3
		s1.9-1.3,3.2-1.3c0.9,0,1.7,0.2,2.3,0.5v1.1c-0.7-0.4-1.5-0.7-2.5-0.7c-1,0-1.7,0.3-2.3,1c-0.6,0.7-0.9,1.5-0.9,2.6
		c0,1.1,0.3,1.9,0.9,2.5c0.6,0.6,1.3,0.9,2.3,0.9c0.7,0,1.2-0.1,1.7-0.4v-2.4h-1.9v-0.9h2.9V50.2z"/>
	<path class="st0" d="M162.6,50.9c-0.9,0-1.6-0.3-2.2-0.9c-0.5-0.6-0.8-1.3-0.8-2.3c0-1,0.3-1.8,0.8-2.4c0.6-0.6,1.3-0.9,2.3-0.9
		c0.9,0,1.6,0.3,2.1,0.8c0.5,0.6,0.8,1.3,0.8,2.3c0,1-0.3,1.7-0.8,2.3C164.3,50.6,163.6,50.9,162.6,50.9z M162.7,45.4
		c-0.6,0-1.1,0.2-1.5,0.6s-0.5,1-0.5,1.8c0,0.7,0.2,1.3,0.6,1.7c0.4,0.4,0.9,0.6,1.5,0.6c0.6,0,1.1-0.2,1.5-0.6
		c0.3-0.4,0.5-1,0.5-1.7c0-0.8-0.2-1.3-0.5-1.8C163.8,45.6,163.3,45.4,162.7,45.4z"/>
	<path class="st0" d="M168.1,50.8h-1v-9h1V50.8z"/>
	<path class="st0" d="M175.1,50.8h-1v-1h0c-0.5,0.8-1.1,1.2-2.1,1.2c-0.8,0-1.4-0.3-1.8-0.8c-0.5-0.5-0.7-1.3-0.7-2.2
		c0-1,0.3-1.8,0.8-2.4c0.5-0.6,1.2-0.9,2-0.9c0.8,0,1.4,0.3,1.8,1h0v-3.8h1V50.8z M174.1,48v-0.9c0-0.5-0.2-0.9-0.5-1.2
		s-0.7-0.5-1.2-0.5c-0.6,0-1.1,0.2-1.4,0.7c-0.3,0.4-0.5,1-0.5,1.8c0,0.7,0.2,1.3,0.5,1.7c0.3,0.4,0.8,0.6,1.3,0.6
		c0.5,0,1-0.2,1.3-0.6S174.1,48.6,174.1,48z"/>
	<path class="st0" d="M179.8,50.4v-1.2c0.1,0.1,0.3,0.2,0.5,0.3c0.2,0.1,0.4,0.2,0.6,0.2c0.2,0.1,0.4,0.1,0.6,0.2
		c0.2,0,0.4,0.1,0.6,0.1c0.6,0,1.1-0.1,1.4-0.3c0.3-0.2,0.5-0.6,0.5-1c0-0.2-0.1-0.4-0.2-0.6c-0.1-0.2-0.2-0.3-0.4-0.5
		s-0.4-0.3-0.6-0.4c-0.2-0.1-0.5-0.3-0.8-0.4c-0.3-0.2-0.6-0.3-0.8-0.5c-0.3-0.2-0.5-0.3-0.7-0.5s-0.3-0.4-0.4-0.6
		c-0.1-0.2-0.2-0.5-0.2-0.8c0-0.4,0.1-0.7,0.3-1c0.2-0.3,0.4-0.5,0.7-0.7c0.3-0.2,0.6-0.3,0.9-0.4c0.4-0.1,0.7-0.1,1.1-0.1
		c0.8,0,1.5,0.1,1.8,0.3v1.1c-0.5-0.3-1.1-0.5-1.9-0.5c-0.2,0-0.4,0-0.7,0.1c-0.2,0-0.4,0.1-0.6,0.2c-0.2,0.1-0.3,0.2-0.4,0.4
		s-0.2,0.4-0.2,0.6c0,0.2,0,0.4,0.1,0.6c0.1,0.2,0.2,0.3,0.4,0.4c0.2,0.1,0.4,0.3,0.6,0.4c0.2,0.1,0.5,0.3,0.8,0.4
		c0.3,0.2,0.6,0.3,0.9,0.5c0.3,0.2,0.5,0.4,0.7,0.6c0.2,0.2,0.4,0.4,0.5,0.7c0.1,0.2,0.2,0.5,0.2,0.8c0,0.4-0.1,0.8-0.2,1.1
		s-0.4,0.5-0.7,0.7c-0.3,0.2-0.6,0.3-1,0.4c-0.4,0.1-0.7,0.1-1.2,0.1c-0.1,0-0.3,0-0.5,0c-0.2,0-0.4-0.1-0.6-0.1
		c-0.2,0-0.4-0.1-0.6-0.2C180.1,50.6,179.9,50.5,179.8,50.4z"/>
	<path class="st0" d="M195.1,50.8h-1v-3.5c0-0.7-0.1-1.2-0.3-1.5c-0.2-0.3-0.6-0.5-1-0.5c-0.4,0-0.8,0.2-1.1,0.6
		c-0.3,0.4-0.4,0.8-0.4,1.4v3.5h-1v-3.6c0-1.2-0.5-1.8-1.4-1.8c-0.4,0-0.8,0.2-1.1,0.5c-0.3,0.4-0.4,0.8-0.4,1.4v3.5h-1v-6.1h1v1h0
		c0.4-0.7,1.1-1.1,1.9-1.1c0.4,0,0.8,0.1,1.1,0.3c0.3,0.2,0.5,0.5,0.6,0.9c0.5-0.8,1.1-1.3,2-1.3c1.3,0,2,0.8,2,2.5V50.8z"/>
	<path class="st0" d="M201.1,50.8h-1v-1h0c-0.4,0.7-1,1.1-1.9,1.1c-0.6,0-1.1-0.2-1.4-0.5c-0.3-0.3-0.5-0.7-0.5-1.3
		c0-1.1,0.7-1.8,2-2l1.8-0.3c0-1-0.4-1.6-1.3-1.6c-0.7,0-1.4,0.2-2,0.7v-1c0.6-0.4,1.3-0.6,2.1-0.6c1.4,0,2.1,0.8,2.1,2.3V50.8z
		 M200.2,47.7l-1.5,0.2c-0.5,0.1-0.8,0.2-1,0.3c-0.2,0.2-0.3,0.4-0.3,0.9c0,0.3,0.1,0.5,0.3,0.7s0.5,0.3,0.8,0.3
		c0.5,0,0.9-0.2,1.2-0.5c0.3-0.3,0.5-0.8,0.5-1.3V47.7z"/>
	<path class="st0" d="M203.8,50.8h-1v-9h1V50.8z"/>
	<path class="st0" d="M206.6,50.8h-1v-9h1V50.8z"/>
	<path class="st0" d="M216,50.8h-1v-1h0c-0.4,0.7-1,1.1-1.9,1.1c-0.6,0-1.1-0.2-1.4-0.5c-0.3-0.3-0.5-0.7-0.5-1.3c0-1.1,0.7-1.8,2-2
		l1.8-0.3c0-1-0.4-1.6-1.3-1.6c-0.7,0-1.4,0.2-2,0.7v-1c0.6-0.4,1.3-0.6,2.1-0.6c1.4,0,2.1,0.8,2.1,2.3V50.8z M215,47.7l-1.5,0.2
		c-0.5,0.1-0.8,0.2-1,0.3c-0.2,0.2-0.3,0.4-0.3,0.9c0,0.3,0.1,0.5,0.3,0.7s0.5,0.3,0.8,0.3c0.5,0,0.9-0.2,1.2-0.5
		c0.3-0.3,0.5-0.8,0.5-1.3V47.7z"/>
	<path class="st0" d="M222.7,50.8h-1v-3.5c0-1.3-0.5-1.9-1.4-1.9c-0.5,0-0.9,0.2-1.2,0.6s-0.5,0.8-0.5,1.4v3.5h-1v-6.1h1v1h0
		c0.5-0.8,1.1-1.2,2-1.2c0.7,0,1.2,0.2,1.5,0.6c0.4,0.4,0.5,1.1,0.5,1.9V50.8z"/>
	<path class="st0" d="M229.6,50.8h-1v-1h0c-0.5,0.8-1.2,1.2-2.1,1.2c-0.8,0-1.4-0.3-1.8-0.8c-0.5-0.5-0.7-1.3-0.7-2.2
		c0-1,0.3-1.8,0.8-2.4s1.2-0.9,2-0.9c0.8,0,1.4,0.3,1.8,1h0v-3.8h1V50.8z M228.6,48v-0.9c0-0.5-0.2-0.9-0.5-1.2s-0.7-0.5-1.2-0.5
		c-0.6,0-1.1,0.2-1.4,0.7c-0.3,0.4-0.5,1-0.5,1.8c0,0.7,0.2,1.3,0.5,1.7c0.3,0.4,0.8,0.6,1.3,0.6c0.5,0,1-0.2,1.3-0.6
		C228.5,49.1,228.6,48.6,228.6,48z"/>
	<path class="st0" d="M243.5,50.8h-1V45c0-0.5,0-1,0.1-1.7h0c-0.1,0.4-0.2,0.7-0.3,0.8l-2.9,6.6h-0.5l-2.9-6.5
		c-0.1-0.2-0.2-0.5-0.3-0.9h0c0,0.3,0,0.9,0,1.7v5.7h-1v-8.5h1.3l2.6,5.9c0.2,0.5,0.3,0.8,0.4,1h0c0.2-0.5,0.3-0.8,0.4-1l2.7-5.9
		h1.2V50.8z"/>
	<path class="st0" d="M245.9,43.1c-0.2,0-0.3-0.1-0.4-0.2s-0.2-0.3-0.2-0.5c0-0.2,0.1-0.3,0.2-0.5c0.1-0.1,0.3-0.2,0.4-0.2
		c0.2,0,0.3,0.1,0.5,0.2c0.1,0.1,0.2,0.3,0.2,0.5c0,0.2-0.1,0.3-0.2,0.4C246.3,43.1,246.1,43.1,245.9,43.1z M246.4,50.8h-1v-6.1h1
		V50.8z"/>
	<path class="st0" d="M253.4,50.8h-1v-1h0c-0.5,0.8-1.2,1.2-2.1,1.2c-0.8,0-1.4-0.3-1.8-0.8c-0.5-0.5-0.7-1.3-0.7-2.2
		c0-1,0.3-1.8,0.8-2.4s1.2-0.9,2-0.9c0.8,0,1.4,0.3,1.8,1h0v-3.8h1V50.8z M252.5,48v-0.9c0-0.5-0.2-0.9-0.5-1.2s-0.7-0.5-1.2-0.5
		c-0.6,0-1.1,0.2-1.4,0.7c-0.3,0.4-0.5,1-0.5,1.8c0,0.7,0.2,1.3,0.5,1.7c0.3,0.4,0.8,0.6,1.3,0.6c0.5,0,1-0.2,1.3-0.6
		C252.3,49.1,252.5,48.6,252.5,48z"/>
	<path class="st0" d="M263.9,50.8h-1v-3.5c0-0.7-0.1-1.2-0.3-1.5s-0.6-0.5-1-0.5c-0.4,0-0.8,0.2-1.1,0.6c-0.3,0.4-0.4,0.8-0.4,1.4
		v3.5h-1v-3.6c0-1.2-0.5-1.8-1.4-1.8c-0.4,0-0.8,0.2-1.1,0.5s-0.4,0.8-0.4,1.4v3.5h-1v-6.1h1v1h0c0.4-0.7,1.1-1.1,1.9-1.1
		c0.4,0,0.8,0.1,1.1,0.3c0.3,0.2,0.5,0.5,0.6,0.9c0.5-0.8,1.1-1.3,2-1.3c1.3,0,2,0.8,2,2.5V50.8z"/>
	<path class="st0" d="M270,50.8h-1v-1h0c-0.4,0.7-1,1.1-1.9,1.1c-0.6,0-1.1-0.2-1.4-0.5c-0.3-0.3-0.5-0.7-0.5-1.3c0-1.1,0.7-1.8,2-2
		l1.8-0.3c0-1-0.4-1.6-1.3-1.6c-0.7,0-1.4,0.2-2,0.7v-1c0.6-0.4,1.3-0.6,2.1-0.6c1.4,0,2.1,0.8,2.1,2.3V50.8z M269,47.7l-1.5,0.2
		c-0.5,0.1-0.8,0.2-1,0.3c-0.2,0.2-0.3,0.4-0.3,0.9c0,0.3,0.1,0.5,0.3,0.7s0.5,0.3,0.8,0.3c0.5,0,0.9-0.2,1.2-0.5
		c0.3-0.3,0.5-0.8,0.5-1.3V47.7z"/>
	<path class="st0" d="M274.8,45.7c-0.2-0.1-0.4-0.2-0.7-0.2c-0.4,0-0.8,0.2-1,0.6c-0.3,0.4-0.4,0.9-0.4,1.6v3.1h-1v-6.1h1v1.3h0
		c0.1-0.4,0.4-0.8,0.6-1c0.3-0.2,0.6-0.4,1-0.4c0.3,0,0.4,0,0.6,0.1V45.7z"/>
	<path class="st0" d="M280.8,50.8h-1.4l-2.7-2.9h0v2.9h-1v-9h1v5.7h0l2.6-2.8h1.3l-2.8,2.9L280.8,50.8z"/>
	<path class="st0" d="M286.3,48H282c0,0.7,0.2,1.2,0.5,1.6c0.3,0.4,0.8,0.6,1.4,0.6c0.7,0,1.3-0.2,1.9-0.7v0.9
		c-0.5,0.4-1.2,0.6-2.1,0.6c-0.9,0-1.5-0.3-2-0.8c-0.5-0.6-0.7-1.3-0.7-2.3c0-0.9,0.3-1.7,0.8-2.3c0.5-0.6,1.2-0.9,2-0.9
		c0.8,0,1.4,0.3,1.9,0.8c0.4,0.5,0.7,1.2,0.7,2.1V48z M285.3,47.1c0-0.6-0.1-1-0.4-1.3c-0.3-0.3-0.6-0.5-1.1-0.5
		c-0.5,0-0.9,0.2-1.2,0.5s-0.5,0.8-0.6,1.3H285.3z"/>
	<path class="st0" d="M290.5,50.7c-0.2,0.1-0.5,0.2-0.9,0.2c-1.1,0-1.6-0.6-1.6-1.8v-3.6h-1v-0.8h1v-1.5l1-0.3v1.8h1.5v0.8h-1.5v3.4
		c0,0.4,0.1,0.7,0.2,0.9s0.4,0.3,0.7,0.3c0.2,0,0.5-0.1,0.6-0.2V50.7z"/>
	<path class="st0" d="M300.7,50.4c-0.6,0.3-1.4,0.5-2.4,0.5c-1.2,0-2.2-0.4-2.9-1.2s-1.1-1.8-1.1-3.1c0-1.4,0.4-2.5,1.2-3.3
		c0.8-0.8,1.9-1.3,3.1-1.3c0.8,0,1.5,0.1,2,0.4v1.1c-0.6-0.3-1.3-0.5-2-0.5c-1,0-1.8,0.3-2.4,1c-0.6,0.7-0.9,1.5-0.9,2.6
		c0,1,0.3,1.9,0.9,2.5c0.6,0.6,1.3,0.9,2.2,0.9c0.9,0,1.6-0.2,2.2-0.6V50.4z"/>
	<path class="st0" d="M303.2,50.8h-1v-9h1V50.8z"/>
	<path class="st0" d="M307.5,50.9c-0.9,0-1.6-0.3-2.2-0.9c-0.5-0.6-0.8-1.3-0.8-2.3c0-1,0.3-1.8,0.8-2.4c0.6-0.6,1.3-0.9,2.3-0.9
		c0.9,0,1.6,0.3,2.1,0.8c0.5,0.6,0.8,1.3,0.8,2.3c0,1-0.3,1.7-0.8,2.3C309.2,50.6,308.5,50.9,307.5,50.9z M307.6,45.4
		c-0.6,0-1.1,0.2-1.5,0.6c-0.4,0.4-0.5,1-0.5,1.8c0,0.7,0.2,1.3,0.6,1.7c0.4,0.4,0.9,0.6,1.5,0.6c0.6,0,1.1-0.2,1.5-0.6
		c0.3-0.4,0.5-1,0.5-1.7c0-0.8-0.2-1.3-0.5-1.8C308.7,45.6,308.2,45.4,307.6,45.4z"/>
	<path class="st0" d="M316.9,50.8h-1v-1h0c-0.4,0.7-1,1.1-1.9,1.1c-1.5,0-2.2-0.9-2.2-2.6v-3.6h1v3.5c0,1.3,0.5,1.9,1.5,1.9
		c0.5,0,0.9-0.2,1.2-0.5c0.3-0.4,0.5-0.8,0.5-1.4v-3.5h1V50.8z"/>
	<path class="st0" d="M323.9,50.8h-1v-1h0c-0.5,0.8-1.2,1.2-2.1,1.2c-0.8,0-1.4-0.3-1.8-0.8c-0.5-0.5-0.7-1.3-0.7-2.2
		c0-1,0.3-1.8,0.8-2.4s1.2-0.9,2-0.9c0.8,0,1.4,0.3,1.8,1h0v-3.8h1V50.8z M323,48v-0.9c0-0.5-0.2-0.9-0.5-1.2s-0.7-0.5-1.2-0.5
		c-0.6,0-1.1,0.2-1.4,0.7c-0.3,0.4-0.5,1-0.5,1.8c0,0.7,0.2,1.3,0.5,1.7c0.3,0.4,0.8,0.6,1.3,0.6c0.5,0,1-0.2,1.3-0.6
		C322.8,49.1,323,48.6,323,48z"/>
	<path class="st0" d="M328.7,50.4v-1.2c0.1,0.1,0.3,0.2,0.5,0.3c0.2,0.1,0.4,0.2,0.6,0.2c0.2,0.1,0.4,0.1,0.6,0.2s0.4,0.1,0.6,0.1
		c0.6,0,1.1-0.1,1.4-0.3c0.3-0.2,0.5-0.6,0.5-1c0-0.2-0.1-0.4-0.2-0.6c-0.1-0.2-0.2-0.3-0.4-0.5s-0.4-0.3-0.6-0.4
		c-0.2-0.1-0.5-0.3-0.8-0.4c-0.3-0.2-0.6-0.3-0.8-0.5c-0.3-0.2-0.5-0.3-0.7-0.5c-0.2-0.2-0.3-0.4-0.4-0.6c-0.1-0.2-0.2-0.5-0.2-0.8
		c0-0.4,0.1-0.7,0.3-1c0.2-0.3,0.4-0.5,0.7-0.7s0.6-0.3,0.9-0.4c0.4-0.1,0.7-0.1,1.1-0.1c0.8,0,1.5,0.1,1.8,0.3v1.1
		c-0.5-0.3-1.1-0.5-1.9-0.5c-0.2,0-0.4,0-0.7,0.1c-0.2,0-0.4,0.1-0.6,0.2c-0.2,0.1-0.3,0.2-0.4,0.4c-0.1,0.2-0.2,0.4-0.2,0.6
		c0,0.2,0,0.4,0.1,0.6s0.2,0.3,0.4,0.4c0.2,0.1,0.4,0.3,0.6,0.4c0.2,0.1,0.5,0.3,0.8,0.4c0.3,0.2,0.6,0.3,0.9,0.5
		c0.3,0.2,0.5,0.4,0.7,0.6s0.4,0.4,0.5,0.7c0.1,0.2,0.2,0.5,0.2,0.8c0,0.4-0.1,0.8-0.2,1.1c-0.2,0.3-0.4,0.5-0.7,0.7
		c-0.3,0.2-0.6,0.3-1,0.4c-0.4,0.1-0.7,0.1-1.2,0.1c-0.1,0-0.3,0-0.5,0c-0.2,0-0.4-0.1-0.6-0.1c-0.2,0-0.4-0.1-0.6-0.2
		S328.8,50.5,328.7,50.4z"/>
	<path class="st0" d="M337.8,50.9c-0.9,0-1.6-0.3-2.2-0.9c-0.5-0.6-0.8-1.3-0.8-2.3c0-1,0.3-1.8,0.8-2.4c0.6-0.6,1.3-0.9,2.3-0.9
		c0.9,0,1.6,0.3,2.1,0.8c0.5,0.6,0.8,1.3,0.8,2.3c0,1-0.3,1.7-0.8,2.3C339.5,50.6,338.8,50.9,337.8,50.9z M337.9,45.4
		c-0.6,0-1.1,0.2-1.5,0.6c-0.4,0.4-0.5,1-0.5,1.8c0,0.7,0.2,1.3,0.6,1.7c0.4,0.4,0.9,0.6,1.5,0.6c0.6,0,1.1-0.2,1.5-0.6
		c0.3-0.4,0.5-1,0.5-1.7c0-0.8-0.2-1.3-0.5-1.8C339,45.6,338.5,45.4,337.9,45.4z"/>
	<path class="st0" d="M343.2,50.8h-1v-9h1V50.8z"/>
	<path class="st0" d="M350,50.8h-1v-1h0c-0.4,0.7-1,1.1-1.9,1.1c-1.5,0-2.2-0.9-2.2-2.6v-3.6h1v3.5c0,1.3,0.5,1.9,1.5,1.9
		c0.5,0,0.9-0.2,1.2-0.5c0.3-0.4,0.5-0.8,0.5-1.4v-3.5h1V50.8z"/>
	<path class="st0" d="M354.6,50.7c-0.2,0.1-0.5,0.2-0.9,0.2c-1.1,0-1.6-0.6-1.6-1.8v-3.6h-1v-0.8h1v-1.5l1-0.3v1.8h1.5v0.8h-1.5v3.4
		c0,0.4,0.1,0.7,0.2,0.9s0.4,0.3,0.7,0.3c0.2,0,0.5-0.1,0.6-0.2V50.7z"/>
	<path class="st0" d="M356.3,43.1c-0.2,0-0.3-0.1-0.4-0.2s-0.2-0.3-0.2-0.5c0-0.2,0.1-0.3,0.2-0.5c0.1-0.1,0.3-0.2,0.4-0.2
		c0.2,0,0.3,0.1,0.5,0.2c0.1,0.1,0.2,0.3,0.2,0.5c0,0.2-0.1,0.3-0.2,0.4C356.6,43.1,356.5,43.1,356.3,43.1z M356.8,50.8h-1v-6.1h1
		V50.8z"/>
	<path class="st0" d="M361.2,50.9c-0.9,0-1.6-0.3-2.2-0.9c-0.5-0.6-0.8-1.3-0.8-2.3c0-1,0.3-1.8,0.8-2.4c0.6-0.6,1.3-0.9,2.3-0.9
		c0.9,0,1.6,0.3,2.1,0.8c0.5,0.6,0.8,1.3,0.8,2.3c0,1-0.3,1.7-0.8,2.3C362.8,50.6,362.1,50.9,361.2,50.9z M361.2,45.4
		c-0.6,0-1.1,0.2-1.5,0.6c-0.4,0.4-0.5,1-0.5,1.8c0,0.7,0.2,1.3,0.6,1.7c0.4,0.4,0.9,0.6,1.5,0.6c0.6,0,1.1-0.2,1.5-0.6
		c0.3-0.4,0.5-1,0.5-1.7c0-0.8-0.2-1.3-0.5-1.8C362.3,45.6,361.9,45.4,361.2,45.4z"/>
	<path class="st0" d="M370.7,50.8h-1v-3.5c0-1.3-0.5-1.9-1.4-1.9c-0.5,0-0.9,0.2-1.2,0.6c-0.3,0.4-0.5,0.8-0.5,1.4v3.5h-1v-6.1h1v1
		h0c0.5-0.8,1.1-1.2,2-1.2c0.7,0,1.2,0.2,1.5,0.6c0.4,0.4,0.5,1.1,0.5,1.9V50.8z"/>
	<path class="st0" d="M372,50.5v-1c0.5,0.4,1.1,0.6,1.8,0.6c0.9,0,1.3-0.3,1.3-0.9c0-0.2,0-0.3-0.1-0.4c-0.1-0.1-0.2-0.2-0.3-0.3
		c-0.1-0.1-0.3-0.2-0.4-0.2c-0.2-0.1-0.4-0.1-0.5-0.2c-0.3-0.1-0.5-0.2-0.7-0.3c-0.2-0.1-0.4-0.2-0.5-0.4s-0.2-0.3-0.3-0.5
		c-0.1-0.2-0.1-0.4-0.1-0.6c0-0.3,0.1-0.5,0.2-0.8c0.1-0.2,0.3-0.4,0.5-0.6c0.2-0.1,0.5-0.3,0.7-0.3s0.6-0.1,0.9-0.1
		c0.5,0,1,0.1,1.4,0.3v1c-0.4-0.3-1-0.4-1.5-0.4c-0.2,0-0.3,0-0.5,0.1c-0.1,0-0.3,0.1-0.4,0.2c-0.1,0.1-0.2,0.2-0.2,0.3
		s-0.1,0.2-0.1,0.3c0,0.2,0,0.3,0.1,0.4c0.1,0.1,0.1,0.2,0.3,0.3c0.1,0.1,0.2,0.2,0.4,0.2s0.3,0.1,0.5,0.2c0.3,0.1,0.5,0.2,0.7,0.3
		c0.2,0.1,0.4,0.2,0.5,0.4c0.2,0.1,0.3,0.3,0.3,0.5s0.1,0.4,0.1,0.6c0,0.3-0.1,0.6-0.2,0.8c-0.1,0.2-0.3,0.4-0.5,0.6
		c-0.2,0.1-0.5,0.3-0.8,0.3s-0.6,0.1-0.9,0.1C373,50.9,372.4,50.8,372,50.5z"/>
	<path class="st0" d="M151.6,68.1v-1.2c0.1,0.1,0.3,0.2,0.5,0.3c0.2,0.1,0.4,0.2,0.6,0.2c0.2,0.1,0.4,0.1,0.6,0.2
		c0.2,0,0.4,0.1,0.6,0.1c0.6,0,1.1-0.1,1.4-0.3c0.3-0.2,0.5-0.6,0.5-1c0-0.2-0.1-0.4-0.2-0.6c-0.1-0.2-0.2-0.3-0.4-0.5
		s-0.4-0.3-0.6-0.4c-0.2-0.1-0.5-0.3-0.8-0.4c-0.3-0.2-0.6-0.3-0.8-0.5c-0.3-0.2-0.5-0.3-0.7-0.5s-0.3-0.4-0.4-0.6
		c-0.1-0.2-0.2-0.5-0.2-0.8c0-0.4,0.1-0.7,0.3-1c0.2-0.3,0.4-0.5,0.7-0.7c0.3-0.2,0.6-0.3,0.9-0.4c0.4-0.1,0.7-0.1,1.1-0.1
		c0.8,0,1.5,0.1,1.8,0.3v1.1c-0.5-0.3-1.1-0.5-1.9-0.5c-0.2,0-0.4,0-0.7,0.1c-0.2,0-0.4,0.1-0.6,0.2c-0.2,0.1-0.3,0.2-0.4,0.4
		s-0.2,0.4-0.2,0.6c0,0.2,0,0.4,0.1,0.6c0.1,0.2,0.2,0.3,0.4,0.4c0.2,0.1,0.4,0.3,0.6,0.4c0.2,0.1,0.5,0.3,0.8,0.4
		c0.3,0.2,0.6,0.3,0.9,0.5c0.3,0.2,0.5,0.4,0.7,0.6c0.2,0.2,0.4,0.4,0.5,0.7c0.1,0.2,0.2,0.5,0.2,0.8c0,0.4-0.1,0.8-0.2,1.1
		s-0.4,0.5-0.7,0.7c-0.3,0.2-0.6,0.3-1,0.4c-0.4,0.1-0.7,0.1-1.2,0.1c-0.1,0-0.3,0-0.5,0c-0.2,0-0.4-0.1-0.6-0.1
		c-0.2,0-0.4-0.1-0.6-0.2C151.9,68.2,151.7,68.1,151.6,68.1z"/>
	<path class="st0" d="M158.7,60.8c-0.2,0-0.3-0.1-0.4-0.2c-0.1-0.1-0.2-0.3-0.2-0.5c0-0.2,0.1-0.3,0.2-0.5c0.1-0.1,0.3-0.2,0.4-0.2
		c0.2,0,0.3,0.1,0.5,0.2c0.1,0.1,0.2,0.3,0.2,0.5c0,0.2-0.1,0.3-0.2,0.4S158.9,60.8,158.7,60.8z M159.2,68.4h-1v-6.1h1V68.4z"/>
	<path class="st0" d="M162,68.4h-1v-9h1V68.4z"/>
	<path class="st0" d="M168.6,62.3l-2.4,6.1h-1l-2.3-6.1h1.1l1.5,4.4c0.1,0.3,0.2,0.6,0.2,0.9h0c0-0.3,0.1-0.6,0.2-0.8l1.6-4.4H168.6
		z"/>
	<path class="st0" d="M174.3,65.6H170c0,0.7,0.2,1.2,0.5,1.6c0.3,0.4,0.8,0.6,1.4,0.6c0.7,0,1.3-0.2,1.9-0.7V68
		c-0.5,0.4-1.2,0.6-2.1,0.6c-0.9,0-1.5-0.3-2-0.8s-0.7-1.3-0.7-2.3c0-0.9,0.3-1.7,0.8-2.3c0.5-0.6,1.2-0.9,2-0.9s1.4,0.3,1.8,0.8
		s0.7,1.2,0.7,2.1V65.6z M173.3,64.8c0-0.6-0.1-1-0.4-1.3c-0.3-0.3-0.6-0.5-1.1-0.5c-0.5,0-0.9,0.2-1.2,0.5
		c-0.3,0.3-0.5,0.8-0.6,1.3H173.3z"/>
	<path class="st0" d="M178.8,63.3c-0.2-0.1-0.4-0.2-0.7-0.2c-0.4,0-0.8,0.2-1,0.6c-0.3,0.4-0.4,0.9-0.4,1.6v3.1h-1v-6.1h1v1.3h0
		c0.1-0.4,0.4-0.8,0.6-1c0.3-0.2,0.6-0.4,1-0.4c0.3,0,0.4,0,0.6,0.1V63.3z"/>
	<path class="st0" d="M187.6,68.4h-4.5v-8.5h4.3v0.9h-3.3v2.8h3.1v0.9h-3.1v3h3.5V68.4z"/>
	<path class="st0" d="M194,68.4h-1v-3.5c0-1.3-0.5-1.9-1.4-1.9c-0.5,0-0.9,0.2-1.2,0.6c-0.3,0.4-0.5,0.8-0.5,1.4v3.5h-1v-6.1h1v1h0
		c0.5-0.8,1.1-1.2,2-1.2c0.7,0,1.2,0.2,1.5,0.6c0.4,0.4,0.5,1.1,0.5,1.9V68.4z"/>
	<path class="st0" d="M198.5,68.3c-0.2,0.1-0.5,0.2-0.9,0.2c-1.1,0-1.6-0.6-1.6-1.8v-3.6h-1v-0.8h1v-1.5l1-0.3v1.8h1.5v0.8H197v3.4
		c0,0.4,0.1,0.7,0.2,0.9s0.4,0.3,0.7,0.3c0.2,0,0.5-0.1,0.6-0.2V68.3z"/>
	<path class="st0" d="M204.5,65.6h-4.3c0,0.7,0.2,1.2,0.5,1.6c0.3,0.4,0.8,0.6,1.4,0.6c0.7,0,1.3-0.2,1.9-0.7V68
		c-0.5,0.4-1.2,0.6-2.1,0.6c-0.9,0-1.5-0.3-2-0.8c-0.5-0.6-0.7-1.3-0.7-2.3c0-0.9,0.3-1.7,0.8-2.3c0.5-0.6,1.2-0.9,2-0.9
		c0.8,0,1.4,0.3,1.9,0.8c0.4,0.5,0.7,1.2,0.7,2.1V65.6z M203.5,64.8c0-0.6-0.1-1-0.4-1.3c-0.3-0.3-0.6-0.5-1.1-0.5
		c-0.5,0-0.9,0.2-1.2,0.5s-0.5,0.8-0.6,1.3H203.5z"/>
	<path class="st0" d="M209,63.3c-0.2-0.1-0.4-0.2-0.7-0.2c-0.4,0-0.8,0.2-1,0.6c-0.3,0.4-0.4,0.9-0.4,1.6v3.1h-1v-6.1h1v1.3h0
		c0.1-0.4,0.4-0.8,0.6-1c0.3-0.2,0.6-0.4,1-0.4c0.3,0,0.4,0,0.6,0.1V63.3z"/>
	<path class="st0" d="M210.9,67.5L210.9,67.5l0,3.7h-1v-8.9h1v1.1h0c0.5-0.8,1.2-1.2,2.1-1.2c0.8,0,1.4,0.3,1.8,0.8
		c0.4,0.5,0.7,1.3,0.7,2.2c0,1-0.2,1.8-0.7,2.4c-0.5,0.6-1.2,0.9-2,0.9C211.9,68.5,211.3,68.2,210.9,67.5z M210.9,65.1v0.9
		c0,0.5,0.2,0.9,0.5,1.3c0.3,0.4,0.7,0.5,1.2,0.5c0.6,0,1.1-0.2,1.4-0.7c0.3-0.5,0.5-1.1,0.5-1.9c0-0.7-0.2-1.2-0.5-1.6
		s-0.7-0.6-1.3-0.6c-0.6,0-1,0.2-1.4,0.6C211,64,210.9,64.5,210.9,65.1z"/>
	<path class="st0" d="M220.1,63.3c-0.2-0.1-0.4-0.2-0.7-0.2c-0.4,0-0.8,0.2-1,0.6c-0.3,0.4-0.4,0.9-0.4,1.6v3.1h-1v-6.1h1v1.3h0
		c0.1-0.4,0.4-0.8,0.6-1c0.3-0.2,0.6-0.4,1-0.4c0.3,0,0.4,0,0.6,0.1V63.3z"/>
	<path class="st0" d="M221.5,60.8c-0.2,0-0.3-0.1-0.4-0.2s-0.2-0.3-0.2-0.5c0-0.2,0.1-0.3,0.2-0.5c0.1-0.1,0.3-0.2,0.4-0.2
		c0.2,0,0.3,0.1,0.5,0.2c0.1,0.1,0.2,0.3,0.2,0.5c0,0.2-0.1,0.3-0.2,0.4C221.8,60.7,221.7,60.8,221.5,60.8z M222,68.4h-1v-6.1h1
		V68.4z"/>
	<path class="st0" d="M223.4,68.2v-1c0.5,0.4,1.1,0.6,1.8,0.6c0.9,0,1.3-0.3,1.3-0.9c0-0.2,0-0.3-0.1-0.4c-0.1-0.1-0.2-0.2-0.3-0.3
		c-0.1-0.1-0.3-0.2-0.4-0.2c-0.2-0.1-0.4-0.1-0.5-0.2c-0.3-0.1-0.5-0.2-0.7-0.3c-0.2-0.1-0.4-0.2-0.5-0.4s-0.2-0.3-0.3-0.5
		c-0.1-0.2-0.1-0.4-0.1-0.6c0-0.3,0.1-0.5,0.2-0.8c0.1-0.2,0.3-0.4,0.5-0.6c0.2-0.1,0.5-0.3,0.7-0.3s0.6-0.1,0.9-0.1
		c0.5,0,1,0.1,1.4,0.3v1c-0.4-0.3-1-0.4-1.5-0.4c-0.2,0-0.3,0-0.5,0.1c-0.1,0-0.3,0.1-0.4,0.2c-0.1,0.1-0.2,0.2-0.2,0.3
		s-0.1,0.2-0.1,0.3c0,0.2,0,0.3,0.1,0.4c0.1,0.1,0.1,0.2,0.3,0.3c0.1,0.1,0.2,0.2,0.4,0.2s0.3,0.1,0.5,0.2c0.3,0.1,0.5,0.2,0.7,0.3
		c0.2,0.1,0.4,0.2,0.5,0.4c0.2,0.1,0.3,0.3,0.3,0.5s0.1,0.4,0.1,0.6c0,0.3-0.1,0.6-0.2,0.8c-0.1,0.2-0.3,0.4-0.5,0.6
		c-0.2,0.1-0.5,0.3-0.8,0.3s-0.6,0.1-0.9,0.1C224.4,68.5,223.9,68.4,223.4,68.2z"/>
	<path class="st0" d="M233.7,65.6h-4.3c0,0.7,0.2,1.2,0.5,1.6c0.3,0.4,0.8,0.6,1.4,0.6c0.7,0,1.3-0.2,1.9-0.7V68
		c-0.5,0.4-1.2,0.6-2.1,0.6c-0.9,0-1.5-0.3-2-0.8c-0.5-0.6-0.7-1.3-0.7-2.3c0-0.9,0.3-1.7,0.8-2.3c0.5-0.6,1.2-0.9,2-0.9
		c0.8,0,1.4,0.3,1.9,0.8c0.4,0.5,0.7,1.2,0.7,2.1V65.6z M232.7,64.8c0-0.6-0.1-1-0.4-1.3c-0.3-0.3-0.6-0.5-1.1-0.5
		c-0.5,0-0.9,0.2-1.2,0.5s-0.5,0.8-0.6,1.3H232.7z"/>
	<path class="st0" d="M247.1,68.4h-1v-5.7c0-0.5,0-1,0.1-1.7h0c-0.1,0.4-0.2,0.7-0.3,0.8l-2.9,6.6h-0.5l-2.9-6.5
		c-0.1-0.2-0.2-0.5-0.3-0.9h0c0,0.3,0,0.9,0,1.7v5.7h-1v-8.5h1.3l2.6,5.9c0.2,0.5,0.3,0.8,0.4,1h0c0.2-0.5,0.3-0.8,0.4-1l2.7-5.9
		h1.2V68.4z"/>
	<path class="st0" d="M251.6,68.5c-0.9,0-1.6-0.3-2.2-0.9c-0.5-0.6-0.8-1.3-0.8-2.3c0-1,0.3-1.8,0.8-2.4c0.6-0.6,1.3-0.9,2.3-0.9
		c0.9,0,1.6,0.3,2.1,0.8c0.5,0.6,0.8,1.3,0.8,2.3c0,1-0.3,1.7-0.8,2.3C253.2,68.3,252.5,68.5,251.6,68.5z M251.6,63
		c-0.6,0-1.1,0.2-1.5,0.6c-0.4,0.4-0.5,1-0.5,1.8c0,0.7,0.2,1.3,0.6,1.7c0.4,0.4,0.9,0.6,1.5,0.6c0.6,0,1.1-0.2,1.5-0.6
		c0.3-0.4,0.5-1,0.5-1.7c0-0.8-0.2-1.3-0.5-1.8C252.8,63.2,252.3,63,251.6,63z"/>
	<path class="st0" d="M257,67.5L257,67.5l0,0.9h-1v-9h1v4h0c0.5-0.8,1.2-1.2,2.1-1.2c0.8,0,1.4,0.3,1.8,0.8c0.4,0.5,0.7,1.3,0.7,2.2
		c0,1-0.2,1.8-0.7,2.4c-0.5,0.6-1.2,0.9-2,0.9C258,68.5,257.4,68.2,257,67.5z M257,65.1v0.9c0,0.5,0.2,0.9,0.5,1.3
		c0.3,0.4,0.7,0.5,1.2,0.5c0.6,0,1.1-0.2,1.4-0.7c0.3-0.5,0.5-1.1,0.5-1.9c0-0.7-0.2-1.2-0.5-1.6s-0.7-0.6-1.3-0.6
		c-0.6,0-1,0.2-1.4,0.6C257.2,64,257,64.5,257,65.1z"/>
	<path class="st0" d="M263.5,60.8c-0.2,0-0.3-0.1-0.4-0.2s-0.2-0.3-0.2-0.5c0-0.2,0.1-0.3,0.2-0.5c0.1-0.1,0.3-0.2,0.4-0.2
		c0.2,0,0.3,0.1,0.5,0.2c0.1,0.1,0.2,0.3,0.2,0.5c0,0.2-0.1,0.3-0.2,0.4C263.9,60.7,263.7,60.8,263.5,60.8z M264,68.4h-1v-6.1h1
		V68.4z"/>
	<path class="st0" d="M266.8,68.4h-1v-9h1V68.4z"/>
	<path class="st0" d="M269.1,60.8c-0.2,0-0.3-0.1-0.4-0.2s-0.2-0.3-0.2-0.5c0-0.2,0.1-0.3,0.2-0.5c0.1-0.1,0.3-0.2,0.4-0.2
		c0.2,0,0.3,0.1,0.5,0.2c0.1,0.1,0.2,0.3,0.2,0.5c0,0.2-0.1,0.3-0.2,0.4C269.5,60.7,269.3,60.8,269.1,60.8z M269.6,68.4h-1v-6.1h1
		V68.4z"/>
	<path class="st0" d="M274.3,68.3c-0.2,0.1-0.5,0.2-0.9,0.2c-1.1,0-1.6-0.6-1.6-1.8v-3.6h-1v-0.8h1v-1.5l1-0.3v1.8h1.5v0.8h-1.5v3.4
		c0,0.4,0.1,0.7,0.2,0.9s0.4,0.3,0.7,0.3c0.2,0,0.5-0.1,0.6-0.2V68.3z"/>
	<path class="st0" d="M280.3,62.3l-2.8,7.1c-0.5,1.3-1.2,1.9-2.1,1.9c-0.3,0-0.5,0-0.6-0.1v-0.9c0.2,0.1,0.4,0.1,0.6,0.1
		c0.5,0,0.9-0.3,1.1-0.9l0.5-1.2l-2.4-6.1h1.1l1.6,4.7c0,0.1,0.1,0.2,0.1,0.5h0c0-0.1,0.1-0.2,0.1-0.5l1.7-4.7H280.3z"/>
	<path class="st0" d="M293.2,68.4h-1v-5.7c0-0.5,0-1,0.1-1.7h0c-0.1,0.4-0.2,0.7-0.3,0.8l-2.9,6.6h-0.5l-2.9-6.5
		c-0.1-0.2-0.2-0.5-0.3-0.9h0c0,0.3,0,0.9,0,1.7v5.7h-1v-8.5h1.3l2.6,5.9c0.2,0.5,0.3,0.8,0.4,1h0c0.2-0.5,0.3-0.8,0.4-1l2.7-5.9
		h1.2V68.4z"/>
	<path class="st0" d="M299.5,68.4h-1v-1h0c-0.4,0.7-1,1.1-1.9,1.1c-0.6,0-1.1-0.2-1.4-0.5c-0.3-0.3-0.5-0.7-0.5-1.3
		c0-1.1,0.7-1.8,2-2l1.8-0.3c0-1-0.4-1.6-1.3-1.6c-0.7,0-1.4,0.2-2,0.7v-1c0.6-0.4,1.3-0.6,2.1-0.6c1.4,0,2.1,0.8,2.1,2.3V68.4z
		 M298.5,65.3l-1.5,0.2c-0.5,0.1-0.8,0.2-1,0.3c-0.2,0.2-0.3,0.4-0.3,0.9c0,0.3,0.1,0.5,0.3,0.7s0.5,0.3,0.8,0.3
		c0.5,0,0.9-0.2,1.2-0.5c0.3-0.3,0.5-0.8,0.5-1.3V65.3z"/>
	<path class="st0" d="M306.3,68.4h-1v-3.5c0-1.3-0.5-1.9-1.4-1.9c-0.5,0-0.9,0.2-1.2,0.6s-0.5,0.8-0.5,1.4v3.5h-1v-6.1h1v1h0
		c0.5-0.8,1.1-1.2,2-1.2c0.7,0,1.2,0.2,1.5,0.6c0.4,0.4,0.5,1.1,0.5,1.9V68.4z"/>
	<path class="st0" d="M312.3,68.4h-1v-1h0c-0.4,0.7-1,1.1-1.9,1.1c-0.6,0-1.1-0.2-1.4-0.5c-0.3-0.3-0.5-0.7-0.5-1.3
		c0-1.1,0.7-1.8,2-2l1.8-0.3c0-1-0.4-1.6-1.3-1.6c-0.7,0-1.4,0.2-2,0.7v-1c0.6-0.4,1.3-0.6,2.1-0.6c1.4,0,2.1,0.8,2.1,2.3V68.4z
		 M311.3,65.3l-1.5,0.2c-0.5,0.1-0.8,0.2-1,0.3c-0.2,0.2-0.3,0.4-0.3,0.9c0,0.3,0.1,0.5,0.3,0.7s0.5,0.3,0.8,0.3
		c0.5,0,0.9-0.2,1.2-0.5c0.3-0.3,0.5-0.8,0.5-1.3V65.3z"/>
	<path class="st0" d="M319.2,67.9c0,2.2-1.1,3.4-3.2,3.4c-0.8,0-1.4-0.1-2-0.4v-1c0.7,0.4,1.3,0.6,2,0.6c1.5,0,2.2-0.8,2.2-2.4v-0.7
		h0c-0.5,0.8-1.2,1.2-2.1,1.2c-0.8,0-1.4-0.3-1.8-0.8c-0.5-0.5-0.7-1.3-0.7-2.2c0-1,0.2-1.9,0.7-2.5c0.5-0.6,1.2-0.9,2-0.9
		c0.8,0,1.4,0.3,1.8,1h0v-0.8h1V67.9z M318.2,65.6v-0.9c0-0.5-0.2-0.9-0.5-1.2c-0.3-0.3-0.7-0.5-1.2-0.5c-0.6,0-1.1,0.2-1.4,0.7
		c-0.3,0.4-0.5,1.1-0.5,1.8c0,0.7,0.2,1.2,0.5,1.6c0.3,0.4,0.8,0.6,1.3,0.6c0.5,0,1-0.2,1.3-0.6C318.1,66.8,318.2,66.3,318.2,65.6z"
		/>
	<path class="st0" d="M325.9,65.6h-4.3c0,0.7,0.2,1.2,0.5,1.6c0.3,0.4,0.8,0.6,1.4,0.6c0.7,0,1.3-0.2,1.9-0.7V68
		c-0.5,0.4-1.2,0.6-2.1,0.6c-0.9,0-1.5-0.3-2-0.8c-0.5-0.6-0.7-1.3-0.7-2.3c0-0.9,0.3-1.7,0.8-2.3c0.5-0.6,1.2-0.9,2-0.9
		c0.8,0,1.4,0.3,1.9,0.8c0.4,0.5,0.7,1.2,0.7,2.1V65.6z M324.9,64.8c0-0.6-0.1-1-0.4-1.3c-0.3-0.3-0.6-0.5-1.1-0.5
		c-0.5,0-0.9,0.2-1.2,0.5s-0.5,0.8-0.6,1.3H324.9z"/>
	<path class="st0" d="M335.9,68.4h-1v-3.5c0-0.7-0.1-1.2-0.3-1.5s-0.6-0.5-1-0.5c-0.4,0-0.8,0.2-1.1,0.6c-0.3,0.4-0.4,0.8-0.4,1.4
		v3.5h-1v-3.6c0-1.2-0.5-1.8-1.4-1.8c-0.4,0-0.8,0.2-1.1,0.5s-0.4,0.8-0.4,1.4v3.5h-1v-6.1h1v1h0c0.4-0.7,1.1-1.1,1.9-1.1
		c0.4,0,0.8,0.1,1.1,0.3c0.3,0.2,0.5,0.5,0.6,0.9c0.5-0.8,1.1-1.3,2-1.3c1.3,0,2,0.8,2,2.5V68.4z"/>
	<path class="st0" d="M342.5,65.6h-4.3c0,0.7,0.2,1.2,0.5,1.6c0.3,0.4,0.8,0.6,1.4,0.6c0.7,0,1.3-0.2,1.9-0.7V68
		c-0.5,0.4-1.2,0.6-2.1,0.6c-0.9,0-1.5-0.3-2-0.8c-0.5-0.6-0.7-1.3-0.7-2.3c0-0.9,0.3-1.7,0.8-2.3c0.5-0.6,1.2-0.9,2-0.9
		c0.8,0,1.4,0.3,1.9,0.8c0.4,0.5,0.7,1.2,0.7,2.1V65.6z M341.5,64.8c0-0.6-0.1-1-0.4-1.3c-0.3-0.3-0.6-0.5-1.1-0.5
		c-0.5,0-0.9,0.2-1.2,0.5s-0.5,0.8-0.6,1.3H341.5z"/>
	<path class="st0" d="M348.9,68.4h-1v-3.5c0-1.3-0.5-1.9-1.4-1.9c-0.5,0-0.9,0.2-1.2,0.6s-0.5,0.8-0.5,1.4v3.5h-1v-6.1h1v1h0
		c0.5-0.8,1.1-1.2,2-1.2c0.7,0,1.2,0.2,1.5,0.6c0.4,0.4,0.5,1.1,0.5,1.9V68.4z"/>
	<path class="st0" d="M353.4,68.3c-0.2,0.1-0.5,0.2-0.9,0.2c-1.1,0-1.6-0.6-1.6-1.8v-3.6h-1v-0.8h1v-1.5l1-0.3v1.8h1.5v0.8h-1.5v3.4
		c0,0.4,0.1,0.7,0.2,0.9s0.4,0.3,0.7,0.3c0.2,0,0.5-0.1,0.6-0.2V68.3z"/>
	<path class="st0" d="M151.6,85.7v-1.2c0.1,0.1,0.3,0.2,0.5,0.3c0.2,0.1,0.4,0.2,0.6,0.2c0.2,0.1,0.4,0.1,0.6,0.2
		c0.2,0,0.4,0.1,0.6,0.1c0.6,0,1.1-0.1,1.4-0.3c0.3-0.2,0.5-0.6,0.5-1c0-0.2-0.1-0.4-0.2-0.6c-0.1-0.2-0.2-0.3-0.4-0.5
		s-0.4-0.3-0.6-0.4c-0.2-0.1-0.5-0.3-0.8-0.4c-0.3-0.2-0.6-0.3-0.8-0.5c-0.3-0.2-0.5-0.3-0.7-0.5s-0.3-0.4-0.4-0.6
		c-0.1-0.2-0.2-0.5-0.2-0.8c0-0.4,0.1-0.7,0.3-1c0.2-0.3,0.4-0.5,0.7-0.7c0.3-0.2,0.6-0.3,0.9-0.4c0.4-0.1,0.7-0.1,1.1-0.1
		c0.8,0,1.5,0.1,1.8,0.3v1.1c-0.5-0.3-1.1-0.5-1.9-0.5c-0.2,0-0.4,0-0.7,0.1c-0.2,0-0.4,0.1-0.6,0.2c-0.2,0.1-0.3,0.2-0.4,0.4
		s-0.2,0.4-0.2,0.6c0,0.2,0,0.4,0.1,0.6c0.1,0.2,0.2,0.3,0.4,0.4c0.2,0.1,0.4,0.3,0.6,0.4c0.2,0.1,0.5,0.3,0.8,0.4
		c0.3,0.2,0.6,0.3,0.9,0.5c0.3,0.2,0.5,0.4,0.7,0.6c0.2,0.2,0.4,0.4,0.5,0.7c0.1,0.2,0.2,0.5,0.2,0.8c0,0.4-0.1,0.8-0.2,1.1
		s-0.4,0.5-0.7,0.7c-0.3,0.2-0.6,0.3-1,0.4c-0.4,0.1-0.7,0.1-1.2,0.1c-0.1,0-0.3,0-0.5,0c-0.2,0-0.4-0.1-0.6-0.1
		c-0.2,0-0.4-0.1-0.6-0.2C151.9,85.8,151.7,85.8,151.6,85.7z"/>
	<path class="st0" d="M158.7,78.4c-0.2,0-0.3-0.1-0.4-0.2c-0.1-0.1-0.2-0.3-0.2-0.5c0-0.2,0.1-0.3,0.2-0.5c0.1-0.1,0.3-0.2,0.4-0.2
		c0.2,0,0.3,0.1,0.5,0.2c0.1,0.1,0.2,0.3,0.2,0.5c0,0.2-0.1,0.3-0.2,0.4S158.9,78.4,158.7,78.4z M159.2,86h-1v-6.1h1V86z"/>
	<path class="st0" d="M162,86h-1v-9h1V86z"/>
	<path class="st0" d="M168.6,79.9l-2.4,6.1h-1l-2.3-6.1h1.1l1.5,4.4c0.1,0.3,0.2,0.6,0.2,0.9h0c0-0.3,0.1-0.6,0.2-0.8l1.6-4.4H168.6
		z"/>
	<path class="st0" d="M174.3,83.2H170c0,0.7,0.2,1.2,0.5,1.6c0.3,0.4,0.8,0.6,1.4,0.6c0.7,0,1.3-0.2,1.9-0.7v0.9
		c-0.5,0.4-1.2,0.6-2.1,0.6c-0.9,0-1.5-0.3-2-0.8S169,84,169,83c0-0.9,0.3-1.7,0.8-2.3c0.5-0.6,1.2-0.9,2-0.9s1.4,0.3,1.8,0.8
		s0.7,1.2,0.7,2.1V83.2z M173.3,82.4c0-0.6-0.1-1-0.4-1.3c-0.3-0.3-0.6-0.5-1.1-0.5c-0.5,0-0.9,0.2-1.2,0.5
		c-0.3,0.3-0.5,0.8-0.6,1.3H173.3z"/>
	<path class="st0" d="M178.8,80.9c-0.2-0.1-0.4-0.2-0.7-0.2c-0.4,0-0.8,0.2-1,0.6c-0.3,0.4-0.4,0.9-0.4,1.6V86h-1v-6.1h1v1.3h0
		c0.1-0.4,0.4-0.8,0.6-1c0.3-0.2,0.6-0.4,1-0.4c0.3,0,0.4,0,0.6,0.1V80.9z"/>
	<path class="st0" d="M182.7,85.7v-1.2c0.1,0.1,0.3,0.2,0.5,0.3c0.2,0.1,0.4,0.2,0.6,0.2c0.2,0.1,0.4,0.1,0.6,0.2
		c0.2,0,0.4,0.1,0.6,0.1c0.6,0,1.1-0.1,1.4-0.3c0.3-0.2,0.5-0.6,0.5-1c0-0.2-0.1-0.4-0.2-0.6c-0.1-0.2-0.2-0.3-0.4-0.5
		s-0.4-0.3-0.6-0.4c-0.2-0.1-0.5-0.3-0.8-0.4c-0.3-0.2-0.6-0.3-0.8-0.5c-0.3-0.2-0.5-0.3-0.7-0.5s-0.3-0.4-0.4-0.6
		c-0.1-0.2-0.2-0.5-0.2-0.8c0-0.4,0.1-0.7,0.3-1c0.2-0.3,0.4-0.5,0.7-0.7c0.3-0.2,0.6-0.3,0.9-0.4c0.4-0.1,0.7-0.1,1.1-0.1
		c0.8,0,1.5,0.1,1.8,0.3v1.1c-0.5-0.3-1.1-0.5-1.9-0.5c-0.2,0-0.4,0-0.7,0.1c-0.2,0-0.4,0.1-0.6,0.2c-0.2,0.1-0.3,0.2-0.4,0.4
		s-0.2,0.4-0.2,0.6c0,0.2,0,0.4,0.1,0.6c0.1,0.2,0.2,0.3,0.4,0.4c0.2,0.1,0.4,0.3,0.6,0.4c0.2,0.1,0.5,0.3,0.8,0.4
		c0.3,0.2,0.6,0.3,0.9,0.5c0.3,0.2,0.5,0.4,0.7,0.6c0.2,0.2,0.4,0.4,0.5,0.7c0.1,0.2,0.2,0.5,0.2,0.8c0,0.4-0.1,0.8-0.2,1.1
		s-0.4,0.5-0.7,0.7c-0.3,0.2-0.6,0.3-1,0.4c-0.4,0.1-0.7,0.1-1.2,0.1c-0.1,0-0.3,0-0.5,0c-0.2,0-0.4-0.1-0.6-0.1
		c-0.2,0-0.4-0.1-0.6-0.2C182.9,85.8,182.8,85.8,182.7,85.7z"/>
	<path class="st0" d="M194.1,83.2h-4.3c0,0.7,0.2,1.2,0.5,1.6c0.3,0.4,0.8,0.6,1.4,0.6c0.7,0,1.3-0.2,1.9-0.7v0.9
		c-0.5,0.4-1.2,0.6-2.1,0.6c-0.9,0-1.5-0.3-2-0.8s-0.7-1.3-0.7-2.3c0-0.9,0.3-1.7,0.8-2.3c0.5-0.6,1.2-0.9,2-0.9s1.4,0.3,1.8,0.8
		c0.4,0.5,0.7,1.2,0.7,2.1V83.2z M193.1,82.4c0-0.6-0.1-1-0.4-1.3c-0.3-0.3-0.6-0.5-1.1-0.5c-0.5,0-0.9,0.2-1.2,0.5
		c-0.3,0.3-0.5,0.8-0.6,1.3H193.1z"/>
	<path class="st0" d="M199.6,85.8c-0.5,0.3-1,0.4-1.7,0.4c-0.9,0-1.6-0.3-2.1-0.8c-0.5-0.6-0.8-1.3-0.8-2.2c0-1,0.3-1.8,0.9-2.4
		c0.6-0.6,1.3-0.9,2.3-0.9c0.5,0,1,0.1,1.4,0.3v1c-0.5-0.3-0.9-0.5-1.5-0.5c-0.6,0-1.1,0.2-1.5,0.7c-0.4,0.4-0.6,1-0.6,1.8
		c0,0.7,0.2,1.3,0.6,1.7c0.4,0.4,0.9,0.6,1.5,0.6c0.5,0,1-0.2,1.5-0.5V85.8z"/>
	<path class="st0" d="M205.9,86h-1v-1h0c-0.4,0.7-1,1.1-1.9,1.1c-1.5,0-2.2-0.9-2.2-2.6v-3.6h1v3.5c0,1.3,0.5,1.9,1.5,1.9
		c0.5,0,0.9-0.2,1.2-0.5c0.3-0.4,0.5-0.8,0.5-1.4v-3.5h1V86z"/>
	<path class="st0" d="M210.9,80.9c-0.2-0.1-0.4-0.2-0.7-0.2c-0.4,0-0.8,0.2-1,0.6c-0.3,0.4-0.4,0.9-0.4,1.6V86h-1v-6.1h1v1.3h0
		c0.1-0.4,0.4-0.8,0.6-1c0.3-0.2,0.6-0.4,1-0.4c0.3,0,0.4,0,0.6,0.1V80.9z"/>
	<path class="st0" d="M212.3,78.4c-0.2,0-0.3-0.1-0.4-0.2s-0.2-0.3-0.2-0.5c0-0.2,0.1-0.3,0.2-0.5c0.1-0.1,0.3-0.2,0.4-0.2
		c0.2,0,0.3,0.1,0.5,0.2c0.1,0.1,0.2,0.3,0.2,0.5c0,0.2-0.1,0.3-0.2,0.4C212.6,78.3,212.5,78.4,212.3,78.4z M212.8,86h-1v-6.1h1V86z
		"/>
	<path class="st0" d="M217.4,86c-0.2,0.1-0.5,0.2-0.9,0.2c-1.1,0-1.6-0.6-1.6-1.8v-3.6h-1v-0.8h1v-1.5l1-0.3v1.8h1.5v0.8h-1.5v3.4
		c0,0.4,0.1,0.7,0.2,0.9s0.4,0.3,0.7,0.3c0.2,0,0.5-0.1,0.6-0.2V86z"/>
	<path class="st0" d="M223.4,79.9l-2.8,7.1c-0.5,1.3-1.2,1.9-2.1,1.9c-0.3,0-0.5,0-0.6-0.1V88c0.2,0.1,0.4,0.1,0.6,0.1
		c0.5,0,0.9-0.3,1.1-0.9l0.5-1.2l-2.4-6.1h1.1l1.6,4.7c0,0.1,0.1,0.2,0.1,0.5h0c0-0.1,0.1-0.2,0.1-0.5l1.7-4.7H223.4z"/>
</g>
</svg>
