<?xml version="1.0" encoding="utf-8"?>
<!-- Generator: Adobe Illustrator 24.2.3, SVG Export Plug-In . SVG Version: 6.00 Build 0)  -->
<svg version="1.1" id="Layer_1" xmlns="http://www.w3.org/2000/svg" xmlns:xlink="http://www.w3.org/1999/xlink" x="0px" y="0px"
	 viewBox="0 0 100.9 30.1" style="enable-background:new 0 0 100.9 30.1;" xml:space="preserve">
		<g>
			<path class="st0" d="M24.31,43.94h-2.46V29.79c0-1.12,0.07-2.49,0.21-4.1H22c-0.24,0.95-0.45,1.63-0.63,2.04l-7.21,16.21h-1.21
				l-7.19-16.1c-0.21-0.47-0.42-1.19-0.63-2.16H5.07c0.08,0.84,0.12,2.22,0.12,4.13v14.12H2.8v-21.1h3.27l6.47,14.71
				c0.5,1.13,0.82,1.97,0.97,2.53h0.09c0.42-1.16,0.76-2.02,1.02-2.59l6.61-14.65h3.09V43.94z"/>
			<path class="st0" d="M30.41,25.05c-0.43,0-0.8-0.15-1.1-0.44c-0.3-0.29-0.46-0.67-0.46-1.12c0-0.45,0.15-0.83,0.46-1.13
				c0.3-0.3,0.67-0.45,1.1-0.45c0.44,0,0.82,0.15,1.13,0.45c0.31,0.3,0.46,0.67,0.46,1.13c0,0.43-0.15,0.8-0.46,1.1
				C31.22,24.9,30.85,25.05,30.41,25.05z M31.58,43.94h-2.41V28.88h2.41V43.94z"/>
			<path class="st0" d="M46.38,43.25c-1.16,0.7-2.53,1.04-4.12,1.04c-2.15,0-3.88-0.7-5.2-2.1c-1.32-1.4-1.98-3.21-1.98-5.44
				c0-2.48,0.71-4.48,2.13-5.98c1.42-1.51,3.32-2.26,5.69-2.26c1.32,0,2.49,0.25,3.5,0.74v2.47c-1.12-0.78-2.31-1.18-3.59-1.18
				c-1.54,0-2.8,0.55-3.79,1.66s-1.48,2.55-1.48,4.35c0,1.77,0.46,3.16,1.39,4.18c0.93,1.02,2.17,1.53,3.73,1.53
				c1.31,0,2.55-0.44,3.71-1.31V43.25z"/>
			<path class="st0" d="M57.52,31.32c-0.42-0.32-1.03-0.49-1.82-0.49c-1.03,0-1.89,0.49-2.58,1.46c-0.69,0.97-1.04,2.3-1.04,3.97
				v7.68h-2.41V28.88h2.41v3.1h0.06c0.34-1.06,0.87-1.89,1.57-2.48c0.71-0.59,1.5-0.89,2.37-0.89c0.63,0,1.11,0.07,1.44,0.21V31.32z
				"/>
			<path class="st0" d="M65.68,44.3c-2.23,0-4-0.7-5.33-2.11c-1.33-1.41-1.99-3.27-1.99-5.6c0-2.53,0.69-4.51,2.07-5.93
				c1.38-1.42,3.25-2.13,5.61-2.13c2.25,0,4,0.69,5.26,2.07c1.26,1.38,1.89,3.3,1.89,5.75c0,2.4-0.68,4.33-2.04,5.77
				C69.79,43.57,67.96,44.3,65.68,44.3z M65.85,30.56c-1.55,0-2.78,0.53-3.68,1.58c-0.9,1.05-1.35,2.51-1.35,4.36
				c0,1.79,0.46,3.19,1.37,4.22s2.13,1.54,3.66,1.54c1.56,0,2.76-0.5,3.6-1.52c0.84-1.01,1.26-2.45,1.26-4.31
				c0-1.88-0.42-3.33-1.26-4.36C68.61,31.07,67.41,30.56,65.85,30.56z"/>
			<path class="st0" d="M75.76,43.4v-2.59c1.31,0.97,2.76,1.46,4.34,1.46c2.12,0,3.18-0.71,3.18-2.12c0-0.4-0.09-0.74-0.27-1.02
				c-0.18-0.28-0.43-0.53-0.74-0.74s-0.67-0.41-1.09-0.58c-0.42-0.17-0.87-0.35-1.35-0.54c-0.67-0.26-1.25-0.53-1.76-0.8
				c-0.51-0.27-0.93-0.57-1.27-0.91s-0.59-0.72-0.77-1.16c-0.17-0.43-0.26-0.94-0.26-1.52c0-0.71,0.16-1.33,0.49-1.88
				s0.76-1,1.29-1.37c0.54-0.37,1.15-0.64,1.85-0.83c0.69-0.19,1.4-0.28,2.14-0.28c1.3,0,2.47,0.23,3.5,0.68v2.44
				c-1.11-0.73-2.38-1.09-3.83-1.09c-0.45,0-0.86,0.05-1.22,0.15s-0.67,0.25-0.93,0.43c-0.26,0.19-0.46,0.41-0.6,0.67
				c-0.14,0.26-0.21,0.55-0.21,0.86c0,0.39,0.07,0.72,0.21,0.99c0.14,0.26,0.35,0.5,0.63,0.71c0.27,0.21,0.61,0.39,1,0.56
				c0.39,0.17,0.84,0.35,1.34,0.54c0.67,0.25,1.27,0.52,1.79,0.79c0.53,0.27,0.98,0.57,1.35,0.91c0.37,0.34,0.66,0.73,0.86,1.17
				c0.2,0.44,0.3,0.97,0.3,1.57c0,0.75-0.16,1.39-0.49,1.94s-0.77,1.01-1.32,1.37s-1.18,0.63-1.9,0.81
				c-0.72,0.18-1.47,0.26-2.25,0.26C78.24,44.3,76.9,44,75.76,43.4z"/>
			<path class="st0" d="M95.4,44.3c-2.23,0-4-0.7-5.33-2.11c-1.33-1.41-1.99-3.27-1.99-5.6c0-2.53,0.69-4.51,2.07-5.93
				c1.38-1.42,3.25-2.13,5.61-2.13c2.25,0,4,0.69,5.26,2.07c1.26,1.38,1.89,3.3,1.89,5.75c0,2.4-0.68,4.33-2.04,5.77
				C99.5,43.57,97.68,44.3,95.4,44.3z M95.57,30.56c-1.55,0-2.78,0.53-3.68,1.58c-0.9,1.05-1.35,2.51-1.35,4.36
				c0,1.79,0.46,3.19,1.37,4.22s2.13,1.54,3.66,1.54c1.56,0,2.76-0.5,3.6-1.52c0.84-1.01,1.26-2.45,1.26-4.31
				c0-1.88-0.42-3.33-1.26-4.36C98.33,31.07,97.13,30.56,95.57,30.56z"/>
			<path class="st0" d="M113.29,23.76c-0.47-0.27-1.01-0.4-1.6-0.4c-1.69,0-2.53,1.06-2.53,3.19v2.32h3.53v2.06h-3.53v13.01h-2.4
				V30.94h-2.57v-2.06h2.57v-2.44c0-1.58,0.46-2.83,1.37-3.74c0.91-0.92,2.05-1.38,3.41-1.38c0.74,0,1.32,0.09,1.75,0.26V23.76z"/>
			<path class="st0" d="M122.45,43.8c-0.57,0.31-1.32,0.47-2.25,0.47c-2.64,0-3.96-1.47-3.96-4.41v-8.92h-2.59v-2.06h2.59V25.2
				l2.41-0.78v4.46h3.8v2.06h-3.8v8.49c0,1.01,0.17,1.73,0.51,2.16s0.91,0.65,1.71,0.65c0.61,0,1.13-0.17,1.57-0.5V43.8z"/>
			<path class="st0" d="M34.56,65.1v7.97h-2.47v-21.1h5.8c2.26,0,4,0.55,5.25,1.65c1.24,1.1,1.86,2.65,1.86,4.65
				s-0.69,3.64-2.07,4.91c-1.38,1.28-3.24,1.91-5.58,1.91H34.56z M34.56,54.21v8.65h2.59c1.71,0,3.01-0.39,3.91-1.17
				s1.35-1.88,1.35-3.3c0-2.79-1.65-4.18-4.94-4.18H34.56z"/>
			<path class="st0" d="M58.09,73.07h-2.41v-2.35h-0.06c-1.05,1.8-2.59,2.71-4.63,2.71c-1.5,0-2.68-0.4-3.52-1.19
				c-0.85-0.79-1.27-1.85-1.27-3.16c0-2.81,1.66-4.45,4.97-4.91l4.52-0.63c0-2.56-1.03-3.84-3.1-3.84c-1.81,0-3.45,0.62-4.91,1.85
				v-2.47c1.48-0.94,3.19-1.41,5.12-1.41c3.54,0,5.31,1.87,5.31,5.62V73.07z M55.68,65.45l-3.63,0.5c-1.12,0.16-1.96,0.43-2.53,0.83
				c-0.57,0.4-0.85,1.1-0.85,2.11c0,0.74,0.26,1.34,0.79,1.8s1.22,0.7,2.1,0.7c1.2,0,2.19-0.42,2.96-1.26
				c0.78-0.84,1.17-1.9,1.17-3.19V65.45z"/>
			<path class="st0" d="M70.14,60.45c-0.42-0.32-1.03-0.49-1.82-0.49c-1.03,0-1.89,0.49-2.58,1.46c-0.69,0.97-1.04,2.3-1.04,3.97
				v7.68h-2.41V58.01h2.41v3.1h0.06c0.34-1.06,0.87-1.89,1.57-2.48c0.71-0.59,1.5-0.89,2.37-0.89c0.63,0,1.11,0.07,1.44,0.21V60.45z
				"/>
			<path class="st0" d="M80.25,72.93c-0.57,0.31-1.32,0.47-2.25,0.47c-2.64,0-3.96-1.47-3.96-4.41v-8.92h-2.59v-2.06h2.59v-3.68
				l2.41-0.78v4.46h3.8v2.06h-3.8v8.49c0,1.01,0.17,1.73,0.51,2.16s0.91,0.65,1.71,0.65c0.61,0,1.13-0.17,1.57-0.5V72.93z"/>
			<path class="st0" d="M95.62,73.07H93.2v-8.59c0-3.2-1.17-4.8-3.5-4.8c-1.21,0-2.2,0.45-2.99,1.36s-1.18,2.05-1.18,3.44v8.59
				h-2.41V58.01h2.41v2.5h0.06c1.14-1.9,2.79-2.85,4.94-2.85c1.65,0,2.91,0.53,3.78,1.6s1.31,2.6,1.31,4.61V73.07z"/>
			<path class="st0" d="M111.91,66.14h-10.64c0.04,1.68,0.49,2.97,1.35,3.88c0.86,0.91,2.05,1.37,3.56,1.37
				c1.7,0,3.26-0.56,4.68-1.68v2.27c-1.32,0.96-3.07,1.44-5.25,1.44c-2.13,0-3.8-0.68-5.02-2.05c-1.22-1.37-1.82-3.29-1.82-5.77
				c0-2.34,0.66-4.25,1.99-5.73c1.33-1.48,2.98-2.21,4.95-2.21s3.5,0.64,4.58,1.91s1.62,3.05,1.62,5.31V66.14z M109.44,64.1
				c-0.01-1.39-0.35-2.48-1.01-3.25c-0.66-0.77-1.58-1.16-2.76-1.16c-1.14,0-2.1,0.41-2.9,1.22c-0.79,0.81-1.29,1.88-1.47,3.19
				H109.44z"/>
			<path class="st0" d="M123.05,60.45c-0.42-0.32-1.03-0.49-1.82-0.49c-1.03,0-1.89,0.49-2.58,1.46c-0.69,0.97-1.04,2.3-1.04,3.97
				v7.68h-2.41V58.01h2.41v3.1h0.06c0.34-1.06,0.87-1.89,1.57-2.48c0.71-0.59,1.5-0.89,2.37-0.89c0.63,0,1.11,0.07,1.44,0.21V60.45z
				"/>
		</g>
		<rect x="136.33" y="2.39" class="st0" width="0.53" height="95.52"/>
		<g>
			<path class="st0" d="M160.38,16.91c-0.86,0.48-1.81,0.73-2.85,0.73c-1.22,0-2.2-0.39-2.95-1.18c-0.75-0.78-1.13-1.82-1.13-3.12
				c0-1.32,0.42-2.4,1.25-3.25s1.89-1.27,3.17-1.27c0.93,0,1.71,0.15,2.34,0.45v1.11c-0.69-0.44-1.51-0.65-2.45-0.65
				c-0.96,0-1.74,0.33-2.35,0.99c-0.61,0.66-0.92,1.51-0.92,2.56c0,1.08,0.28,1.93,0.85,2.54c0.57,0.62,1.34,0.92,2.31,0.92
				c0.67,0,1.24-0.13,1.73-0.4v-2.39h-1.87v-0.9h2.87V16.91z"/>
			<path class="st0" d="M164.63,17.64c-0.9,0-1.62-0.28-2.16-0.85c-0.54-0.57-0.81-1.32-0.81-2.26c0-1.02,0.28-1.82,0.84-2.4
				c0.56-0.58,1.31-0.86,2.27-0.86c0.91,0,1.62,0.28,2.13,0.84c0.51,0.56,0.76,1.33,0.76,2.33c0,0.97-0.27,1.75-0.82,2.33
				C166.29,17.35,165.56,17.64,164.63,17.64z M164.7,12.08c-0.63,0-1.12,0.21-1.49,0.64s-0.55,1.01-0.55,1.76
				c0,0.72,0.18,1.29,0.55,1.71c0.37,0.42,0.86,0.62,1.48,0.62c0.63,0,1.12-0.2,1.45-0.61c0.34-0.41,0.51-0.99,0.51-1.74
				c0-0.76-0.17-1.35-0.51-1.76C165.82,12.29,165.33,12.08,164.7,12.08z"/>
			<path class="st0" d="M170.05,17.5h-0.98V8.48h0.98V17.5z"/>
			<path class="st0" d="M177.08,17.5h-0.98v-1.04h-0.02c-0.45,0.79-1.15,1.18-2.09,1.18c-0.77,0-1.38-0.27-1.83-0.82
				c-0.46-0.54-0.69-1.29-0.69-2.23c0-1.01,0.25-1.81,0.76-2.42c0.51-0.61,1.18-0.91,2.03-0.91c0.84,0,1.45,0.33,1.83,0.99h0.02
				V8.48h0.98V17.5z M176.1,14.74v-0.9c0-0.49-0.16-0.91-0.49-1.25s-0.74-0.51-1.24-0.51c-0.59,0-1.06,0.22-1.4,0.65
				c-0.34,0.44-0.51,1.04-0.51,1.81c0,0.7,0.16,1.26,0.49,1.66c0.33,0.41,0.77,0.61,1.32,0.61c0.54,0,0.98-0.2,1.32-0.59
				C175.93,15.84,176.1,15.34,176.1,14.74z"/>
			<path class="st0" d="M188.03,17.14c-0.63,0.33-1.42,0.5-2.36,0.5c-1.21,0-2.19-0.39-2.91-1.17c-0.73-0.78-1.09-1.81-1.09-3.08
				c0-1.36,0.41-2.47,1.23-3.31c0.82-0.84,1.86-1.26,3.12-1.26c0.81,0,1.48,0.12,2.01,0.35v1.06c-0.61-0.34-1.28-0.51-2.02-0.51
				c-0.98,0-1.77,0.33-2.38,0.98c-0.61,0.65-0.91,1.53-0.91,2.62c0,1.04,0.28,1.87,0.85,2.48c0.57,0.62,1.32,0.92,2.24,0.92
				c0.86,0,1.6-0.19,2.22-0.57V17.14z"/>
			<path class="st0" d="M190.47,17.5h-0.98V8.48h0.98V17.5z"/>
			<path class="st0" d="M194.84,17.64c-0.9,0-1.62-0.28-2.16-0.85c-0.54-0.57-0.81-1.32-0.81-2.26c0-1.02,0.28-1.82,0.84-2.4
				c0.56-0.58,1.31-0.86,2.27-0.86c0.91,0,1.62,0.28,2.13,0.84c0.51,0.56,0.76,1.33,0.76,2.33c0,0.97-0.27,1.75-0.82,2.33
				C196.5,17.35,195.77,17.64,194.84,17.64z M194.92,12.08c-0.63,0-1.12,0.21-1.49,0.64s-0.55,1.01-0.55,1.76
				c0,0.72,0.18,1.29,0.55,1.71c0.37,0.42,0.86,0.62,1.48,0.62c0.63,0,1.12-0.2,1.45-0.61c0.34-0.41,0.51-0.99,0.51-1.74
				c0-0.76-0.17-1.35-0.51-1.76C196.03,12.29,195.55,12.08,194.92,12.08z"/>
			<path class="st0" d="M204.21,17.5h-0.98v-0.96h-0.02c-0.4,0.74-1.03,1.11-1.88,1.11c-1.45,0-2.18-0.86-2.18-2.59v-3.64h0.97v3.49
				c0,1.28,0.49,1.93,1.47,1.93c0.48,0,0.87-0.18,1.17-0.53c0.31-0.35,0.46-0.81,0.46-1.38v-3.51h0.98V17.5z"/>
			<path class="st0" d="M211.23,17.5h-0.98v-1.04h-0.02c-0.45,0.79-1.15,1.18-2.09,1.18c-0.77,0-1.38-0.27-1.83-0.82
				c-0.46-0.54-0.69-1.29-0.69-2.23c0-1.01,0.25-1.81,0.76-2.42s1.18-0.91,2.03-0.91c0.84,0,1.45,0.33,1.83,0.99h0.02V8.48h0.98
				V17.5z M210.26,14.74v-0.9c0-0.49-0.16-0.91-0.49-1.25s-0.74-0.51-1.24-0.51c-0.59,0-1.06,0.22-1.4,0.65
				c-0.34,0.44-0.51,1.04-0.51,1.81c0,0.7,0.16,1.26,0.49,1.66c0.33,0.41,0.77,0.61,1.32,0.61c0.54,0,0.98-0.2,1.32-0.59
				C210.09,15.84,210.26,15.34,210.26,14.74z"/>
			<path class="st0" d="M217.38,14.27v3.22h-1V8.97h2.34c0.91,0,1.62,0.22,2.12,0.67c0.5,0.44,0.75,1.07,0.75,1.88
				c0,0.81-0.28,1.47-0.83,1.99c-0.56,0.52-1.31,0.77-2.26,0.77H217.38z M217.38,9.87v3.5h1.05c0.69,0,1.22-0.16,1.58-0.47
				c0.36-0.32,0.54-0.76,0.54-1.34c0-1.13-0.67-1.69-2-1.69H217.38z"/>
			<path class="st0" d="M223.91,17.5h-0.98V8.48h0.98V17.5z"/>
			<path class="st0" d="M230.09,17.5h-0.97v-0.95h-0.02c-0.42,0.73-1.05,1.09-1.87,1.09c-0.61,0-1.08-0.16-1.42-0.48
				c-0.34-0.32-0.51-0.75-0.51-1.28c0-1.14,0.67-1.8,2.01-1.99l1.83-0.26c0-1.04-0.42-1.55-1.26-1.55c-0.73,0-1.4,0.25-1.99,0.75v-1
				c0.6-0.38,1.29-0.57,2.07-0.57c1.43,0,2.15,0.76,2.15,2.27V17.5z M229.12,14.41l-1.47,0.2c-0.45,0.06-0.79,0.18-1.02,0.34
				c-0.23,0.16-0.35,0.44-0.35,0.85c0,0.3,0.11,0.54,0.32,0.73s0.5,0.28,0.85,0.28c0.48,0,0.88-0.17,1.2-0.51
				c0.32-0.34,0.47-0.77,0.47-1.29V14.41z"/>
			<path class="st0" d="M234.61,17.44c-0.23,0.13-0.53,0.19-0.91,0.19c-1.07,0-1.6-0.59-1.6-1.78v-3.6h-1.05v-0.83h1.05V9.92
				l0.98-0.31v1.8h1.53v0.83h-1.53v3.43c0,0.41,0.07,0.7,0.21,0.87s0.37,0.26,0.69,0.26c0.25,0,0.46-0.07,0.64-0.2V17.44z"/>
			<path class="st0" d="M238.78,9.34c-0.19-0.11-0.41-0.16-0.65-0.16c-0.68,0-1.02,0.43-1.02,1.29v0.94h1.43v0.83h-1.43v5.26h-0.97
				v-5.26h-1.04v-0.83h1.04v-0.99c0-0.64,0.18-1.14,0.55-1.51c0.37-0.37,0.83-0.56,1.38-0.56c0.3,0,0.53,0.04,0.71,0.11V9.34z"/>
			<path class="st0" d="M241.98,17.64c-0.9,0-1.62-0.28-2.16-0.85c-0.54-0.57-0.81-1.32-0.81-2.26c0-1.02,0.28-1.82,0.84-2.4
				c0.56-0.58,1.31-0.86,2.27-0.86c0.91,0,1.62,0.28,2.13,0.84c0.51,0.56,0.76,1.33,0.76,2.33c0,0.97-0.27,1.75-0.82,2.33
				C243.64,17.35,242.9,17.64,241.98,17.64z M242.05,12.08c-0.63,0-1.12,0.21-1.49,0.64c-0.36,0.43-0.55,1.01-0.55,1.76
				c0,0.72,0.18,1.29,0.55,1.71c0.37,0.42,0.86,0.62,1.48,0.62c0.63,0,1.12-0.2,1.45-0.61c0.34-0.41,0.51-0.99,0.51-1.74
				c0-0.76-0.17-1.35-0.51-1.76C243.17,12.29,242.68,12.08,242.05,12.08z"/>
			<path class="st0" d="M249.6,12.39c-0.17-0.13-0.42-0.2-0.74-0.2c-0.42,0-0.76,0.2-1.04,0.59c-0.28,0.39-0.42,0.93-0.42,1.61v3.1
				h-0.98v-6.09h0.98v1.25h0.02c0.14-0.43,0.35-0.76,0.64-1c0.29-0.24,0.6-0.36,0.96-0.36c0.25,0,0.45,0.03,0.58,0.08V12.39z"/>
			<path class="st0" d="M259.14,17.5h-0.98V14c0-0.67-0.1-1.16-0.31-1.46s-0.56-0.45-1.05-0.45c-0.42,0-0.77,0.19-1.06,0.57
				c-0.29,0.38-0.44,0.84-0.44,1.37v3.47h-0.98v-3.62c0-1.2-0.46-1.8-1.39-1.8c-0.43,0-0.78,0.18-1.06,0.54s-0.42,0.83-0.42,1.4
				v3.47h-0.98v-6.09h0.98v0.96h0.02c0.43-0.74,1.06-1.11,1.89-1.11c0.42,0,0.78,0.12,1.09,0.35c0.31,0.23,0.52,0.54,0.64,0.91
				c0.45-0.84,1.13-1.26,2.02-1.26c1.34,0,2.01,0.83,2.01,2.48V17.5z"/>
			<path class="st0" d="M160.38,34.55c-0.86,0.48-1.81,0.73-2.85,0.73c-1.22,0-2.2-0.39-2.95-1.18c-0.75-0.78-1.13-1.82-1.13-3.12
				c0-1.32,0.42-2.4,1.25-3.25s1.89-1.27,3.17-1.27c0.93,0,1.71,0.15,2.34,0.45v1.11c-0.69-0.44-1.51-0.65-2.45-0.65
				c-0.96,0-1.74,0.33-2.35,0.99c-0.61,0.66-0.92,1.51-0.92,2.56c0,1.08,0.28,1.93,0.85,2.54c0.57,0.62,1.34,0.92,2.31,0.92
				c0.67,0,1.24-0.13,1.73-0.4v-2.39h-1.87v-0.9h2.87V34.55z"/>
			<path class="st0" d="M164.63,35.27c-0.9,0-1.62-0.28-2.16-0.85c-0.54-0.57-0.81-1.32-0.81-2.26c0-1.02,0.28-1.82,0.84-2.4
				c0.56-0.58,1.31-0.86,2.27-0.86c0.91,0,1.62,0.28,2.13,0.84c0.51,0.56,0.76,1.33,0.76,2.33c0,0.97-0.27,1.75-0.82,2.33
				C166.29,34.98,165.56,35.27,164.63,35.27z M164.7,29.72c-0.63,0-1.12,0.21-1.49,0.64s-0.55,1.01-0.55,1.76
				c0,0.72,0.18,1.29,0.55,1.71c0.37,0.42,0.86,0.62,1.48,0.62c0.63,0,1.12-0.2,1.45-0.61c0.34-0.41,0.51-0.99,0.51-1.74
				c0-0.76-0.17-1.35-0.51-1.76C165.82,29.93,165.33,29.72,164.7,29.72z"/>
			<path class="st0" d="M170.05,35.13h-0.98v-9.02h0.98V35.13z"/>
			<path class="st0" d="M177.08,35.13h-0.98V34.1h-0.02c-0.45,0.79-1.15,1.18-2.09,1.18c-0.77,0-1.38-0.27-1.83-0.82
				c-0.46-0.54-0.69-1.29-0.69-2.23c0-1.01,0.25-1.81,0.76-2.42c0.51-0.61,1.18-0.91,2.03-0.91c0.84,0,1.45,0.33,1.83,0.99h0.02
				v-3.77h0.98V35.13z M176.1,32.38v-0.9c0-0.49-0.16-0.91-0.49-1.25s-0.74-0.51-1.24-0.51c-0.59,0-1.06,0.22-1.4,0.65
				c-0.34,0.44-0.51,1.04-0.51,1.81c0,0.7,0.16,1.26,0.49,1.66c0.33,0.41,0.77,0.61,1.32,0.61c0.54,0,0.98-0.2,1.32-0.59
				S176.1,32.98,176.1,32.38z"/>
			<path class="st0" d="M188.03,34.77c-0.63,0.33-1.42,0.5-2.36,0.5c-1.21,0-2.19-0.39-2.91-1.17s-1.09-1.81-1.09-3.08
				c0-1.36,0.41-2.47,1.23-3.31c0.82-0.84,1.86-1.26,3.12-1.26c0.81,0,1.48,0.12,2.01,0.35v1.06c-0.61-0.34-1.28-0.51-2.02-0.51
				c-0.98,0-1.77,0.33-2.38,0.98c-0.61,0.65-0.91,1.53-0.91,2.62c0,1.04,0.28,1.87,0.85,2.48c0.57,0.62,1.32,0.92,2.24,0.92
				c0.86,0,1.6-0.19,2.22-0.57V34.77z"/>
			<path class="st0" d="M190.47,35.13h-0.98v-9.02h0.98V35.13z"/>
			<path class="st0" d="M194.84,35.27c-0.9,0-1.62-0.28-2.16-0.85c-0.54-0.57-0.81-1.32-0.81-2.26c0-1.02,0.28-1.82,0.84-2.4
				c0.56-0.58,1.31-0.86,2.27-0.86c0.91,0,1.62,0.28,2.13,0.84c0.51,0.56,0.76,1.33,0.76,2.33c0,0.97-0.27,1.75-0.82,2.33
				C196.5,34.98,195.77,35.27,194.84,35.27z M194.92,29.72c-0.63,0-1.12,0.21-1.49,0.64s-0.55,1.01-0.55,1.76
				c0,0.72,0.18,1.29,0.55,1.71c0.37,0.42,0.86,0.62,1.48,0.62c0.63,0,1.12-0.2,1.45-0.61c0.34-0.41,0.51-0.99,0.51-1.74
				c0-0.76-0.17-1.35-0.51-1.76C196.03,29.93,195.55,29.72,194.92,29.72z"/>
			<path class="st0" d="M204.21,35.13h-0.98v-0.96h-0.02c-0.4,0.74-1.03,1.11-1.88,1.11c-1.45,0-2.18-0.86-2.18-2.59v-3.64h0.97
				v3.49c0,1.28,0.49,1.93,1.47,1.93c0.48,0,0.87-0.18,1.17-0.53c0.31-0.35,0.46-0.81,0.46-1.38v-3.51h0.98V35.13z"/>
			<path class="st0" d="M211.23,35.13h-0.98V34.1h-0.02c-0.45,0.79-1.15,1.18-2.09,1.18c-0.77,0-1.38-0.27-1.83-0.82
				c-0.46-0.54-0.69-1.29-0.69-2.23c0-1.01,0.25-1.81,0.76-2.42s1.18-0.91,2.03-0.91c0.84,0,1.45,0.33,1.83,0.99h0.02v-3.77h0.98
				V35.13z M210.26,32.38v-0.9c0-0.49-0.16-0.91-0.49-1.25s-0.74-0.51-1.24-0.51c-0.59,0-1.06,0.22-1.4,0.65
				c-0.34,0.44-0.51,1.04-0.51,1.81c0,0.7,0.16,1.26,0.49,1.66c0.33,0.41,0.77,0.61,1.32,0.61c0.54,0,0.98-0.2,1.32-0.59
				C210.09,33.47,210.26,32.98,210.26,32.38z"/>
			<path class="st0" d="M217.38,31.91v3.22h-1V26.6h2.34c0.91,0,1.62,0.22,2.12,0.67c0.5,0.44,0.75,1.07,0.75,1.88
				c0,0.81-0.28,1.47-0.83,1.99c-0.56,0.52-1.31,0.77-2.26,0.77H217.38z M217.38,27.51V31h1.05c0.69,0,1.22-0.16,1.58-0.47
				c0.36-0.32,0.54-0.76,0.54-1.34c0-1.13-0.67-1.69-2-1.69H217.38z"/>
			<path class="st0" d="M226.11,30.03c-0.17-0.13-0.42-0.2-0.74-0.2c-0.42,0-0.76,0.2-1.04,0.59c-0.28,0.39-0.42,0.93-0.42,1.61v3.1
				h-0.98v-6.09h0.98v1.25h0.02c0.14-0.43,0.35-0.76,0.64-1c0.29-0.24,0.6-0.36,0.96-0.36c0.25,0,0.45,0.03,0.58,0.08V30.03z"/>
			<path class="st0" d="M229.4,35.27c-0.9,0-1.62-0.28-2.16-0.85c-0.54-0.57-0.81-1.32-0.81-2.26c0-1.02,0.28-1.82,0.84-2.4
				c0.56-0.58,1.31-0.86,2.27-0.86c0.91,0,1.62,0.28,2.13,0.84c0.51,0.56,0.76,1.33,0.76,2.33c0,0.97-0.27,1.75-0.82,2.33
				C231.06,34.98,230.33,35.27,229.4,35.27z M229.48,29.72c-0.63,0-1.12,0.21-1.49,0.64c-0.36,0.43-0.55,1.01-0.55,1.76
				c0,0.72,0.18,1.29,0.55,1.71c0.37,0.42,0.86,0.62,1.48,0.62c0.63,0,1.12-0.2,1.45-0.61c0.34-0.41,0.51-0.99,0.51-1.74
				c0-0.76-0.17-1.35-0.51-1.76C230.59,29.93,230.1,29.72,229.48,29.72z"/>
			<path class="st0" d="M239.05,35.13h-0.98V34.1h-0.02c-0.45,0.79-1.15,1.18-2.09,1.18c-0.77,0-1.38-0.27-1.83-0.82
				c-0.46-0.54-0.69-1.29-0.69-2.23c0-1.01,0.25-1.81,0.76-2.42s1.18-0.91,2.03-0.91c0.84,0,1.45,0.33,1.83,0.99h0.02v-3.77h0.98
				V35.13z M238.07,32.38v-0.9c0-0.49-0.16-0.91-0.49-1.25s-0.74-0.51-1.24-0.51c-0.59,0-1.06,0.22-1.4,0.65
				c-0.34,0.44-0.51,1.04-0.51,1.81c0,0.7,0.16,1.26,0.49,1.66c0.33,0.41,0.77,0.61,1.32,0.61c0.54,0,0.98-0.2,1.32-0.59
				C237.9,33.47,238.07,32.98,238.07,32.38z"/>
			<path class="st0" d="M245.8,35.13h-0.98v-0.96h-0.02c-0.4,0.74-1.03,1.11-1.88,1.11c-1.45,0-2.18-0.86-2.18-2.59v-3.64h0.97v3.49
				c0,1.28,0.49,1.93,1.47,1.93c0.48,0,0.87-0.18,1.17-0.53c0.31-0.35,0.46-0.81,0.46-1.38v-3.51h0.98V35.13z"/>
			<path class="st0" d="M251.77,34.85c-0.47,0.28-1.02,0.42-1.67,0.42c-0.87,0-1.57-0.28-2.1-0.85c-0.53-0.57-0.8-1.3-0.8-2.2
				c0-1,0.29-1.81,0.86-2.42c0.58-0.61,1.34-0.91,2.3-0.91c0.54,0,1.01,0.1,1.42,0.3v1c-0.45-0.32-0.94-0.48-1.45-0.48
				c-0.62,0-1.13,0.22-1.53,0.67c-0.4,0.45-0.6,1.03-0.6,1.76c0,0.71,0.19,1.28,0.56,1.69c0.38,0.41,0.88,0.62,1.51,0.62
				c0.53,0,1.03-0.18,1.5-0.53V34.85z"/>
			<path class="st0" d="M255.93,35.07c-0.23,0.13-0.53,0.19-0.91,0.19c-1.07,0-1.6-0.59-1.6-1.78v-3.6h-1.05v-0.83h1.05v-1.49
				l0.98-0.31v1.8h1.53v0.83h-1.53v3.43c0,0.41,0.07,0.7,0.21,0.87s0.37,0.26,0.69,0.26c0.25,0,0.46-0.07,0.64-0.2V35.07z"/>
			<path class="st0" d="M257.59,27.5c-0.17,0-0.32-0.06-0.45-0.18s-0.18-0.27-0.18-0.45c0-0.18,0.06-0.33,0.18-0.45
				c0.12-0.12,0.27-0.18,0.45-0.18c0.18,0,0.33,0.06,0.46,0.18c0.12,0.12,0.19,0.27,0.19,0.45c0,0.17-0.06,0.32-0.19,0.45
				C257.92,27.43,257.76,27.5,257.59,27.5z M258.06,35.13h-0.98v-6.09h0.98V35.13z"/>
			<path class="st0" d="M264.68,29.04l-2.43,6.09h-0.96l-2.31-6.09h1.07l1.55,4.42c0.12,0.33,0.19,0.61,0.21,0.85h0.02
				c0.04-0.31,0.1-0.58,0.19-0.83l1.62-4.45H264.68z"/>
			<path class="st0" d="M266.08,27.5c-0.17,0-0.32-0.06-0.45-0.18s-0.18-0.27-0.18-0.45c0-0.18,0.06-0.33,0.18-0.45
				c0.12-0.12,0.27-0.18,0.45-0.18c0.18,0,0.33,0.06,0.46,0.18c0.12,0.12,0.19,0.27,0.19,0.45c0,0.17-0.06,0.32-0.19,0.45
				C266.41,27.43,266.26,27.5,266.08,27.5z M266.55,35.13h-0.98v-6.09h0.98V35.13z"/>
			<path class="st0" d="M271.21,35.07c-0.23,0.13-0.53,0.19-0.91,0.19c-1.07,0-1.6-0.59-1.6-1.78v-3.6h-1.05v-0.83h1.05v-1.49
				l0.98-0.31v1.8h1.53v0.83h-1.53v3.43c0,0.41,0.07,0.7,0.21,0.87s0.37,0.26,0.69,0.26c0.25,0,0.46-0.07,0.64-0.2V35.07z"/>
			<path class="st0" d="M277.21,29.04l-2.8,7.07c-0.5,1.26-1.2,1.89-2.11,1.89c-0.25,0-0.47-0.03-0.64-0.08v-0.87
				c0.21,0.07,0.4,0.11,0.58,0.11c0.49,0,0.86-0.29,1.11-0.88l0.49-1.15l-2.38-6.08h1.08l1.65,4.69c0.02,0.06,0.06,0.21,0.12,0.46
				h0.04c0.02-0.1,0.06-0.25,0.12-0.45l1.73-4.7H277.21z"/>
			<path class="st0" d="M160.38,52.18c-0.86,0.48-1.81,0.73-2.85,0.73c-1.22,0-2.2-0.39-2.95-1.18c-0.75-0.78-1.13-1.82-1.13-3.12
				c0-1.32,0.42-2.4,1.25-3.25s1.89-1.27,3.17-1.27c0.93,0,1.71,0.15,2.34,0.45v1.11c-0.69-0.44-1.51-0.65-2.45-0.65
				c-0.96,0-1.74,0.33-2.35,0.99c-0.61,0.66-0.92,1.51-0.92,2.56c0,1.08,0.28,1.93,0.85,2.54c0.57,0.62,1.34,0.92,2.31,0.92
				c0.67,0,1.24-0.13,1.73-0.4v-2.39h-1.87v-0.9h2.87V52.18z"/>
			<path class="st0" d="M164.63,52.91c-0.9,0-1.62-0.28-2.16-0.85c-0.54-0.57-0.81-1.32-0.81-2.26c0-1.02,0.28-1.82,0.84-2.4
				c0.56-0.58,1.31-0.86,2.27-0.86c0.91,0,1.62,0.28,2.13,0.84c0.51,0.56,0.76,1.33,0.76,2.33c0,0.97-0.27,1.75-0.82,2.33
				C166.29,52.62,165.56,52.91,164.63,52.91z M164.7,47.36c-0.63,0-1.12,0.21-1.49,0.64s-0.55,1.01-0.55,1.76
				c0,0.72,0.18,1.29,0.55,1.71c0.37,0.42,0.86,0.62,1.48,0.62c0.63,0,1.12-0.2,1.45-0.61c0.34-0.41,0.51-0.99,0.51-1.74
				c0-0.76-0.17-1.35-0.51-1.76C165.82,47.56,165.33,47.36,164.7,47.36z"/>
			<path class="st0" d="M170.05,52.77h-0.98v-9.02h0.98V52.77z"/>
			<path class="st0" d="M177.08,52.77h-0.98v-1.04h-0.02c-0.45,0.79-1.15,1.18-2.09,1.18c-0.77,0-1.38-0.27-1.83-0.82
				c-0.46-0.54-0.69-1.29-0.69-2.23c0-1.01,0.25-1.81,0.76-2.42c0.51-0.61,1.18-0.91,2.03-0.91c0.84,0,1.45,0.33,1.83,0.99h0.02
				v-3.77h0.98V52.77z M176.1,50.01v-0.9c0-0.49-0.16-0.91-0.49-1.25s-0.74-0.51-1.24-0.51c-0.59,0-1.06,0.22-1.4,0.65
				c-0.34,0.44-0.51,1.04-0.51,1.81c0,0.7,0.16,1.26,0.49,1.66c0.33,0.41,0.77,0.61,1.32,0.61c0.54,0,0.98-0.2,1.32-0.59
				S176.1,50.61,176.1,50.01z"/>
			<path class="st0" d="M181.83,52.42v-1.18c0.13,0.12,0.3,0.23,0.48,0.32c0.19,0.1,0.39,0.18,0.59,0.24
				c0.21,0.07,0.42,0.12,0.63,0.15c0.21,0.04,0.4,0.05,0.58,0.05c0.61,0,1.07-0.11,1.38-0.34c0.3-0.23,0.45-0.56,0.45-0.98
				c0-0.23-0.05-0.43-0.15-0.6c-0.1-0.17-0.24-0.33-0.42-0.47s-0.39-0.28-0.63-0.4c-0.24-0.13-0.51-0.26-0.79-0.41
				c-0.3-0.15-0.58-0.3-0.83-0.46c-0.26-0.15-0.48-0.32-0.67-0.51s-0.34-0.4-0.45-0.63c-0.11-0.24-0.16-0.51-0.16-0.83
				c0-0.39,0.09-0.73,0.26-1.01c0.17-0.29,0.39-0.52,0.67-0.71c0.28-0.19,0.59-0.33,0.95-0.42c0.35-0.09,0.72-0.14,1.09-0.14
				c0.84,0,1.45,0.1,1.84,0.3v1.12c-0.5-0.35-1.15-0.52-1.94-0.52c-0.22,0-0.44,0.02-0.65,0.07c-0.22,0.05-0.41,0.12-0.58,0.22
				c-0.17,0.1-0.31,0.24-0.42,0.4s-0.16,0.36-0.16,0.59c0,0.22,0.04,0.41,0.12,0.56c0.08,0.16,0.2,0.3,0.36,0.43
				c0.16,0.13,0.35,0.26,0.58,0.38c0.23,0.12,0.49,0.26,0.79,0.4c0.31,0.15,0.6,0.31,0.87,0.48c0.27,0.17,0.51,0.35,0.72,0.55
				c0.21,0.2,0.37,0.43,0.49,0.67c0.12,0.25,0.18,0.53,0.18,0.84c0,0.42-0.08,0.78-0.25,1.07s-0.39,0.53-0.67,0.71
				c-0.28,0.18-0.6,0.31-0.97,0.4c-0.36,0.08-0.75,0.12-1.15,0.12c-0.13,0-0.3-0.01-0.5-0.03c-0.2-0.02-0.4-0.05-0.61-0.1
				c-0.21-0.04-0.4-0.09-0.59-0.15C182.09,52.57,181.94,52.5,181.83,52.42z"/>
			<path class="st0" d="M197.07,52.77h-0.98v-3.5c0-0.67-0.1-1.16-0.31-1.46c-0.21-0.3-0.56-0.45-1.05-0.45
				c-0.42,0-0.77,0.19-1.06,0.57c-0.29,0.38-0.44,0.84-0.44,1.37v3.47h-0.98v-3.62c0-1.2-0.46-1.8-1.39-1.8
				c-0.43,0-0.78,0.18-1.06,0.54c-0.28,0.36-0.42,0.83-0.42,1.4v3.47h-0.98v-6.09h0.98v0.96h0.02c0.43-0.74,1.06-1.11,1.89-1.11
				c0.42,0,0.78,0.12,1.09,0.35c0.31,0.23,0.52,0.54,0.64,0.91c0.45-0.84,1.13-1.26,2.02-1.26c1.34,0,2.01,0.83,2.01,2.48V52.77z"/>
			<path class="st0" d="M203.13,52.77h-0.97v-0.95h-0.02c-0.42,0.73-1.05,1.09-1.87,1.09c-0.61,0-1.08-0.16-1.42-0.48
				c-0.34-0.32-0.51-0.75-0.51-1.28c0-1.14,0.67-1.8,2.01-1.99l1.83-0.26c0-1.04-0.42-1.55-1.26-1.55c-0.73,0-1.4,0.25-1.99,0.75v-1
				c0.6-0.38,1.29-0.57,2.07-0.57c1.43,0,2.15,0.76,2.15,2.27V52.77z M202.15,49.69l-1.47,0.2c-0.45,0.06-0.79,0.18-1.02,0.34
				c-0.23,0.16-0.35,0.44-0.35,0.85c0,0.3,0.11,0.54,0.32,0.73s0.5,0.28,0.85,0.28c0.48,0,0.88-0.17,1.2-0.51
				c0.32-0.34,0.47-0.77,0.47-1.29V49.69z"/>
			<path class="st0" d="M205.8,52.77h-0.98v-9.02h0.98V52.77z"/>
			<path class="st0" d="M208.6,52.77h-0.98v-9.02h0.98V52.77z"/>
			<path class="st0" d="M217.98,52.77H217v-0.95h-0.02c-0.42,0.73-1.05,1.09-1.87,1.09c-0.61,0-1.08-0.16-1.42-0.48
				c-0.34-0.32-0.51-0.75-0.51-1.28c0-1.14,0.67-1.8,2.01-1.99l1.83-0.26c0-1.04-0.42-1.55-1.26-1.55c-0.73,0-1.4,0.25-1.99,0.75v-1
				c0.6-0.38,1.29-0.57,2.07-0.57c1.43,0,2.15,0.76,2.15,2.27V52.77z M217,49.69l-1.47,0.2c-0.45,0.06-0.79,0.18-1.02,0.34
				c-0.23,0.16-0.35,0.44-0.35,0.85c0,0.3,0.11,0.54,0.32,0.73s0.5,0.28,0.85,0.28c0.48,0,0.88-0.17,1.2-0.51
				c0.32-0.34,0.47-0.77,0.47-1.29V49.69z"/>
			<path class="st0" d="M224.73,52.77h-0.98v-3.47c0-1.29-0.47-1.94-1.42-1.94c-0.49,0-0.89,0.18-1.21,0.55s-0.48,0.83-0.48,1.39
				v3.47h-0.98v-6.09h0.98v1.01h0.02c0.46-0.77,1.13-1.15,2-1.15c0.67,0,1.17,0.22,1.53,0.65c0.35,0.43,0.53,1.05,0.53,1.86V52.77z"
				/>
			<path class="st0" d="M231.62,52.77h-0.98v-1.04h-0.02c-0.45,0.79-1.15,1.18-2.09,1.18c-0.77,0-1.38-0.27-1.83-0.82
				c-0.46-0.54-0.69-1.29-0.69-2.23c0-1.01,0.25-1.81,0.76-2.42s1.18-0.91,2.03-0.91c0.84,0,1.45,0.33,1.83,0.99h0.02v-3.77h0.98
				V52.77z M230.64,50.01v-0.9c0-0.49-0.16-0.91-0.49-1.25s-0.74-0.51-1.24-0.51c-0.59,0-1.06,0.22-1.4,0.65
				c-0.34,0.44-0.51,1.04-0.51,1.81c0,0.7,0.16,1.26,0.49,1.66c0.33,0.41,0.77,0.61,1.32,0.61c0.54,0,0.98-0.2,1.32-0.59
				C230.47,51.11,230.64,50.61,230.64,50.01z"/>
			<path class="st0" d="M245.46,52.77h-0.99v-5.72c0-0.45,0.03-1.01,0.08-1.66h-0.02c-0.09,0.38-0.18,0.66-0.26,0.83l-2.91,6.55
				h-0.49l-2.91-6.51c-0.08-0.19-0.17-0.48-0.26-0.87h-0.02c0.03,0.34,0.05,0.9,0.05,1.67v5.71h-0.96v-8.53h1.32l2.62,5.95
				c0.2,0.46,0.33,0.8,0.39,1.02h0.04c0.17-0.47,0.31-0.82,0.41-1.05l2.67-5.92h1.25V52.77z"/>
			<path class="st0" d="M247.93,45.13c-0.17,0-0.32-0.06-0.45-0.18s-0.18-0.27-0.18-0.45c0-0.18,0.06-0.33,0.18-0.45
				c0.12-0.12,0.27-0.18,0.45-0.18c0.18,0,0.33,0.06,0.46,0.18c0.12,0.12,0.19,0.27,0.19,0.45c0,0.17-0.06,0.32-0.19,0.45
				C248.26,45.07,248.1,45.13,247.93,45.13z M248.4,52.77h-0.98v-6.09h0.98V52.77z"/>
			<path class="st0" d="M255.43,52.77h-0.98v-1.04h-0.02c-0.45,0.79-1.15,1.18-2.09,1.18c-0.77,0-1.38-0.27-1.83-0.82
				c-0.46-0.54-0.69-1.29-0.69-2.23c0-1.01,0.25-1.81,0.76-2.42s1.18-0.91,2.03-0.91c0.84,0,1.45,0.33,1.83,0.99h0.02v-3.77h0.98
				V52.77z M254.45,50.01v-0.9c0-0.49-0.16-0.91-0.49-1.25s-0.74-0.51-1.24-0.51c-0.59,0-1.06,0.22-1.4,0.65
				c-0.34,0.44-0.51,1.04-0.51,1.81c0,0.7,0.16,1.26,0.49,1.66c0.33,0.41,0.77,0.61,1.32,0.61c0.54,0,0.98-0.2,1.32-0.59
				C254.28,51.11,254.45,50.61,254.45,50.01z"/>
			<path class="st0" d="M265.91,52.77h-0.98v-3.5c0-0.67-0.1-1.16-0.31-1.46s-0.56-0.45-1.05-0.45c-0.42,0-0.77,0.19-1.06,0.57
				c-0.29,0.38-0.44,0.84-0.44,1.37v3.47h-0.98v-3.62c0-1.2-0.46-1.8-1.39-1.8c-0.43,0-0.78,0.18-1.06,0.54s-0.42,0.83-0.42,1.4
				v3.47h-0.98v-6.09h0.98v0.96h0.02c0.43-0.74,1.06-1.11,1.89-1.11c0.42,0,0.78,0.12,1.09,0.35c0.31,0.23,0.52,0.54,0.64,0.91
				c0.45-0.84,1.13-1.26,2.02-1.26c1.34,0,2.01,0.83,2.01,2.48V52.77z"/>
			<path class="st0" d="M271.96,52.77h-0.97v-0.95h-0.02c-0.42,0.73-1.05,1.09-1.87,1.09c-0.61,0-1.08-0.16-1.42-0.48
				c-0.34-0.32-0.51-0.75-0.51-1.28c0-1.14,0.67-1.8,2.01-1.99l1.83-0.26c0-1.04-0.42-1.55-1.26-1.55c-0.73,0-1.4,0.25-1.99,0.75v-1
				c0.6-0.38,1.29-0.57,2.07-0.57c1.43,0,2.15,0.76,2.15,2.27V52.77z M270.99,49.69l-1.47,0.2c-0.45,0.06-0.79,0.18-1.02,0.34
				c-0.23,0.16-0.35,0.44-0.35,0.85c0,0.3,0.11,0.54,0.32,0.73s0.5,0.28,0.85,0.28c0.48,0,0.88-0.17,1.2-0.51
				c0.32-0.34,0.47-0.77,0.47-1.29V49.69z"/>
			<path class="st0" d="M276.83,47.66c-0.17-0.13-0.42-0.2-0.74-0.2c-0.42,0-0.76,0.2-1.04,0.59c-0.28,0.39-0.42,0.93-0.42,1.61v3.1
				h-0.98v-6.09h0.98v1.25h0.02c0.14-0.43,0.35-0.76,0.64-1c0.29-0.24,0.6-0.36,0.96-0.36c0.25,0,0.45,0.03,0.58,0.08V47.66z"/>
			<path class="st0" d="M282.8,52.77h-1.37l-2.69-2.93h-0.02v2.93h-0.98v-9.02h0.98v5.72h0.02l2.56-2.79h1.28l-2.83,2.94
				L282.8,52.77z"/>
			<path class="st0" d="M288.3,49.97H284c0.02,0.68,0.2,1.2,0.55,1.57c0.35,0.37,0.83,0.55,1.44,0.55c0.69,0,1.32-0.23,1.89-0.68
				v0.92c-0.54,0.39-1.24,0.58-2.12,0.58c-0.86,0-1.54-0.28-2.03-0.83c-0.49-0.55-0.74-1.33-0.74-2.33c0-0.95,0.27-1.72,0.81-2.32
				c0.54-0.6,1.2-0.9,2-0.9c0.8,0,1.41,0.26,1.85,0.77c0.44,0.52,0.65,1.23,0.65,2.15V49.97z M287.3,49.14c0-0.56-0.14-1-0.41-1.31
				c-0.27-0.31-0.64-0.47-1.12-0.47c-0.46,0-0.85,0.16-1.17,0.49s-0.52,0.76-0.59,1.29H287.3z"/>
			<path class="st0" d="M292.46,52.71c-0.23,0.13-0.53,0.19-0.91,0.19c-1.07,0-1.6-0.59-1.6-1.78v-3.6h-1.05v-0.83h1.05v-1.49
				l0.98-0.31v1.8h1.53v0.83h-1.53v3.43c0,0.41,0.07,0.7,0.21,0.87s0.37,0.26,0.69,0.26c0.25,0,0.46-0.07,0.64-0.2V52.71z"/>
			<path class="st0" d="M302.74,52.41c-0.63,0.33-1.42,0.5-2.35,0.5c-1.21,0-2.19-0.39-2.92-1.17s-1.09-1.81-1.09-3.08
				c0-1.36,0.41-2.47,1.23-3.31c0.82-0.84,1.86-1.26,3.12-1.26c0.81,0,1.48,0.12,2.01,0.35v1.06c-0.61-0.34-1.28-0.51-2.02-0.51
				c-0.98,0-1.77,0.33-2.38,0.98c-0.61,0.65-0.91,1.53-0.91,2.62c0,1.04,0.29,1.87,0.85,2.48c0.57,0.62,1.32,0.92,2.24,0.92
				c0.86,0,1.6-0.19,2.22-0.57V52.41z"/>
			<path class="st0" d="M305.18,52.77h-0.98v-9.02h0.98V52.77z"/>
			<path class="st0" d="M309.55,52.91c-0.9,0-1.62-0.28-2.16-0.85c-0.54-0.57-0.81-1.32-0.81-2.26c0-1.02,0.28-1.82,0.84-2.4
				c0.56-0.58,1.31-0.86,2.27-0.86c0.91,0,1.62,0.28,2.13,0.84c0.51,0.56,0.76,1.33,0.76,2.33c0,0.97-0.27,1.75-0.82,2.33
				C311.21,52.62,310.47,52.91,309.55,52.91z M309.62,47.36c-0.63,0-1.12,0.21-1.49,0.64c-0.36,0.43-0.55,1.01-0.55,1.76
				c0,0.72,0.18,1.29,0.55,1.71c0.37,0.42,0.86,0.62,1.48,0.62c0.63,0,1.12-0.2,1.45-0.61c0.34-0.41,0.51-0.99,0.51-1.74
				c0-0.76-0.17-1.35-0.51-1.76C310.74,47.56,310.25,47.36,309.62,47.36z"/>
			<path class="st0" d="M318.92,52.77h-0.98V51.8h-0.02c-0.4,0.74-1.03,1.11-1.88,1.11c-1.45,0-2.18-0.86-2.18-2.59v-3.64h0.97v3.49
				c0,1.28,0.49,1.93,1.47,1.93c0.48,0,0.87-0.18,1.17-0.53c0.31-0.35,0.46-0.81,0.46-1.38v-3.51h0.98V52.77z"/>
			<path class="st0" d="M325.94,52.77h-0.98v-1.04h-0.02c-0.45,0.79-1.15,1.18-2.09,1.18c-0.77,0-1.38-0.27-1.83-0.82
				c-0.46-0.54-0.69-1.29-0.69-2.23c0-1.01,0.25-1.81,0.76-2.42s1.18-0.91,2.03-0.91c0.84,0,1.45,0.33,1.83,0.99h0.02v-3.77h0.98
				V52.77z M324.97,50.01v-0.9c0-0.49-0.16-0.91-0.49-1.25s-0.74-0.51-1.24-0.51c-0.59,0-1.06,0.22-1.4,0.65
				c-0.34,0.44-0.51,1.04-0.51,1.81c0,0.7,0.16,1.26,0.49,1.66c0.33,0.41,0.77,0.61,1.32,0.61c0.54,0,0.98-0.2,1.32-0.59
				C324.8,51.11,324.97,50.61,324.97,50.01z"/>
			<path class="st0" d="M330.69,52.42v-1.18c0.13,0.12,0.3,0.23,0.48,0.32c0.19,0.1,0.39,0.18,0.59,0.24
				c0.21,0.07,0.42,0.12,0.63,0.15s0.4,0.05,0.58,0.05c0.61,0,1.07-0.11,1.38-0.34c0.3-0.23,0.46-0.56,0.46-0.98
				c0-0.23-0.05-0.43-0.15-0.6c-0.1-0.17-0.24-0.33-0.42-0.47s-0.39-0.28-0.63-0.4c-0.24-0.13-0.51-0.26-0.79-0.41
				c-0.3-0.15-0.57-0.3-0.83-0.46c-0.26-0.15-0.48-0.32-0.67-0.51c-0.19-0.19-0.34-0.4-0.45-0.63c-0.11-0.24-0.16-0.51-0.16-0.83
				c0-0.39,0.08-0.73,0.26-1.01c0.17-0.29,0.39-0.52,0.67-0.71s0.59-0.33,0.95-0.42c0.35-0.09,0.72-0.14,1.08-0.14
				c0.84,0,1.45,0.1,1.84,0.3v1.12c-0.5-0.35-1.15-0.52-1.94-0.52c-0.22,0-0.44,0.02-0.65,0.07c-0.22,0.05-0.41,0.12-0.58,0.22
				c-0.17,0.1-0.31,0.24-0.42,0.4c-0.11,0.16-0.16,0.36-0.16,0.59c0,0.22,0.04,0.41,0.12,0.56s0.2,0.3,0.36,0.43
				c0.16,0.13,0.35,0.26,0.58,0.38c0.23,0.12,0.49,0.26,0.79,0.4c0.31,0.15,0.59,0.31,0.87,0.48c0.27,0.17,0.51,0.35,0.72,0.55
				s0.37,0.43,0.49,0.67c0.12,0.25,0.18,0.53,0.18,0.84c0,0.42-0.08,0.78-0.25,1.07c-0.17,0.29-0.39,0.53-0.67,0.71
				c-0.28,0.18-0.6,0.31-0.97,0.4c-0.37,0.08-0.75,0.12-1.15,0.12c-0.13,0-0.3-0.01-0.5-0.03c-0.2-0.02-0.4-0.05-0.61-0.1
				c-0.21-0.04-0.4-0.09-0.59-0.15S330.8,52.5,330.69,52.42z"/>
			<path class="st0" d="M339.83,52.91c-0.9,0-1.62-0.28-2.16-0.85c-0.54-0.57-0.81-1.32-0.81-2.26c0-1.02,0.28-1.82,0.84-2.4
				c0.56-0.58,1.31-0.86,2.27-0.86c0.91,0,1.62,0.28,2.13,0.84c0.51,0.56,0.76,1.33,0.76,2.33c0,0.97-0.27,1.75-0.82,2.33
				C341.49,52.62,340.75,52.91,339.83,52.91z M339.9,47.36c-0.63,0-1.12,0.21-1.49,0.64c-0.36,0.43-0.55,1.01-0.55,1.76
				c0,0.72,0.18,1.29,0.55,1.71c0.37,0.42,0.86,0.62,1.48,0.62c0.63,0,1.12-0.2,1.45-0.61c0.34-0.41,0.51-0.99,0.51-1.74
				c0-0.76-0.17-1.35-0.51-1.76C341.02,47.56,340.53,47.36,339.9,47.36z"/>
			<path class="st0" d="M345.25,52.77h-0.98v-9.02h0.98V52.77z"/>
			<path class="st0" d="M352,52.77h-0.98V51.8h-0.02c-0.4,0.74-1.03,1.11-1.88,1.11c-1.45,0-2.18-0.86-2.18-2.59v-3.64h0.97v3.49
				c0,1.28,0.49,1.93,1.47,1.93c0.48,0,0.87-0.18,1.17-0.53c0.31-0.35,0.46-0.81,0.46-1.38v-3.51H352V52.77z"/>
			<path class="st0" d="M356.65,52.71c-0.23,0.13-0.53,0.19-0.91,0.19c-1.07,0-1.6-0.59-1.6-1.78v-3.6h-1.05v-0.83h1.05v-1.49
				l0.98-0.31v1.8h1.53v0.83h-1.53v3.43c0,0.41,0.07,0.7,0.21,0.87s0.37,0.26,0.69,0.26c0.25,0,0.46-0.07,0.64-0.2V52.71z"/>
			<path class="st0" d="M358.31,45.13c-0.17,0-0.32-0.06-0.45-0.18s-0.18-0.27-0.18-0.45c0-0.18,0.06-0.33,0.18-0.45
				c0.12-0.12,0.27-0.18,0.45-0.18c0.18,0,0.33,0.06,0.46,0.18c0.12,0.12,0.19,0.27,0.19,0.45c0,0.17-0.06,0.32-0.19,0.45
				C358.64,45.07,358.49,45.13,358.31,45.13z M358.78,52.77h-0.98v-6.09h0.98V52.77z"/>
			<path class="st0" d="M363.16,52.91c-0.9,0-1.62-0.28-2.16-0.85c-0.54-0.57-0.81-1.32-0.81-2.26c0-1.02,0.28-1.82,0.84-2.4
				c0.56-0.58,1.31-0.86,2.27-0.86c0.91,0,1.62,0.28,2.13,0.84c0.51,0.56,0.76,1.33,0.76,2.33c0,0.97-0.27,1.75-0.82,2.33
				C364.82,52.62,364.08,52.91,363.16,52.91z M363.23,47.36c-0.63,0-1.12,0.21-1.49,0.64c-0.36,0.43-0.55,1.01-0.55,1.76
				c0,0.72,0.18,1.29,0.55,1.71c0.37,0.42,0.86,0.62,1.48,0.62c0.63,0,1.12-0.2,1.45-0.61c0.34-0.41,0.51-0.99,0.51-1.74
				c0-0.76-0.17-1.35-0.51-1.76C364.35,47.56,363.86,47.36,363.23,47.36z"/>
			<path class="st0" d="M372.66,52.77h-0.98v-3.47c0-1.29-0.47-1.94-1.42-1.94c-0.49,0-0.89,0.18-1.21,0.55
				c-0.32,0.37-0.48,0.83-0.48,1.39v3.47h-0.98v-6.09h0.98v1.01h0.02c0.46-0.77,1.13-1.15,2-1.15c0.67,0,1.17,0.22,1.53,0.65
				c0.35,0.43,0.53,1.05,0.53,1.86V52.77z"/>
			<path class="st0" d="M373.98,52.55V51.5c0.53,0.39,1.12,0.59,1.75,0.59c0.86,0,1.29-0.29,1.29-0.86c0-0.16-0.04-0.3-0.11-0.41
				c-0.07-0.11-0.17-0.21-0.3-0.3c-0.12-0.09-0.27-0.17-0.44-0.24c-0.17-0.07-0.35-0.14-0.54-0.22c-0.27-0.11-0.51-0.22-0.71-0.32
				c-0.21-0.11-0.38-0.23-0.51-0.37s-0.24-0.29-0.31-0.47c-0.07-0.17-0.1-0.38-0.1-0.61c0-0.29,0.07-0.54,0.2-0.76
				c0.13-0.22,0.3-0.4,0.52-0.55c0.22-0.15,0.47-0.26,0.75-0.34s0.57-0.11,0.87-0.11c0.53,0,1,0.09,1.42,0.27v0.99
				c-0.45-0.29-0.96-0.44-1.55-0.44c-0.18,0-0.35,0.02-0.49,0.06c-0.15,0.04-0.27,0.1-0.38,0.18c-0.11,0.08-0.19,0.17-0.24,0.27
				s-0.09,0.22-0.09,0.35c0,0.16,0.03,0.29,0.09,0.4c0.06,0.11,0.14,0.2,0.25,0.29c0.11,0.08,0.25,0.16,0.4,0.23
				s0.34,0.14,0.54,0.22c0.27,0.1,0.51,0.21,0.73,0.32c0.21,0.11,0.4,0.23,0.55,0.37c0.15,0.14,0.27,0.29,0.35,0.47
				s0.12,0.39,0.12,0.64c0,0.3-0.07,0.56-0.2,0.79c-0.13,0.22-0.31,0.41-0.53,0.55c-0.22,0.15-0.48,0.26-0.77,0.33
				s-0.59,0.11-0.91,0.11C374.99,52.91,374.44,52.79,373.98,52.55z"/>
			<path class="st0" d="M153.61,70.06v-1.18c0.13,0.12,0.3,0.23,0.48,0.32c0.19,0.1,0.39,0.18,0.59,0.24
				c0.21,0.07,0.42,0.12,0.63,0.15c0.21,0.04,0.4,0.05,0.58,0.05c0.61,0,1.07-0.11,1.38-0.34c0.3-0.23,0.45-0.56,0.45-0.98
				c0-0.23-0.05-0.43-0.15-0.6c-0.1-0.17-0.24-0.33-0.42-0.47s-0.39-0.28-0.63-0.4c-0.24-0.13-0.51-0.26-0.79-0.41
				c-0.3-0.15-0.58-0.3-0.83-0.46c-0.26-0.15-0.48-0.32-0.67-0.51s-0.34-0.4-0.45-0.63c-0.11-0.24-0.16-0.51-0.16-0.83
				c0-0.39,0.09-0.73,0.26-1.01c0.17-0.29,0.39-0.52,0.67-0.71c0.28-0.19,0.59-0.33,0.95-0.42c0.35-0.09,0.72-0.14,1.09-0.14
				c0.84,0,1.45,0.1,1.84,0.3v1.12c-0.5-0.35-1.15-0.52-1.94-0.52c-0.22,0-0.44,0.02-0.65,0.07c-0.22,0.05-0.41,0.12-0.58,0.22
				c-0.17,0.1-0.31,0.24-0.42,0.4s-0.16,0.36-0.16,0.59c0,0.22,0.04,0.41,0.12,0.56c0.08,0.16,0.2,0.3,0.36,0.43
				c0.16,0.13,0.35,0.26,0.58,0.38c0.23,0.12,0.49,0.26,0.79,0.4c0.31,0.15,0.6,0.31,0.87,0.48c0.27,0.17,0.51,0.35,0.72,0.55
				c0.21,0.2,0.37,0.43,0.49,0.67c0.12,0.25,0.18,0.53,0.18,0.84c0,0.42-0.08,0.78-0.25,1.07s-0.39,0.53-0.67,0.71
				c-0.28,0.18-0.6,0.31-0.97,0.4c-0.36,0.08-0.75,0.12-1.15,0.12c-0.13,0-0.3-0.01-0.5-0.03c-0.2-0.02-0.4-0.05-0.61-0.1
				c-0.21-0.04-0.4-0.09-0.59-0.15C153.87,70.2,153.72,70.13,153.61,70.06z"/>
			<path class="st0" d="M160.7,62.77c-0.17,0-0.32-0.06-0.45-0.18c-0.12-0.12-0.18-0.27-0.18-0.45c0-0.18,0.06-0.33,0.18-0.45
				c0.12-0.12,0.27-0.18,0.45-0.18c0.18,0,0.33,0.06,0.46,0.18c0.12,0.12,0.19,0.27,0.19,0.45c0,0.17-0.06,0.32-0.19,0.45
				S160.88,62.77,160.7,62.77z M161.18,70.4h-0.98v-6.09h0.98V70.4z"/>
			<path class="st0" d="M163.98,70.4H163v-9.02h0.98V70.4z"/>
			<path class="st0" d="M170.6,64.31l-2.43,6.09h-0.96l-2.31-6.09h1.07l1.55,4.42c0.12,0.33,0.19,0.61,0.21,0.85h0.02
				c0.04-0.31,0.1-0.58,0.19-0.83l1.62-4.45H170.6z"/>
			<path class="st0" d="M176.32,67.6h-4.3c0.02,0.68,0.2,1.2,0.55,1.57c0.35,0.37,0.83,0.55,1.44,0.55c0.69,0,1.32-0.23,1.89-0.68
				v0.92c-0.54,0.39-1.24,0.58-2.12,0.58c-0.86,0-1.54-0.28-2.03-0.83s-0.74-1.33-0.74-2.33c0-0.95,0.27-1.72,0.81-2.32
				c0.54-0.6,1.2-0.9,2-0.9s1.41,0.26,1.85,0.77s0.65,1.23,0.65,2.15V67.6z M175.32,66.78c0-0.56-0.14-1-0.41-1.31
				c-0.27-0.31-0.64-0.47-1.12-0.47c-0.46,0-0.85,0.16-1.17,0.49c-0.32,0.33-0.52,0.76-0.59,1.29H175.32z"/>
			<path class="st0" d="M180.83,65.3c-0.17-0.13-0.42-0.2-0.74-0.2c-0.42,0-0.76,0.2-1.04,0.59c-0.28,0.39-0.42,0.93-0.42,1.61v3.1
				h-0.98v-6.09h0.98v1.25h0.02c0.14-0.43,0.35-0.76,0.64-1c0.29-0.24,0.6-0.36,0.96-0.36c0.25,0,0.45,0.03,0.58,0.08V65.3z"/>
			<path class="st0" d="M189.58,70.4h-4.52v-8.53h4.33v0.9h-3.33v2.84h3.08v0.9h-3.08v2.99h3.52V70.4z"/>
			<path class="st0" d="M196,70.4h-0.98v-3.47c0-1.29-0.47-1.94-1.42-1.94c-0.49,0-0.89,0.18-1.21,0.55
				c-0.32,0.37-0.48,0.83-0.48,1.39v3.47h-0.98v-6.09h0.98v1.01h0.02c0.46-0.77,1.13-1.15,2-1.15c0.67,0,1.18,0.22,1.53,0.65
				c0.35,0.43,0.53,1.05,0.53,1.86V70.4z"/>
			<path class="st0" d="M200.52,70.34c-0.23,0.13-0.53,0.19-0.91,0.19c-1.07,0-1.6-0.59-1.6-1.78v-3.6h-1.05v-0.83h1.05v-1.49
				l0.98-0.31v1.8h1.53v0.83h-1.53v3.43c0,0.41,0.07,0.7,0.21,0.87s0.37,0.26,0.69,0.26c0.25,0,0.46-0.07,0.64-0.2V70.34z"/>
			<path class="st0" d="M206.47,67.6h-4.3c0.02,0.68,0.2,1.2,0.55,1.57c0.35,0.37,0.83,0.55,1.44,0.55c0.69,0,1.32-0.23,1.89-0.68
				v0.92c-0.54,0.39-1.24,0.58-2.12,0.58c-0.86,0-1.54-0.28-2.03-0.83c-0.49-0.55-0.74-1.33-0.74-2.33c0-0.95,0.27-1.72,0.81-2.32
				c0.54-0.6,1.2-0.9,2-0.9c0.8,0,1.41,0.26,1.85,0.77c0.44,0.52,0.65,1.23,0.65,2.15V67.6z M205.47,66.78c0-0.56-0.14-1-0.41-1.31
				c-0.27-0.31-0.64-0.47-1.12-0.47c-0.46,0-0.85,0.16-1.17,0.49s-0.52,0.76-0.59,1.29H205.47z"/>
			<path class="st0" d="M210.98,65.3c-0.17-0.13-0.42-0.2-0.74-0.2c-0.42,0-0.76,0.2-1.04,0.59c-0.28,0.39-0.42,0.93-0.42,1.61v3.1
				h-0.98v-6.09h0.98v1.25h0.02c0.14-0.43,0.35-0.76,0.64-1c0.29-0.24,0.6-0.36,0.96-0.36c0.25,0,0.45,0.03,0.58,0.08V65.3z"/>
			<path class="st0" d="M212.89,69.52h-0.02v3.68h-0.98v-8.89h0.98v1.07h0.02c0.48-0.81,1.18-1.21,2.11-1.21
				c0.79,0,1.4,0.27,1.84,0.82c0.44,0.55,0.66,1.28,0.66,2.19c0,1.02-0.25,1.83-0.74,2.45c-0.5,0.61-1.17,0.92-2.03,0.92
				C213.93,70.55,213.32,70.21,212.89,69.52z M212.87,67.07v0.85c0,0.5,0.16,0.93,0.49,1.28c0.33,0.35,0.74,0.53,1.25,0.53
				c0.59,0,1.05-0.23,1.39-0.68c0.34-0.45,0.5-1.08,0.5-1.89c0-0.68-0.16-1.21-0.47-1.59s-0.74-0.58-1.27-0.58
				c-0.57,0-1.02,0.2-1.37,0.59C213.04,65.98,212.87,66.47,212.87,67.07z"/>
			<path class="st0" d="M222.08,65.3c-0.17-0.13-0.42-0.2-0.74-0.2c-0.42,0-0.76,0.2-1.04,0.59c-0.28,0.39-0.42,0.93-0.42,1.61v3.1
				h-0.98v-6.09h0.98v1.25h0.02c0.14-0.43,0.35-0.76,0.64-1c0.29-0.24,0.6-0.36,0.96-0.36c0.25,0,0.45,0.03,0.58,0.08V65.3z"/>
			<path class="st0" d="M223.49,62.77c-0.17,0-0.32-0.06-0.45-0.18s-0.18-0.27-0.18-0.45c0-0.18,0.06-0.33,0.18-0.45
				c0.12-0.12,0.27-0.18,0.45-0.18c0.18,0,0.33,0.06,0.46,0.18c0.12,0.12,0.19,0.27,0.19,0.45c0,0.17-0.06,0.32-0.19,0.45
				C223.82,62.71,223.67,62.77,223.49,62.77z M223.97,70.4h-0.98v-6.09h0.98V70.4z"/>
			<path class="st0" d="M225.43,70.18v-1.05c0.53,0.39,1.12,0.59,1.75,0.59c0.86,0,1.29-0.29,1.29-0.86c0-0.16-0.04-0.3-0.11-0.41
				c-0.07-0.11-0.17-0.21-0.3-0.3c-0.12-0.09-0.27-0.17-0.44-0.24c-0.17-0.07-0.35-0.14-0.54-0.22c-0.27-0.11-0.51-0.22-0.71-0.32
				c-0.21-0.11-0.38-0.23-0.51-0.37s-0.24-0.29-0.31-0.47c-0.07-0.17-0.1-0.38-0.1-0.61c0-0.29,0.07-0.54,0.2-0.76
				c0.13-0.22,0.3-0.4,0.52-0.55c0.22-0.15,0.47-0.26,0.75-0.34s0.57-0.11,0.87-0.11c0.53,0,1,0.09,1.42,0.27v0.99
				c-0.45-0.29-0.96-0.44-1.55-0.44c-0.18,0-0.35,0.02-0.49,0.06c-0.15,0.04-0.27,0.1-0.38,0.18c-0.11,0.08-0.19,0.17-0.24,0.27
				s-0.09,0.22-0.09,0.35c0,0.16,0.03,0.29,0.09,0.4c0.06,0.11,0.14,0.2,0.25,0.29c0.11,0.08,0.25,0.16,0.4,0.23
				s0.34,0.14,0.54,0.22c0.27,0.1,0.51,0.21,0.73,0.32c0.21,0.11,0.4,0.23,0.55,0.37c0.15,0.14,0.27,0.29,0.35,0.47
				s0.12,0.39,0.12,0.64c0,0.3-0.07,0.56-0.2,0.79c-0.13,0.22-0.31,0.41-0.53,0.55c-0.22,0.15-0.48,0.26-0.77,0.33
				s-0.59,0.11-0.91,0.11C226.43,70.55,225.89,70.43,225.43,70.18z"/>
			<path class="st0" d="M235.72,67.6h-4.3c0.02,0.68,0.2,1.2,0.55,1.57c0.35,0.37,0.83,0.55,1.44,0.55c0.69,0,1.32-0.23,1.89-0.68
				v0.92c-0.54,0.39-1.24,0.58-2.12,0.58c-0.86,0-1.54-0.28-2.03-0.83c-0.49-0.55-0.74-1.33-0.74-2.33c0-0.95,0.27-1.72,0.81-2.32
				c0.54-0.6,1.2-0.9,2-0.9c0.8,0,1.41,0.26,1.85,0.77c0.44,0.52,0.65,1.23,0.65,2.15V67.6z M234.72,66.78c0-0.56-0.14-1-0.41-1.31
				c-0.27-0.31-0.64-0.47-1.12-0.47c-0.46,0-0.85,0.16-1.17,0.49s-0.52,0.76-0.59,1.29H234.72z"/>
			<path class="st0" d="M249.06,70.4h-0.99v-5.72c0-0.45,0.03-1.01,0.08-1.66h-0.02c-0.09,0.38-0.18,0.66-0.26,0.83l-2.91,6.55
				h-0.49l-2.91-6.51c-0.08-0.19-0.17-0.48-0.26-0.87h-0.02c0.03,0.34,0.05,0.9,0.05,1.67v5.71h-0.96v-8.53h1.32l2.62,5.95
				c0.2,0.46,0.33,0.8,0.39,1.02h0.04c0.17-0.47,0.31-0.82,0.41-1.05l2.67-5.92h1.25V70.4z"/>
			<path class="st0" d="M253.57,70.55c-0.9,0-1.62-0.28-2.16-0.85c-0.54-0.57-0.81-1.32-0.81-2.26c0-1.02,0.28-1.82,0.84-2.4
				c0.56-0.58,1.31-0.86,2.27-0.86c0.91,0,1.62,0.28,2.13,0.84c0.51,0.56,0.76,1.33,0.76,2.33c0,0.97-0.27,1.75-0.82,2.33
				C255.23,70.25,254.5,70.55,253.57,70.55z M253.64,64.99c-0.63,0-1.12,0.21-1.49,0.64c-0.36,0.43-0.55,1.01-0.55,1.76
				c0,0.72,0.18,1.29,0.55,1.71c0.37,0.42,0.86,0.62,1.48,0.62c0.63,0,1.12-0.2,1.45-0.61c0.34-0.41,0.51-0.99,0.51-1.74
				c0-0.76-0.17-1.35-0.51-1.76C254.76,65.2,254.27,64.99,253.64,64.99z"/>
			<path class="st0" d="M259.02,69.52h-0.02v0.88h-0.98v-9.02h0.98v4h0.02c0.48-0.81,1.18-1.21,2.11-1.21
				c0.78,0,1.39,0.27,1.83,0.82c0.44,0.55,0.66,1.28,0.66,2.19c0,1.02-0.25,1.83-0.74,2.45c-0.5,0.61-1.17,0.92-2.03,0.92
				C260.04,70.55,259.43,70.21,259.02,69.52z M258.99,67.07v0.85c0,0.5,0.16,0.93,0.49,1.28c0.33,0.35,0.74,0.53,1.25,0.53
				c0.59,0,1.05-0.23,1.39-0.68c0.34-0.45,0.5-1.08,0.5-1.89c0-0.68-0.16-1.21-0.47-1.59s-0.74-0.58-1.27-0.58
				c-0.57,0-1.02,0.2-1.37,0.59C259.17,65.98,258.99,66.47,258.99,67.07z"/>
			<path class="st0" d="M265.53,62.77c-0.17,0-0.32-0.06-0.45-0.18s-0.18-0.27-0.18-0.45c0-0.18,0.06-0.33,0.18-0.45
				c0.12-0.12,0.27-0.18,0.45-0.18c0.18,0,0.33,0.06,0.46,0.18c0.12,0.12,0.19,0.27,0.19,0.45c0,0.17-0.06,0.32-0.19,0.45
				C265.86,62.71,265.71,62.77,265.53,62.77z M266.01,70.4h-0.98v-6.09h0.98V70.4z"/>
			<path class="st0" d="M268.81,70.4h-0.98v-9.02h0.98V70.4z"/>
			<path class="st0" d="M271.14,62.77c-0.17,0-0.32-0.06-0.45-0.18s-0.18-0.27-0.18-0.45c0-0.18,0.06-0.33,0.18-0.45
				c0.12-0.12,0.27-0.18,0.45-0.18c0.18,0,0.33,0.06,0.46,0.18c0.12,0.12,0.19,0.27,0.19,0.45c0,0.17-0.06,0.32-0.19,0.45
				C271.47,62.71,271.32,62.77,271.14,62.77z M271.62,70.4h-0.98v-6.09h0.98V70.4z"/>
			<path class="st0" d="M276.27,70.34c-0.23,0.13-0.53,0.19-0.91,0.19c-1.07,0-1.6-0.59-1.6-1.78v-3.6h-1.05v-0.83h1.05v-1.49
				l0.98-0.31v1.8h1.53v0.83h-1.53v3.43c0,0.41,0.07,0.7,0.21,0.87s0.37,0.26,0.69,0.26c0.25,0,0.46-0.07,0.64-0.2V70.34z"/>
			<path class="st0" d="M282.27,64.31l-2.8,7.07c-0.5,1.26-1.2,1.89-2.11,1.89c-0.25,0-0.47-0.03-0.64-0.08v-0.87
				c0.21,0.07,0.4,0.11,0.58,0.11c0.49,0,0.86-0.29,1.11-0.88l0.49-1.15l-2.38-6.08h1.08l1.65,4.69c0.02,0.06,0.06,0.21,0.12,0.46
				h0.04c0.02-0.1,0.06-0.25,0.12-0.45l1.73-4.7H282.27z"/>
			<path class="st0" d="M295.19,70.4h-0.99v-5.72c0-0.45,0.03-1.01,0.08-1.66h-0.02c-0.09,0.38-0.18,0.66-0.26,0.83l-2.91,6.55
				h-0.49l-2.91-6.51c-0.08-0.19-0.17-0.48-0.26-0.87h-0.02c0.03,0.34,0.05,0.9,0.05,1.67v5.71h-0.96v-8.53h1.32l2.62,5.95
				c0.2,0.46,0.33,0.8,0.39,1.02h0.04c0.17-0.47,0.31-0.82,0.41-1.05l2.67-5.92h1.25V70.4z"/>
			<path class="st0" d="M301.52,70.4h-0.97v-0.95h-0.02c-0.42,0.73-1.05,1.09-1.87,1.09c-0.61,0-1.08-0.16-1.42-0.48
				c-0.34-0.32-0.51-0.75-0.51-1.28c0-1.14,0.67-1.8,2.01-1.99l1.83-0.26c0-1.04-0.42-1.55-1.26-1.55c-0.73,0-1.4,0.25-1.99,0.75v-1
				c0.6-0.38,1.29-0.57,2.07-0.57c1.43,0,2.15,0.76,2.15,2.27V70.4z M300.54,67.32l-1.47,0.2c-0.45,0.06-0.79,0.18-1.02,0.34
				c-0.23,0.16-0.35,0.44-0.35,0.85c0,0.3,0.11,0.54,0.32,0.73s0.5,0.28,0.85,0.28c0.48,0,0.88-0.17,1.2-0.51
				c0.32-0.34,0.47-0.77,0.47-1.29V67.32z"/>
			<path class="st0" d="M308.26,70.4h-0.98v-3.47c0-1.29-0.47-1.94-1.42-1.94c-0.49,0-0.89,0.18-1.21,0.55s-0.48,0.83-0.48,1.39
				v3.47h-0.98v-6.09h0.98v1.01h0.02c0.46-0.77,1.13-1.15,2-1.15c0.67,0,1.17,0.22,1.53,0.65c0.35,0.43,0.53,1.05,0.53,1.86V70.4z"
				/>
			<path class="st0" d="M314.31,70.4h-0.97v-0.95h-0.02c-0.42,0.73-1.05,1.09-1.87,1.09c-0.61,0-1.08-0.16-1.42-0.48
				c-0.34-0.32-0.51-0.75-0.51-1.28c0-1.14,0.67-1.8,2.01-1.99l1.83-0.26c0-1.04-0.42-1.55-1.26-1.55c-0.73,0-1.4,0.25-1.99,0.75v-1
				c0.6-0.38,1.29-0.57,2.07-0.57c1.43,0,2.15,0.76,2.15,2.27V70.4z M313.34,67.32l-1.47,0.2c-0.45,0.06-0.79,0.18-1.02,0.34
				c-0.23,0.16-0.35,0.44-0.35,0.85c0,0.3,0.11,0.54,0.32,0.73s0.5,0.28,0.85,0.28c0.48,0,0.88-0.17,1.2-0.51
				c0.32-0.34,0.47-0.77,0.47-1.29V67.32z"/>
			<path class="st0" d="M321.21,69.92c0,2.24-1.07,3.35-3.21,3.35c-0.75,0-1.41-0.14-1.97-0.43v-0.98c0.69,0.38,1.34,0.57,1.96,0.57
				c1.5,0,2.25-0.8,2.25-2.39v-0.67h-0.02c-0.46,0.78-1.16,1.17-2.09,1.17c-0.76,0-1.37-0.27-1.83-0.81
				c-0.46-0.54-0.69-1.27-0.69-2.18c0-1.03,0.25-1.86,0.75-2.47c0.5-0.61,1.18-0.92,2.04-0.92c0.82,0,1.43,0.33,1.83,0.99h0.02
				v-0.84h0.98V69.92z M320.23,67.65v-0.9c0-0.48-0.16-0.9-0.49-1.24c-0.33-0.34-0.73-0.52-1.22-0.52c-0.6,0-1.07,0.22-1.42,0.66
				c-0.34,0.44-0.51,1.05-0.51,1.84c0,0.68,0.16,1.22,0.49,1.63c0.33,0.41,0.76,0.61,1.3,0.61c0.55,0,0.99-0.19,1.33-0.58
				C320.06,68.75,320.23,68.26,320.23,67.65z"/>
			<path class="st0" d="M327.93,67.6h-4.3c0.02,0.68,0.2,1.2,0.55,1.57c0.35,0.37,0.83,0.55,1.44,0.55c0.69,0,1.32-0.23,1.89-0.68
				v0.92c-0.54,0.39-1.24,0.58-2.12,0.58c-0.86,0-1.54-0.28-2.03-0.83c-0.49-0.55-0.74-1.33-0.74-2.33c0-0.95,0.27-1.72,0.81-2.32
				c0.54-0.6,1.2-0.9,2-0.9c0.8,0,1.41,0.26,1.85,0.77c0.44,0.52,0.65,1.23,0.65,2.15V67.6z M326.93,66.78c0-0.56-0.14-1-0.41-1.31
				c-0.27-0.31-0.64-0.47-1.12-0.47c-0.46,0-0.85,0.16-1.17,0.49s-0.52,0.76-0.59,1.29H326.93z"/>
			<path class="st0" d="M337.91,70.4h-0.98v-3.5c0-0.67-0.1-1.16-0.31-1.46s-0.56-0.45-1.05-0.45c-0.42,0-0.77,0.19-1.06,0.57
				c-0.29,0.38-0.44,0.84-0.44,1.37v3.47h-0.98v-3.62c0-1.2-0.46-1.8-1.39-1.8c-0.43,0-0.78,0.18-1.06,0.54s-0.42,0.83-0.42,1.4
				v3.47h-0.98v-6.09h0.98v0.96h0.02c0.43-0.74,1.06-1.11,1.89-1.11c0.42,0,0.78,0.12,1.09,0.35c0.31,0.23,0.52,0.54,0.64,0.91
				c0.45-0.84,1.13-1.26,2.02-1.26c1.34,0,2.01,0.83,2.01,2.48V70.4z"/>
			<path class="st0" d="M344.5,67.6h-4.3c0.02,0.68,0.2,1.2,0.55,1.57c0.35,0.37,0.83,0.55,1.44,0.55c0.69,0,1.32-0.23,1.89-0.68
				v0.92c-0.54,0.39-1.24,0.58-2.12,0.58c-0.86,0-1.54-0.28-2.03-0.83c-0.49-0.55-0.74-1.33-0.74-2.33c0-0.95,0.27-1.72,0.81-2.32
				c0.54-0.6,1.2-0.9,2-0.9c0.8,0,1.41,0.26,1.85,0.77c0.44,0.52,0.65,1.23,0.65,2.15V67.6z M343.5,66.78c0-0.56-0.14-1-0.41-1.31
				c-0.27-0.31-0.64-0.47-1.12-0.47c-0.46,0-0.85,0.16-1.17,0.49s-0.52,0.76-0.59,1.29H343.5z"/>
			<path class="st0" d="M350.88,70.4h-0.98v-3.47c0-1.29-0.47-1.94-1.42-1.94c-0.49,0-0.89,0.18-1.21,0.55s-0.48,0.83-0.48,1.39
				v3.47h-0.98v-6.09h0.98v1.01h0.02c0.46-0.77,1.13-1.15,2-1.15c0.67,0,1.17,0.22,1.53,0.65c0.35,0.43,0.53,1.05,0.53,1.86V70.4z"
				/>
			<path class="st0" d="M355.4,70.34c-0.23,0.13-0.53,0.19-0.91,0.19c-1.07,0-1.6-0.59-1.6-1.78v-3.6h-1.05v-0.83h1.05v-1.49
				l0.98-0.31v1.8h1.53v0.83h-1.53v3.43c0,0.41,0.07,0.7,0.21,0.87s0.37,0.26,0.69,0.26c0.25,0,0.46-0.07,0.64-0.2V70.34z"/>
			<path class="st0" d="M153.61,87.69v-1.18c0.13,0.12,0.3,0.23,0.48,0.32c0.19,0.1,0.39,0.18,0.59,0.24
				c0.21,0.07,0.42,0.12,0.63,0.15c0.21,0.04,0.4,0.05,0.58,0.05c0.61,0,1.07-0.11,1.38-0.34c0.3-0.23,0.45-0.56,0.45-0.98
				c0-0.23-0.05-0.43-0.15-0.6c-0.1-0.17-0.24-0.33-0.42-0.47s-0.39-0.28-0.63-0.4c-0.24-0.13-0.51-0.26-0.79-0.41
				c-0.3-0.15-0.58-0.3-0.83-0.46c-0.26-0.15-0.48-0.32-0.67-0.51s-0.34-0.4-0.45-0.63c-0.11-0.24-0.16-0.51-0.16-0.83
				c0-0.39,0.09-0.73,0.26-1.01c0.17-0.29,0.39-0.52,0.67-0.71c0.28-0.19,0.59-0.33,0.95-0.42c0.35-0.09,0.72-0.14,1.09-0.14
				c0.84,0,1.45,0.1,1.84,0.3v1.12c-0.5-0.35-1.15-0.52-1.94-0.52c-0.22,0-0.44,0.02-0.65,0.07c-0.22,0.05-0.41,0.12-0.58,0.22
				c-0.17,0.1-0.31,0.24-0.42,0.4s-0.16,0.36-0.16,0.59c0,0.22,0.04,0.41,0.12,0.56c0.08,0.16,0.2,0.3,0.36,0.43
				c0.16,0.13,0.35,0.26,0.58,0.38c0.23,0.12,0.49,0.26,0.79,0.4c0.31,0.15,0.6,0.31,0.87,0.48c0.27,0.17,0.51,0.35,0.72,0.55
				c0.21,0.2,0.37,0.43,0.49,0.67c0.12,0.25,0.18,0.53,0.18,0.84c0,0.42-0.08,0.78-0.25,1.07s-0.39,0.53-0.67,0.71
				c-0.28,0.18-0.6,0.31-0.97,0.4c-0.36,0.08-0.75,0.12-1.15,0.12c-0.13,0-0.3-0.01-0.5-0.03c-0.2-0.02-0.4-0.05-0.61-0.1
				c-0.21-0.04-0.4-0.09-0.59-0.15C153.87,87.84,153.72,87.77,153.61,87.69z"/>
			<path class="st0" d="M160.7,80.4c-0.17,0-0.32-0.06-0.45-0.18c-0.12-0.12-0.18-0.27-0.18-0.45c0-0.18,0.06-0.33,0.18-0.45
				c0.12-0.12,0.27-0.18,0.45-0.18c0.18,0,0.33,0.06,0.46,0.18c0.12,0.12,0.19,0.27,0.19,0.45c0,0.17-0.06,0.32-0.19,0.45
				S160.88,80.4,160.7,80.4z M161.18,88.04h-0.98v-6.09h0.98V88.04z"/>
			<path class="st0" d="M163.98,88.04H163v-9.02h0.98V88.04z"/>
			<path class="st0" d="M170.6,81.95l-2.43,6.09h-0.96l-2.31-6.09h1.07l1.55,4.42c0.12,0.33,0.19,0.61,0.21,0.85h0.02
				c0.04-0.31,0.1-0.58,0.19-0.83l1.62-4.45H170.6z"/>
			<path class="st0" d="M176.32,85.24h-4.3c0.02,0.68,0.2,1.2,0.55,1.57c0.35,0.37,0.83,0.55,1.44,0.55c0.69,0,1.32-0.23,1.89-0.68
				v0.92c-0.54,0.39-1.24,0.58-2.12,0.58c-0.86,0-1.54-0.28-2.03-0.83s-0.74-1.33-0.74-2.33c0-0.95,0.27-1.72,0.81-2.32
				c0.54-0.6,1.2-0.9,2-0.9s1.41,0.26,1.85,0.77s0.65,1.23,0.65,2.15V85.24z M175.32,84.41c0-0.56-0.14-1-0.41-1.31
				c-0.27-0.31-0.64-0.47-1.12-0.47c-0.46,0-0.85,0.16-1.17,0.49c-0.32,0.33-0.52,0.76-0.59,1.29H175.32z"/>
			<path class="st0" d="M180.83,82.94c-0.17-0.13-0.42-0.2-0.74-0.2c-0.42,0-0.76,0.2-1.04,0.59c-0.28,0.39-0.42,0.93-0.42,1.61v3.1
				h-0.98v-6.09h0.98v1.25h0.02c0.14-0.43,0.35-0.76,0.64-1c0.29-0.24,0.6-0.36,0.96-0.36c0.25,0,0.45,0.03,0.58,0.08V82.94z"/>
			<path class="st0" d="M184.66,87.69v-1.18c0.13,0.12,0.3,0.23,0.48,0.32c0.19,0.1,0.39,0.18,0.59,0.24
				c0.21,0.07,0.42,0.12,0.63,0.15c0.21,0.04,0.4,0.05,0.58,0.05c0.61,0,1.07-0.11,1.38-0.34c0.3-0.23,0.45-0.56,0.45-0.98
				c0-0.23-0.05-0.43-0.15-0.6c-0.1-0.17-0.24-0.33-0.42-0.47s-0.39-0.28-0.63-0.4c-0.24-0.13-0.51-0.26-0.79-0.41
				c-0.3-0.15-0.58-0.3-0.83-0.46c-0.26-0.15-0.48-0.32-0.67-0.51s-0.34-0.4-0.45-0.63c-0.11-0.24-0.16-0.51-0.16-0.83
				c0-0.39,0.09-0.73,0.26-1.01c0.17-0.29,0.39-0.52,0.67-0.71c0.28-0.19,0.59-0.33,0.95-0.42c0.35-0.09,0.72-0.14,1.09-0.14
				c0.84,0,1.45,0.1,1.84,0.3v1.12c-0.5-0.35-1.15-0.52-1.94-0.52c-0.22,0-0.44,0.02-0.65,0.07c-0.22,0.05-0.41,0.12-0.58,0.22
				c-0.17,0.1-0.31,0.24-0.42,0.4s-0.16,0.36-0.16,0.59c0,0.22,0.04,0.41,0.12,0.56c0.08,0.16,0.2,0.3,0.36,0.43
				c0.16,0.13,0.35,0.26,0.58,0.38c0.23,0.12,0.49,0.26,0.79,0.4c0.31,0.15,0.6,0.31,0.87,0.48c0.27,0.17,0.51,0.35,0.72,0.55
				c0.21,0.2,0.37,0.43,0.49,0.67c0.12,0.25,0.18,0.53,0.18,0.84c0,0.42-0.08,0.78-0.25,1.07s-0.39,0.53-0.67,0.71
				c-0.28,0.18-0.6,0.31-0.97,0.4c-0.36,0.08-0.75,0.12-1.15,0.12c-0.13,0-0.3-0.01-0.5-0.03c-0.2-0.02-0.4-0.05-0.61-0.1
				c-0.21-0.04-0.4-0.09-0.59-0.15C184.92,87.84,184.77,87.77,184.66,87.69z"/>
			<path class="st0" d="M196.15,85.24h-4.3c0.02,0.68,0.2,1.2,0.55,1.57c0.35,0.37,0.83,0.55,1.44,0.55c0.69,0,1.32-0.23,1.89-0.68
				v0.92c-0.54,0.39-1.24,0.58-2.12,0.58c-0.86,0-1.54-0.28-2.03-0.83s-0.74-1.33-0.74-2.33c0-0.95,0.27-1.72,0.81-2.32
				c0.54-0.6,1.2-0.9,2-0.9s1.41,0.26,1.85,0.77c0.44,0.52,0.65,1.23,0.65,2.15V85.24z M195.15,84.41c0-0.56-0.14-1-0.41-1.31
				c-0.27-0.31-0.64-0.47-1.12-0.47c-0.46,0-0.85,0.16-1.17,0.49c-0.32,0.33-0.52,0.76-0.59,1.29H195.15z"/>
			<path class="st0" d="M201.63,87.76c-0.47,0.28-1.02,0.42-1.67,0.42c-0.87,0-1.57-0.28-2.1-0.85c-0.53-0.57-0.8-1.3-0.8-2.2
				c0-1,0.29-1.81,0.86-2.42c0.58-0.61,1.34-0.91,2.3-0.91c0.54,0,1.01,0.1,1.42,0.3v1c-0.45-0.32-0.94-0.48-1.45-0.48
				c-0.62,0-1.13,0.22-1.53,0.67c-0.4,0.45-0.6,1.03-0.6,1.76c0,0.71,0.19,1.28,0.56,1.69c0.38,0.41,0.88,0.62,1.51,0.62
				c0.53,0,1.03-0.18,1.5-0.53V87.76z"/>
			<path class="st0" d="M207.88,88.04h-0.98v-0.96h-0.02c-0.4,0.74-1.03,1.11-1.88,1.11c-1.45,0-2.18-0.86-2.18-2.59v-3.64h0.97
				v3.49c0,1.28,0.49,1.93,1.47,1.93c0.48,0,0.87-0.18,1.17-0.53c0.31-0.35,0.46-0.81,0.46-1.38v-3.51h0.98V88.04z"/>
			<path class="st0" d="M212.88,82.94c-0.17-0.13-0.42-0.2-0.74-0.2c-0.42,0-0.76,0.2-1.04,0.59c-0.28,0.39-0.42,0.93-0.42,1.61v3.1
				h-0.98v-6.09h0.98v1.25h0.02c0.14-0.43,0.35-0.76,0.64-1c0.29-0.24,0.6-0.36,0.96-0.36c0.25,0,0.45,0.03,0.58,0.08V82.94z"/>
			<path class="st0" d="M214.29,80.4c-0.17,0-0.32-0.06-0.45-0.18s-0.18-0.27-0.18-0.45c0-0.18,0.06-0.33,0.18-0.45
				c0.12-0.12,0.27-0.18,0.45-0.18c0.18,0,0.33,0.06,0.46,0.18c0.12,0.12,0.19,0.27,0.19,0.45c0,0.17-0.06,0.32-0.19,0.45
				C214.62,80.34,214.47,80.4,214.29,80.4z M214.77,88.04h-0.98v-6.09h0.98V88.04z"/>
			<path class="st0" d="M219.42,87.98c-0.23,0.13-0.53,0.19-0.91,0.19c-1.07,0-1.6-0.59-1.6-1.78v-3.6h-1.05v-0.83h1.05v-1.49
				l0.98-0.31v1.8h1.53v0.83h-1.53v3.43c0,0.41,0.07,0.7,0.21,0.87s0.37,0.26,0.69,0.26c0.25,0,0.46-0.07,0.64-0.2V87.98z"/>
			<path class="st0" d="M225.43,81.95l-2.8,7.07c-0.5,1.26-1.2,1.89-2.11,1.89c-0.25,0-0.47-0.03-0.64-0.08v-0.87
				c0.21,0.07,0.4,0.11,0.58,0.11c0.49,0,0.86-0.29,1.11-0.88l0.49-1.15l-2.38-6.08h1.08l1.65,4.69c0.02,0.06,0.06,0.21,0.12,0.46
				h0.04c0.02-0.1,0.06-0.25,0.12-0.45l1.73-4.7H225.43z"/>
	</g>
</svg>
