<?xml version="1.0" encoding="utf-8"?>
<!-- Generator: Adobe Illustrator 24.2.3, SVG Export Plug-In . SVG Version: 6.00 Build 0)  -->
<svg version="1.1" id="Layer_1" xmlns="http://www.w3.org/2000/svg" xmlns:xlink="http://www.w3.org/1999/xlink" x="0px" y="0px"
	 viewBox="0 0 138.4 28.9" style="enable-background:new 0 0 138.4 28.9;" xml:space="preserve">
<style type="text/css">
	.st0{fill:#FFFFFF;}
	.st1{fill-rule:evenodd;clip-rule:evenodd;fill:#FFFFFF;}
</style>
<g>
	<polygon class="st0" points="18.1,12.6 14.5,12.6 14.5,8.6 13,8.6 13,12.6 9.4,12.6 9.4,14 13,14 13,18 14.5,18 14.5,14 18.1,14 	
		"/>
	<polygon class="st0" points="10.8,19.1 7.5,19.1 7.5,15.5 6.2,15.5 6.2,19.1 3,19.1 3,20.2 6.2,20.2 6.2,23.7 7.5,23.7 7.5,20.2 
		10.8,20.2 	"/>
	<polygon class="st0" points="24.5,6.3 21.3,6.3 21.3,2.7 20,2.7 20,6.3 16.7,6.3 16.7,7.4 20,7.4 20,11 21.3,11 21.3,7.4 24.5,7.4 
			"/>
	<polygon class="st0" points="16.5,23 14.3,23 14.3,20.6 13.2,20.6 13.2,23 11,23 11,24 13.2,24 13.2,26.5 14.3,26.5 14.3,24 
		16.5,24 	"/>
	<polygon class="st0" points="10.8,6.3 7.4,6.3 7.4,2.7 6.3,2.7 6.3,6.3 3,6.3 3,7.4 6.3,7.4 6.3,11 7.4,11 7.4,7.4 10.8,7.4 	"/>
	<polygon class="st0" points="27.1,12.8 24.8,12.8 24.8,10.3 23.8,10.3 23.8,12.8 21.6,12.8 21.6,13.8 23.8,13.8 23.8,16.3 
		24.8,16.3 24.8,13.8 27.1,13.8 	"/>
	<polygon class="st1" points="24.5,19.1 21.3,19.1 21.3,15.5 20,15.5 20,19.1 16.7,19.1 16.7,20.2 20,20.2 20,23.7 21.3,23.7 
		21.3,20.2 24.5,20.2 	"/>
	<polygon class="st0" points="13.4,0.2 13.4,2.6 11.2,2.6 11.2,3.4 13.4,3.4 13.4,5.8 14.2,5.8 14.2,3.4 16.4,3.4 16.4,2.6 
		14.2,2.6 14.2,0.2 	"/>
	<polygon class="st0" points="5.6,12.9 3.4,12.9 3.4,10.5 2.6,10.5 2.6,12.9 0.4,12.9 0.4,13.7 2.6,13.7 2.6,16.1 3.4,16.1 
		3.4,13.7 5.6,13.6 	"/>
	<g>
		<path class="st1" d="M39.1,26.9c0.3,0.2,0.6,0.2,0.9,0.2c0.6,0,1-0.3,1-0.8c0-0.3-0.1-0.5-0.3-0.6c-0.2-0.1-0.4-0.2-0.6-0.3
			s-0.3-0.2-0.3-0.3c0-0.1,0.1-0.2,0.4-0.2c0.2,0,0.5,0.1,0.8,0.2v-0.5c-0.3-0.1-0.6-0.2-0.9-0.2c-0.6,0-1,0.3-1,0.7
			c0,0.5,0.3,0.7,0.9,0.9c0.2,0.1,0.3,0.1,0.3,0.3c0,0.2-0.1,0.2-0.4,0.2c-0.3,0-0.5-0.1-0.9-0.3L39.1,26.9L39.1,26.9z"/>
		<path class="st1" d="M51.4,25.8c0,0.4,0.1,0.7,0.4,0.9c0.2,0.2,0.6,0.4,1,0.4c0.4,0,0.7-0.1,1-0.4s0.4-0.6,0.4-0.9
			c0-0.4-0.1-0.7-0.4-0.9c-0.2-0.2-0.6-0.4-1-0.4c-0.4,0-0.7,0.1-1,0.4C51.6,25.1,51.4,25.5,51.4,25.8 M52.1,25.8
			c0-0.5,0.3-0.8,0.7-0.8c0.4,0,0.7,0.3,0.7,0.8s-0.3,0.8-0.7,0.8S52.1,26.3,52.1,25.8"/>
		<polygon class="st1" points="65.3,27.1 66,27.1 66,26.1 66.9,26.1 66.9,25.6 66,25.6 66,25 67,25 67,24.6 65.3,24.6 		"/>
		<polygon class="st1" points="78.7,27.1 79.4,27.1 79.4,25.1 80.2,25.1 80.2,24.6 77.9,24.6 77.9,25.1 78.7,25.1 		"/>
		<polygon class="st1" points="91.4,27.1 91.7,27.1 92.3,25.5 92.8,27.1 93.1,27.1 94.1,24.6 93.4,24.6 93,26 92.5,24.6 92,24.6 
			91.5,26 91.1,24.6 90.4,24.6 		"/>
		<path class="st1" d="M103.6,27.1h0.7l0.2-0.5h1.1l0.2,0.5h0.7l-1-2.5h-0.7L103.6,27.1z M104.7,26.2l0.4-1l0.3,1H104.7z"/>
		<path class="st1" d="M116.7,27.1h0.6v-1c0,0,0.1,0,0.1,0c0.2,0,0.4,0.1,0.5,0.3l0.3,0.7h0.7l-0.4-0.9c-0.1-0.2-0.2-0.3-0.3-0.3
			c0.3-0.1,0.4-0.3,0.4-0.6c0-0.5-0.3-0.7-1-0.7h-0.9V27.1z M117.6,25.6h-0.3V25h0.3c0.2,0,0.3,0.1,0.3,0.3
			C117.9,25.5,117.8,25.6,117.6,25.6"/>
		<polygon class="st1" points="129.3,27.1 131,27.1 131,26.6 129.9,26.6 129.9,26 130.9,26 130.9,25.6 129.9,25.6 129.9,25 131,25 
			131,24.6 129.3,24.6 		"/>
		<path class="st1" d="M71.3,11.2c0.9-0.3,1.6-0.4,2.1-0.4c2.5,0,4.1,1.7,4.1,4.4c0,2.8-1.8,4.5-4.8,4.5c-1.1,0-2.1-0.2-3.2-0.6
			L69.5,6.7h1.8L71.3,11.2L71.3,11.2z M72.9,18c1.7,0,2.7-1,2.7-2.7c0-1.7-1-2.8-2.5-2.8c-0.7,0-1.3,0.2-1.8,0.5v4.8
			C71.9,17.9,72.4,18,72.9,18"/>
		<rect x="85.2" y="4.9" class="st1" width="1.8" height="16.3"/>
		<path class="st1" d="M97.1,14.3h4.2c-0.1-1.1-0.7-1.7-1.7-1.8C98.5,12.4,97.5,13.1,97.1,14.3 M99.2,19.7c-2.8-0.3-4.2-2.2-4.1-4.6
			c0.1-2.5,1.7-4.3,4.2-4.3c2.6,0,4.1,1.9,4,4.8H97c0.2,1.6,1.1,2.3,2.4,2.4c1.1,0.1,2.6-0.2,3.4-0.7v1.7
			C101.8,19.6,100.6,19.9,99.2,19.7"/>
		<path class="st1" d="M130.4,18.3c1.2,0,1.9-0.6,1.9-1.9V11h1.8v5.6c0,1.9-1.5,3-3.8,3c-2.3,0-3.8-1.1-3.8-3V11h1.8v5.4
			C128.4,17.7,129.2,18.3,130.4,18.3"/>
		<path class="st1" d="M57.3,19.7c-3.1,0-4.8-1.6-4.8-4.5c0-2.7,1.7-4.4,4.1-4.4c0.8,0,1.5,0.2,2.1,0.6v-0.6h1.8l-0.1,8.4
			C59.8,19.4,58.5,19.7,57.3,19.7 M57.2,18c0.4,0,0.9,0,1.6-0.2l0-4.7c-0.6-0.4-1.2-0.6-1.8-0.6c-1.6,0-2.5,1-2.5,2.8
			C54.4,17,55.4,18,57.2,18"/>
		<path class="st1" d="M115.6,19.7c-3.1,0-4.8-1.6-4.8-4.5c0-2.7,1.7-4.4,4.1-4.4c0.8,0,1.5,0.2,2.1,0.6v-0.6h1.8l-0.1,8.4
			C118,19.4,116.7,19.7,115.6,19.7 M115.4,18c0.4,0,0.9,0,1.6-0.2l0-4.7c-0.6-0.4-1.2-0.6-1.8-0.6c-1.6,0-2.5,1-2.5,2.8
			C112.7,17,113.7,18,115.4,18"/>
	</g>
	<g>
		<polygon class="st0" points="38.8,7.3 40.6,7.3 40.6,12.4 45.6,12.4 45.6,14.1 40.6,14.1 40.6,19.8 38.8,19.8 38.8,14.1 
			33.9,14.1 33.9,12.4 38.8,12.4 		"/>
		<path class="st0" d="M137.2,10.9c0.6,0,1.1,0.5,1.1,1.1c0,0.6-0.5,1.1-1.1,1.1s-1.1-0.5-1.1-1.1C136.1,11.4,136.6,10.9,137.2,10.9
			L137.2,10.9z M137.2,11.1c-0.5,0-0.9,0.4-0.9,0.9c0,0.5,0.4,0.9,0.9,0.9c0.5,0,0.9-0.4,0.9-0.9C138,11.5,137.7,11.1,137.2,11.1
			L137.2,11.1z M137,12.6h-0.2v-1.2c0.1,0,0.2,0,0.3,0c0.2,0,0.3,0,0.4,0.1s0.1,0.1,0.1,0.2c0,0.2-0.1,0.3-0.2,0.3v0
			c0.1,0,0.2,0.1,0.2,0.3c0,0.2,0.1,0.3,0.1,0.3h-0.2c0,0-0.1-0.1-0.1-0.3c0-0.2-0.1-0.2-0.3-0.2H137V12.6z M137,12h0.1
			c0.2,0,0.3-0.1,0.3-0.2c0-0.1-0.1-0.2-0.3-0.2c-0.1,0-0.1,0-0.1,0V12z"/>
	</g>
</g>
</svg>
