<?xml version="1.0" encoding="utf-8"?>
<!-- Generator: Adobe Illustrator 24.2.3, SVG Export Plug-In . SVG Version: 6.00 Build 0)  -->
<svg version="1.1" id="Layer_1" xmlns="http://www.w3.org/2000/svg" xmlns:xlink="http://www.w3.org/1999/xlink" x="0px" y="0px"
	 viewBox="0 0 198.4 72.1" style="enable-background:new 0 0 198.4 72.1;" xml:space="preserve">
<style type="text/css">
	.st0{fill:#0BD3CD;}
	.st1{fill:#FFFFFF;}
</style>
<g>
	<polygon class="st0" points="139.4,17 129.8,0.6 117.3,0.7 117.3,0.7 99.3,0.7 84.3,24.6 77.7,13.8 59.2,13.8 65.7,24.6 84.4,24.6 
		84.4,24.6 103.4,24.6 117.3,0.9 126.9,16.9 	"/>
	<polygon class="st1" points="140.7,77.9 140.8,77.9 140.8,77.9 	"/>
	<g>
		<polygon class="st1" points="136.2,45.5 136.2,66.1 142.6,71.6 142.6,45.4 141.2,45.4 136.2,45.4 		"/>
		<path class="st1" d="M31.8,63.7l-0.1,2.8v5h-6.2V45.4h6.2V56h0.1l9.3-10.6h7.9l-11.3,12L31.8,63.7z"/>
		<path class="st1" d="M66,61v10.6h-7V61l-9.8-15.7h7.6L66,61z"/>
		<polygon class="st1" points="49.1,71.5 42.4,71.5 34.3,61.1 41.5,61.1 		"/>
		<polygon class="st1" points="68.2,45.4 62.6,55 69.8,55 75.8,45.4 		"/>
		<path class="st1" d="M103.3,61v10.6h-7V61l-9.8-15.7h7.6L103.3,61z"/>
		<polygon class="st1" points="105.5,45.4 99.8,55 107.1,55 113.1,45.4 		"/>
		<polygon class="st1" points="82.4,66.1 82.4,45.4 76,45.4 76,66.1 82.4,71.6 82.4,71.6 92.7,71.6 92.7,66.1 		"/>
		<polygon class="st1" points="113.2,45.4 113.2,50.8 118.1,50.8 118.1,50.8 126.9,50.8 120.6,55 120.6,71.5 126.9,71.5 126.9,50.8 
			134.3,50.8 134.3,45.4 		"/>
		<path class="st1" d="M16,55.7c-3.7-0.7-6.3-1.1-6.3-3.3c0-1.4,1-2.3,3.4-2.3c1.4,0,2.4,0.3,3.2,0.8h7.4c-1.6-4.3-5.4-6.3-10.6-6.3
			c-5.9,0-10.1,2.6-10.1,7.9c0,5.5,4.5,7.1,8.1,8c3.3,0.8,6.4,0.6,6.4,3.1c0,1.7-1.5,2.5-3.9,2.5c-1.9,0-3.3-0.5-4.3-1.4h-7
			c1.6,5.5,6.8,6.9,11.3,6.9c6.5,0,10.3-2.7,10.3-8C24.2,58.1,19.9,56.5,16,55.7z"/>
		<path class="st1" d="M183.5,55.7c-3.7-0.7-6.3-1.1-6.3-3.3c0-1.4,1-2.3,3.5-2.3c1.4,0,2.4,0.3,3.2,0.8h7.5
			c-1.6-4.3-5.4-6.3-10.6-6.3c-6,0-10,2.6-10,7.9c0,5.5,4.5,7.1,8.1,8c3.3,0.8,6.5,0.6,6.5,3.1c0,1.7-1.5,2.5-3.9,2.5
			c-1.9,0-3.3-0.5-4.3-1.4h-7c1.6,5.5,6.8,6.9,11.3,6.9c6.5,0,10.3-2.7,10.3-8C191.8,58.1,187.5,56.5,183.5,55.7z"/>
		<path class="st1" d="M164.3,61.2c-1.1,2.8-3.9,4.8-7.1,4.8c-4.2,0-7.6-3.4-7.6-7.6s3.4-7.6,7.6-7.6c2.9,0,5.5,1.7,6.8,4.1h5.9
			c-1.6-5.5-6.6-9.6-12.7-9.6c-7.3,0-13.1,5.9-13.1,13.2s5.9,13.2,13.1,13.2c6.3,0,11.6-4.4,12.9-10.3H164.3z"/>
		<g>
			<path class="st1" d="M192,48.5c0-0.4,0.1-0.7,0.2-1c0.1-0.3,0.3-0.6,0.6-0.8c0.2-0.2,0.5-0.4,0.8-0.6c0.3-0.1,0.7-0.2,1-0.2
				s0.7,0.1,1,0.2c0.3,0.1,0.6,0.3,0.8,0.6c0.2,0.2,0.4,0.5,0.6,0.8c0.1,0.3,0.2,0.7,0.2,1c0,0.4-0.1,0.7-0.2,1
				c-0.1,0.3-0.3,0.6-0.6,0.8c-0.2,0.2-0.5,0.4-0.8,0.6c-0.3,0.1-0.7,0.2-1,0.2s-0.7-0.1-1-0.2c-0.3-0.1-0.6-0.3-0.8-0.6
				c-0.2-0.2-0.4-0.5-0.6-0.8C192.1,49.2,192,48.9,192,48.5z M192.4,48.5c0,0.3,0.1,0.6,0.2,0.8c0.1,0.3,0.3,0.5,0.5,0.7
				c0.2,0.2,0.4,0.4,0.7,0.5c0.3,0.1,0.5,0.2,0.9,0.2s0.6-0.1,0.9-0.2s0.5-0.3,0.7-0.5c0.2-0.2,0.4-0.4,0.5-0.7
				c0.1-0.3,0.2-0.6,0.2-0.8c0-0.3-0.1-0.6-0.2-0.9c-0.1-0.3-0.3-0.5-0.5-0.7s-0.4-0.4-0.7-0.5c-0.3-0.1-0.5-0.2-0.9-0.2
				s-0.6,0.1-0.9,0.2s-0.5,0.3-0.7,0.5c-0.2,0.2-0.4,0.4-0.5,0.7C192.5,47.9,192.4,48.2,192.4,48.5z M193.6,47h1
				c0.1,0,0.3,0,0.4,0.1c0.1,0,0.2,0.1,0.4,0.2s0.2,0.2,0.2,0.3c0.1,0.1,0.1,0.2,0.1,0.4c0,0.2-0.1,0.4-0.2,0.5s-0.3,0.2-0.5,0.3
				l0.8,1.3h-0.6l-0.7-1.2h-0.4V50h-0.5V47z M194.6,48.3c0.1,0,0.3,0,0.4-0.1s0.2-0.2,0.2-0.3c0-0.2-0.1-0.3-0.2-0.3
				s-0.3-0.1-0.4-0.1h-0.5v0.8H194.6z"/>
		</g>
	</g>
</g>
</svg>
